G04 #@! TF.GenerationSoftware,KiCad,Pcbnew,(5.1.0-0)*
G04 #@! TF.CreationDate,2020-09-24T17:30:25-07:00*
G04 #@! TF.ProjectId,858D+ MK1841D3 to ATmega328,38353844-2b20-44d4-9b31-383431443320,rev?*
G04 #@! TF.SameCoordinates,Original*
G04 #@! TF.FileFunction,Legend,Top*
G04 #@! TF.FilePolarity,Positive*
%FSLAX46Y46*%
G04 Gerber Fmt 4.6, Leading zero omitted, Abs format (unit mm)*
G04 Created by KiCad (PCBNEW (5.1.0-0)) date 2020-09-24 17:30:25*
%MOMM*%
%LPD*%
G04 APERTURE LIST*
%ADD10C,0.127000*%
%ADD11C,0.120000*%
%ADD12C,0.150000*%
G04 APERTURE END LIST*
D10*
X40005000Y-31840714D02*
X39642142Y-31840714D01*
X39642142Y-31078714D01*
X40259000Y-31840714D02*
X40259000Y-31078714D01*
X40513000Y-31623000D01*
X40767000Y-31078714D01*
X40767000Y-31840714D01*
X41093571Y-31151285D02*
X41129857Y-31115000D01*
X41202428Y-31078714D01*
X41383857Y-31078714D01*
X41456428Y-31115000D01*
X41492714Y-31151285D01*
X41529000Y-31223857D01*
X41529000Y-31296428D01*
X41492714Y-31405285D01*
X41057285Y-31840714D01*
X41529000Y-31840714D01*
X41891857Y-31840714D02*
X42037000Y-31840714D01*
X42109571Y-31804428D01*
X42145857Y-31768142D01*
X42218428Y-31659285D01*
X42254714Y-31514142D01*
X42254714Y-31223857D01*
X42218428Y-31151285D01*
X42182142Y-31115000D01*
X42109571Y-31078714D01*
X41964428Y-31078714D01*
X41891857Y-31115000D01*
X41855571Y-31151285D01*
X41819285Y-31223857D01*
X41819285Y-31405285D01*
X41855571Y-31477857D01*
X41891857Y-31514142D01*
X41964428Y-31550428D01*
X42109571Y-31550428D01*
X42182142Y-31514142D01*
X42218428Y-31477857D01*
X42254714Y-31405285D01*
X42726428Y-31078714D02*
X42799000Y-31078714D01*
X42871571Y-31115000D01*
X42907857Y-31151285D01*
X42944142Y-31223857D01*
X42980428Y-31369000D01*
X42980428Y-31550428D01*
X42944142Y-31695571D01*
X42907857Y-31768142D01*
X42871571Y-31804428D01*
X42799000Y-31840714D01*
X42726428Y-31840714D01*
X42653857Y-31804428D01*
X42617571Y-31768142D01*
X42581285Y-31695571D01*
X42545000Y-31550428D01*
X42545000Y-31369000D01*
X42581285Y-31223857D01*
X42617571Y-31151285D01*
X42653857Y-31115000D01*
X42726428Y-31078714D01*
X43633571Y-31332714D02*
X43633571Y-31840714D01*
X43452142Y-31042428D02*
X43270714Y-31586714D01*
X43742428Y-31586714D01*
X57379809Y-41825333D02*
X57379809Y-41510857D01*
X57573333Y-41680190D01*
X57573333Y-41607619D01*
X57597523Y-41559238D01*
X57621714Y-41535047D01*
X57670095Y-41510857D01*
X57791047Y-41510857D01*
X57839428Y-41535047D01*
X57863619Y-41559238D01*
X57887809Y-41607619D01*
X57887809Y-41752761D01*
X57863619Y-41801142D01*
X57839428Y-41825333D01*
X57428190Y-37991142D02*
X57404000Y-37966952D01*
X57379809Y-37918571D01*
X57379809Y-37797619D01*
X57404000Y-37749238D01*
X57428190Y-37725047D01*
X57476571Y-37700857D01*
X57524952Y-37700857D01*
X57597523Y-37725047D01*
X57887809Y-38015333D01*
X57887809Y-37700857D01*
X57887809Y-33890857D02*
X57887809Y-34181142D01*
X57887809Y-34036000D02*
X57379809Y-34036000D01*
X57452380Y-34084380D01*
X57500761Y-34132761D01*
X57524952Y-34181142D01*
X57379809Y-30250190D02*
X57379809Y-30201809D01*
X57404000Y-30153428D01*
X57428190Y-30129238D01*
X57476571Y-30105047D01*
X57573333Y-30080857D01*
X57694285Y-30080857D01*
X57791047Y-30105047D01*
X57839428Y-30129238D01*
X57863619Y-30153428D01*
X57887809Y-30201809D01*
X57887809Y-30250190D01*
X57863619Y-30298571D01*
X57839428Y-30322761D01*
X57791047Y-30346952D01*
X57694285Y-30371142D01*
X57573333Y-30371142D01*
X57476571Y-30346952D01*
X57428190Y-30322761D01*
X57404000Y-30298571D01*
X57379809Y-30250190D01*
X57404000Y-26803047D02*
X57379809Y-26851428D01*
X57379809Y-26924000D01*
X57404000Y-26996571D01*
X57452380Y-27044952D01*
X57500761Y-27069142D01*
X57597523Y-27093333D01*
X57670095Y-27093333D01*
X57766857Y-27069142D01*
X57815238Y-27044952D01*
X57863619Y-26996571D01*
X57887809Y-26924000D01*
X57887809Y-26875619D01*
X57863619Y-26803047D01*
X57839428Y-26778857D01*
X57670095Y-26778857D01*
X57670095Y-26875619D01*
X57887809Y-26561142D02*
X57379809Y-26561142D01*
X57887809Y-26270857D01*
X57379809Y-26270857D01*
X57887809Y-26028952D02*
X57379809Y-26028952D01*
X57379809Y-25908000D01*
X57404000Y-25835428D01*
X57452380Y-25787047D01*
X57500761Y-25762857D01*
X57597523Y-25738666D01*
X57670095Y-25738666D01*
X57766857Y-25762857D01*
X57815238Y-25787047D01*
X57863619Y-25835428D01*
X57887809Y-25908000D01*
X57887809Y-26028952D01*
X58903809Y-37192857D02*
X58395809Y-37192857D01*
X58395809Y-36999333D01*
X58420000Y-36950952D01*
X58444190Y-36926761D01*
X58492571Y-36902571D01*
X58565142Y-36902571D01*
X58613523Y-36926761D01*
X58637714Y-36950952D01*
X58661904Y-36999333D01*
X58661904Y-37192857D01*
X58903809Y-36394571D02*
X58661904Y-36563904D01*
X58903809Y-36684857D02*
X58395809Y-36684857D01*
X58395809Y-36491333D01*
X58420000Y-36442952D01*
X58444190Y-36418761D01*
X58492571Y-36394571D01*
X58565142Y-36394571D01*
X58613523Y-36418761D01*
X58637714Y-36442952D01*
X58661904Y-36491333D01*
X58661904Y-36684857D01*
X58637714Y-36176857D02*
X58637714Y-36007523D01*
X58903809Y-35934952D02*
X58903809Y-36176857D01*
X58395809Y-36176857D01*
X58395809Y-35934952D01*
X58879619Y-35741428D02*
X58903809Y-35668857D01*
X58903809Y-35547904D01*
X58879619Y-35499523D01*
X58855428Y-35475333D01*
X58807047Y-35451142D01*
X58758666Y-35451142D01*
X58710285Y-35475333D01*
X58686095Y-35499523D01*
X58661904Y-35547904D01*
X58637714Y-35644666D01*
X58613523Y-35693047D01*
X58589333Y-35717238D01*
X58540952Y-35741428D01*
X58492571Y-35741428D01*
X58444190Y-35717238D01*
X58420000Y-35693047D01*
X58395809Y-35644666D01*
X58395809Y-35523714D01*
X58420000Y-35451142D01*
X58637714Y-35233428D02*
X58637714Y-35064095D01*
X58903809Y-34991523D02*
X58903809Y-35233428D01*
X58395809Y-35233428D01*
X58395809Y-34991523D01*
X58395809Y-34846380D02*
X58395809Y-34556095D01*
X58903809Y-34701238D02*
X58395809Y-34701238D01*
X58637714Y-33830380D02*
X58661904Y-33757809D01*
X58686095Y-33733619D01*
X58734476Y-33709428D01*
X58807047Y-33709428D01*
X58855428Y-33733619D01*
X58879619Y-33757809D01*
X58903809Y-33806190D01*
X58903809Y-33999714D01*
X58395809Y-33999714D01*
X58395809Y-33830380D01*
X58420000Y-33782000D01*
X58444190Y-33757809D01*
X58492571Y-33733619D01*
X58540952Y-33733619D01*
X58589333Y-33757809D01*
X58613523Y-33782000D01*
X58637714Y-33830380D01*
X58637714Y-33999714D01*
X58395809Y-33491714D02*
X58807047Y-33491714D01*
X58855428Y-33467523D01*
X58879619Y-33443333D01*
X58903809Y-33394952D01*
X58903809Y-33298190D01*
X58879619Y-33249809D01*
X58855428Y-33225619D01*
X58807047Y-33201428D01*
X58395809Y-33201428D01*
X58395809Y-33032095D02*
X58395809Y-32741809D01*
X58903809Y-32886952D02*
X58395809Y-32886952D01*
X58395809Y-32645047D02*
X58395809Y-32354761D01*
X58903809Y-32499904D02*
X58395809Y-32499904D01*
X58395809Y-32088666D02*
X58395809Y-31991904D01*
X58420000Y-31943523D01*
X58468380Y-31895142D01*
X58565142Y-31870952D01*
X58734476Y-31870952D01*
X58831238Y-31895142D01*
X58879619Y-31943523D01*
X58903809Y-31991904D01*
X58903809Y-32088666D01*
X58879619Y-32137047D01*
X58831238Y-32185428D01*
X58734476Y-32209619D01*
X58565142Y-32209619D01*
X58468380Y-32185428D01*
X58420000Y-32137047D01*
X58395809Y-32088666D01*
X58903809Y-31653238D02*
X58395809Y-31653238D01*
X58903809Y-31362952D01*
X58395809Y-31362952D01*
X58879619Y-31145238D02*
X58903809Y-31072666D01*
X58903809Y-30951714D01*
X58879619Y-30903333D01*
X58855428Y-30879142D01*
X58807047Y-30854952D01*
X58758666Y-30854952D01*
X58710285Y-30879142D01*
X58686095Y-30903333D01*
X58661904Y-30951714D01*
X58637714Y-31048476D01*
X58613523Y-31096857D01*
X58589333Y-31121047D01*
X58540952Y-31145238D01*
X58492571Y-31145238D01*
X58444190Y-31121047D01*
X58420000Y-31096857D01*
X58395809Y-31048476D01*
X58395809Y-30927523D01*
X58420000Y-30854952D01*
X29330952Y-46228000D02*
X29282571Y-46203809D01*
X29210000Y-46203809D01*
X29137428Y-46228000D01*
X29089047Y-46276380D01*
X29064857Y-46324761D01*
X29040666Y-46421523D01*
X29040666Y-46494095D01*
X29064857Y-46590857D01*
X29089047Y-46639238D01*
X29137428Y-46687619D01*
X29210000Y-46711809D01*
X29258380Y-46711809D01*
X29330952Y-46687619D01*
X29355142Y-46663428D01*
X29355142Y-46494095D01*
X29258380Y-46494095D01*
X29572857Y-46711809D02*
X29572857Y-46203809D01*
X29863142Y-46711809D01*
X29863142Y-46203809D01*
X30105047Y-46711809D02*
X30105047Y-46203809D01*
X30226000Y-46203809D01*
X30298571Y-46228000D01*
X30346952Y-46276380D01*
X30371142Y-46324761D01*
X30395333Y-46421523D01*
X30395333Y-46494095D01*
X30371142Y-46590857D01*
X30346952Y-46639238D01*
X30298571Y-46687619D01*
X30226000Y-46711809D01*
X30105047Y-46711809D01*
X25279047Y-46711809D02*
X25279047Y-46203809D01*
X25472571Y-46203809D01*
X25520952Y-46228000D01*
X25545142Y-46252190D01*
X25569333Y-46300571D01*
X25569333Y-46373142D01*
X25545142Y-46421523D01*
X25520952Y-46445714D01*
X25472571Y-46469904D01*
X25279047Y-46469904D01*
X26077333Y-46663428D02*
X26053142Y-46687619D01*
X25980571Y-46711809D01*
X25932190Y-46711809D01*
X25859619Y-46687619D01*
X25811238Y-46639238D01*
X25787047Y-46590857D01*
X25762857Y-46494095D01*
X25762857Y-46421523D01*
X25787047Y-46324761D01*
X25811238Y-46276380D01*
X25859619Y-46228000D01*
X25932190Y-46203809D01*
X25980571Y-46203809D01*
X26053142Y-46228000D01*
X26077333Y-46252190D01*
X26270857Y-46252190D02*
X26295047Y-46228000D01*
X26343428Y-46203809D01*
X26464380Y-46203809D01*
X26512761Y-46228000D01*
X26536952Y-46252190D01*
X26561142Y-46300571D01*
X26561142Y-46348952D01*
X26536952Y-46421523D01*
X26246666Y-46711809D01*
X26561142Y-46711809D01*
X21469047Y-46711809D02*
X21469047Y-46203809D01*
X21662571Y-46203809D01*
X21710952Y-46228000D01*
X21735142Y-46252190D01*
X21759333Y-46300571D01*
X21759333Y-46373142D01*
X21735142Y-46421523D01*
X21710952Y-46445714D01*
X21662571Y-46469904D01*
X21469047Y-46469904D01*
X22267333Y-46663428D02*
X22243142Y-46687619D01*
X22170571Y-46711809D01*
X22122190Y-46711809D01*
X22049619Y-46687619D01*
X22001238Y-46639238D01*
X21977047Y-46590857D01*
X21952857Y-46494095D01*
X21952857Y-46421523D01*
X21977047Y-46324761D01*
X22001238Y-46276380D01*
X22049619Y-46228000D01*
X22122190Y-46203809D01*
X22170571Y-46203809D01*
X22243142Y-46228000D01*
X22267333Y-46252190D01*
X22751142Y-46711809D02*
X22460857Y-46711809D01*
X22606000Y-46711809D02*
X22606000Y-46203809D01*
X22557619Y-46276380D01*
X22509238Y-46324761D01*
X22460857Y-46348952D01*
X17634857Y-46518285D02*
X18021904Y-46518285D01*
X17828380Y-46711809D02*
X17828380Y-46324761D01*
X18505714Y-46203809D02*
X18263809Y-46203809D01*
X18239619Y-46445714D01*
X18263809Y-46421523D01*
X18312190Y-46397333D01*
X18433142Y-46397333D01*
X18481523Y-46421523D01*
X18505714Y-46445714D01*
X18529904Y-46494095D01*
X18529904Y-46615047D01*
X18505714Y-46663428D01*
X18481523Y-46687619D01*
X18433142Y-46711809D01*
X18312190Y-46711809D01*
X18263809Y-46687619D01*
X18239619Y-46663428D01*
X18675047Y-46203809D02*
X18844380Y-46711809D01*
X19013714Y-46203809D01*
X42805047Y-21759333D02*
X43288857Y-21759333D01*
X42708285Y-22049619D02*
X43046952Y-21033619D01*
X43385619Y-22049619D01*
X43579142Y-21033619D02*
X44159714Y-21033619D01*
X43869428Y-22049619D02*
X43869428Y-21033619D01*
X44498380Y-22049619D02*
X44498380Y-21372285D01*
X44498380Y-21469047D02*
X44546761Y-21420666D01*
X44643523Y-21372285D01*
X44788666Y-21372285D01*
X44885428Y-21420666D01*
X44933809Y-21517428D01*
X44933809Y-22049619D01*
X44933809Y-21517428D02*
X44982190Y-21420666D01*
X45078952Y-21372285D01*
X45224095Y-21372285D01*
X45320857Y-21420666D01*
X45369238Y-21517428D01*
X45369238Y-22049619D01*
X46240095Y-22001238D02*
X46143333Y-22049619D01*
X45949809Y-22049619D01*
X45853047Y-22001238D01*
X45804666Y-21904476D01*
X45804666Y-21517428D01*
X45853047Y-21420666D01*
X45949809Y-21372285D01*
X46143333Y-21372285D01*
X46240095Y-21420666D01*
X46288476Y-21517428D01*
X46288476Y-21614190D01*
X45804666Y-21710952D01*
X47159333Y-21372285D02*
X47159333Y-22194761D01*
X47110952Y-22291523D01*
X47062571Y-22339904D01*
X46965809Y-22388285D01*
X46820666Y-22388285D01*
X46723904Y-22339904D01*
X47159333Y-22001238D02*
X47062571Y-22049619D01*
X46869047Y-22049619D01*
X46772285Y-22001238D01*
X46723904Y-21952857D01*
X46675523Y-21856095D01*
X46675523Y-21565809D01*
X46723904Y-21469047D01*
X46772285Y-21420666D01*
X46869047Y-21372285D01*
X47062571Y-21372285D01*
X47159333Y-21420666D01*
X48078571Y-22049619D02*
X48078571Y-21517428D01*
X48030190Y-21420666D01*
X47933428Y-21372285D01*
X47739904Y-21372285D01*
X47643142Y-21420666D01*
X48078571Y-22001238D02*
X47981809Y-22049619D01*
X47739904Y-22049619D01*
X47643142Y-22001238D01*
X47594761Y-21904476D01*
X47594761Y-21807714D01*
X47643142Y-21710952D01*
X47739904Y-21662571D01*
X47981809Y-21662571D01*
X48078571Y-21614190D01*
X15066130Y-41241738D02*
X15368511Y-41241738D01*
X14733511Y-41453404D02*
X15066130Y-41241738D01*
X14733511Y-41030071D01*
X15368511Y-40727690D02*
X15338273Y-40788166D01*
X15308035Y-40818404D01*
X15247559Y-40848642D01*
X15066130Y-40848642D01*
X15005654Y-40818404D01*
X14975416Y-40788166D01*
X14945178Y-40727690D01*
X14945178Y-40636976D01*
X14975416Y-40576500D01*
X15005654Y-40546261D01*
X15066130Y-40516023D01*
X15247559Y-40516023D01*
X15308035Y-40546261D01*
X15338273Y-40576500D01*
X15368511Y-40636976D01*
X15368511Y-40727690D01*
X14945178Y-39971738D02*
X15368511Y-39971738D01*
X14945178Y-40243880D02*
X15277797Y-40243880D01*
X15338273Y-40213642D01*
X15368511Y-40153166D01*
X15368511Y-40062452D01*
X15338273Y-40001976D01*
X15308035Y-39971738D01*
X14945178Y-39729833D02*
X15368511Y-39578642D01*
X14945178Y-39427452D02*
X15368511Y-39578642D01*
X15519702Y-39639119D01*
X15549940Y-39669357D01*
X15580178Y-39729833D01*
X14945178Y-38913404D02*
X15368511Y-38913404D01*
X14945178Y-39185547D02*
X15277797Y-39185547D01*
X15338273Y-39155309D01*
X15368511Y-39094833D01*
X15368511Y-39004119D01*
X15338273Y-38943642D01*
X15308035Y-38913404D01*
X15338273Y-38369119D02*
X15368511Y-38429595D01*
X15368511Y-38550547D01*
X15338273Y-38611023D01*
X15277797Y-38641261D01*
X15035892Y-38641261D01*
X14975416Y-38611023D01*
X14945178Y-38550547D01*
X14945178Y-38429595D01*
X14975416Y-38369119D01*
X15035892Y-38338880D01*
X15096369Y-38338880D01*
X15156845Y-38641261D01*
X15005654Y-37492214D02*
X14975416Y-37552690D01*
X14945178Y-37582928D01*
X14884702Y-37613166D01*
X14854464Y-37613166D01*
X14793988Y-37582928D01*
X14763750Y-37552690D01*
X14733511Y-37492214D01*
X14733511Y-37371261D01*
X14763750Y-37310785D01*
X14793988Y-37280547D01*
X14854464Y-37250309D01*
X14884702Y-37250309D01*
X14945178Y-37280547D01*
X14975416Y-37310785D01*
X15005654Y-37371261D01*
X15005654Y-37492214D01*
X15035892Y-37552690D01*
X15066130Y-37582928D01*
X15126607Y-37613166D01*
X15247559Y-37613166D01*
X15308035Y-37582928D01*
X15338273Y-37552690D01*
X15368511Y-37492214D01*
X15368511Y-37371261D01*
X15338273Y-37310785D01*
X15308035Y-37280547D01*
X15247559Y-37250309D01*
X15126607Y-37250309D01*
X15066130Y-37280547D01*
X15035892Y-37310785D01*
X15005654Y-37371261D01*
X14733511Y-36675785D02*
X14733511Y-36978166D01*
X15035892Y-37008404D01*
X15005654Y-36978166D01*
X14975416Y-36917690D01*
X14975416Y-36766500D01*
X15005654Y-36706023D01*
X15035892Y-36675785D01*
X15096369Y-36645547D01*
X15247559Y-36645547D01*
X15308035Y-36675785D01*
X15338273Y-36706023D01*
X15368511Y-36766500D01*
X15368511Y-36917690D01*
X15338273Y-36978166D01*
X15308035Y-37008404D01*
X15005654Y-36282690D02*
X14975416Y-36343166D01*
X14945178Y-36373404D01*
X14884702Y-36403642D01*
X14854464Y-36403642D01*
X14793988Y-36373404D01*
X14763750Y-36343166D01*
X14733511Y-36282690D01*
X14733511Y-36161738D01*
X14763750Y-36101261D01*
X14793988Y-36071023D01*
X14854464Y-36040785D01*
X14884702Y-36040785D01*
X14945178Y-36071023D01*
X14975416Y-36101261D01*
X15005654Y-36161738D01*
X15005654Y-36282690D01*
X15035892Y-36343166D01*
X15066130Y-36373404D01*
X15126607Y-36403642D01*
X15247559Y-36403642D01*
X15308035Y-36373404D01*
X15338273Y-36343166D01*
X15368511Y-36282690D01*
X15368511Y-36161738D01*
X15338273Y-36101261D01*
X15308035Y-36071023D01*
X15247559Y-36040785D01*
X15126607Y-36040785D01*
X15066130Y-36071023D01*
X15035892Y-36101261D01*
X15005654Y-36161738D01*
X15368511Y-35768642D02*
X14733511Y-35768642D01*
X14733511Y-35617452D01*
X14763750Y-35526738D01*
X14824226Y-35466261D01*
X14884702Y-35436023D01*
X15005654Y-35405785D01*
X15096369Y-35405785D01*
X15217321Y-35436023D01*
X15277797Y-35466261D01*
X15338273Y-35526738D01*
X15368511Y-35617452D01*
X15368511Y-35768642D01*
X15126607Y-35133642D02*
X15126607Y-34649833D01*
X15368511Y-34891738D02*
X14884702Y-34891738D01*
X15368511Y-33863642D02*
X14733511Y-33863642D01*
X15187083Y-33651976D01*
X14733511Y-33440309D01*
X15368511Y-33440309D01*
X15368511Y-33137928D02*
X14733511Y-33137928D01*
X15368511Y-32775071D02*
X15005654Y-33047214D01*
X14733511Y-32775071D02*
X15096369Y-33137928D01*
X15368511Y-32170309D02*
X15368511Y-32533166D01*
X15368511Y-32351738D02*
X14733511Y-32351738D01*
X14824226Y-32412214D01*
X14884702Y-32472690D01*
X14914940Y-32533166D01*
X15005654Y-31807452D02*
X14975416Y-31867928D01*
X14945178Y-31898166D01*
X14884702Y-31928404D01*
X14854464Y-31928404D01*
X14793988Y-31898166D01*
X14763750Y-31867928D01*
X14733511Y-31807452D01*
X14733511Y-31686500D01*
X14763750Y-31626023D01*
X14793988Y-31595785D01*
X14854464Y-31565547D01*
X14884702Y-31565547D01*
X14945178Y-31595785D01*
X14975416Y-31626023D01*
X15005654Y-31686500D01*
X15005654Y-31807452D01*
X15035892Y-31867928D01*
X15066130Y-31898166D01*
X15126607Y-31928404D01*
X15247559Y-31928404D01*
X15308035Y-31898166D01*
X15338273Y-31867928D01*
X15368511Y-31807452D01*
X15368511Y-31686500D01*
X15338273Y-31626023D01*
X15308035Y-31595785D01*
X15247559Y-31565547D01*
X15126607Y-31565547D01*
X15066130Y-31595785D01*
X15035892Y-31626023D01*
X15005654Y-31686500D01*
X14945178Y-31021261D02*
X15368511Y-31021261D01*
X14703273Y-31172452D02*
X15156845Y-31323642D01*
X15156845Y-30930547D01*
X15368511Y-30356023D02*
X15368511Y-30718880D01*
X15368511Y-30537452D02*
X14733511Y-30537452D01*
X14824226Y-30597928D01*
X14884702Y-30658404D01*
X14914940Y-30718880D01*
X15368511Y-30083880D02*
X14733511Y-30083880D01*
X14733511Y-29932690D01*
X14763750Y-29841976D01*
X14824226Y-29781500D01*
X14884702Y-29751261D01*
X15005654Y-29721023D01*
X15096369Y-29721023D01*
X15217321Y-29751261D01*
X15277797Y-29781500D01*
X15338273Y-29841976D01*
X15368511Y-29932690D01*
X15368511Y-30083880D01*
X14733511Y-29509357D02*
X14733511Y-29116261D01*
X14975416Y-29327928D01*
X14975416Y-29237214D01*
X15005654Y-29176738D01*
X15035892Y-29146500D01*
X15096369Y-29116261D01*
X15247559Y-29116261D01*
X15308035Y-29146500D01*
X15338273Y-29176738D01*
X15368511Y-29237214D01*
X15368511Y-29418642D01*
X15338273Y-29479119D01*
X15308035Y-29509357D01*
X14945178Y-28451023D02*
X14945178Y-28209119D01*
X14733511Y-28360309D02*
X15277797Y-28360309D01*
X15338273Y-28330071D01*
X15368511Y-28269595D01*
X15368511Y-28209119D01*
X15368511Y-27906738D02*
X15338273Y-27967214D01*
X15308035Y-27997452D01*
X15247559Y-28027690D01*
X15066130Y-28027690D01*
X15005654Y-27997452D01*
X14975416Y-27967214D01*
X14945178Y-27906738D01*
X14945178Y-27816023D01*
X14975416Y-27755547D01*
X15005654Y-27725309D01*
X15066130Y-27695071D01*
X15247559Y-27695071D01*
X15308035Y-27725309D01*
X15338273Y-27755547D01*
X15368511Y-27816023D01*
X15368511Y-27906738D01*
X16266583Y-39775190D02*
X16266583Y-39472809D01*
X16448011Y-39835666D02*
X15813011Y-39624000D01*
X16448011Y-39412333D01*
X15813011Y-39291380D02*
X15813011Y-38928523D01*
X16448011Y-39109952D02*
X15813011Y-39109952D01*
X16448011Y-38716857D02*
X16024678Y-38716857D01*
X16085154Y-38716857D02*
X16054916Y-38686619D01*
X16024678Y-38626142D01*
X16024678Y-38535428D01*
X16054916Y-38474952D01*
X16115392Y-38444714D01*
X16448011Y-38444714D01*
X16115392Y-38444714D02*
X16054916Y-38414476D01*
X16024678Y-38354000D01*
X16024678Y-38263285D01*
X16054916Y-38202809D01*
X16115392Y-38172571D01*
X16448011Y-38172571D01*
X16417773Y-37628285D02*
X16448011Y-37688761D01*
X16448011Y-37809714D01*
X16417773Y-37870190D01*
X16357297Y-37900428D01*
X16115392Y-37900428D01*
X16054916Y-37870190D01*
X16024678Y-37809714D01*
X16024678Y-37688761D01*
X16054916Y-37628285D01*
X16115392Y-37598047D01*
X16175869Y-37598047D01*
X16236345Y-37900428D01*
X16024678Y-37053761D02*
X16538726Y-37053761D01*
X16599202Y-37084000D01*
X16629440Y-37114238D01*
X16659678Y-37174714D01*
X16659678Y-37265428D01*
X16629440Y-37325904D01*
X16417773Y-37053761D02*
X16448011Y-37114238D01*
X16448011Y-37235190D01*
X16417773Y-37295666D01*
X16387535Y-37325904D01*
X16327059Y-37356142D01*
X16145630Y-37356142D01*
X16085154Y-37325904D01*
X16054916Y-37295666D01*
X16024678Y-37235190D01*
X16024678Y-37114238D01*
X16054916Y-37053761D01*
X16448011Y-36479238D02*
X16115392Y-36479238D01*
X16054916Y-36509476D01*
X16024678Y-36569952D01*
X16024678Y-36690904D01*
X16054916Y-36751380D01*
X16417773Y-36479238D02*
X16448011Y-36539714D01*
X16448011Y-36690904D01*
X16417773Y-36751380D01*
X16357297Y-36781619D01*
X16296821Y-36781619D01*
X16236345Y-36751380D01*
X16206107Y-36690904D01*
X16206107Y-36539714D01*
X16175869Y-36479238D01*
X15813011Y-36237333D02*
X15813011Y-35844238D01*
X16054916Y-36055904D01*
X16054916Y-35965190D01*
X16085154Y-35904714D01*
X16115392Y-35874476D01*
X16175869Y-35844238D01*
X16327059Y-35844238D01*
X16387535Y-35874476D01*
X16417773Y-35904714D01*
X16448011Y-35965190D01*
X16448011Y-36146619D01*
X16417773Y-36207095D01*
X16387535Y-36237333D01*
X15873488Y-35602333D02*
X15843250Y-35572095D01*
X15813011Y-35511619D01*
X15813011Y-35360428D01*
X15843250Y-35299952D01*
X15873488Y-35269714D01*
X15933964Y-35239476D01*
X15994440Y-35239476D01*
X16085154Y-35269714D01*
X16448011Y-35632571D01*
X16448011Y-35239476D01*
X16085154Y-34876619D02*
X16054916Y-34937095D01*
X16024678Y-34967333D01*
X15964202Y-34997571D01*
X15933964Y-34997571D01*
X15873488Y-34967333D01*
X15843250Y-34937095D01*
X15813011Y-34876619D01*
X15813011Y-34755666D01*
X15843250Y-34695190D01*
X15873488Y-34664952D01*
X15933964Y-34634714D01*
X15964202Y-34634714D01*
X16024678Y-34664952D01*
X16054916Y-34695190D01*
X16085154Y-34755666D01*
X16085154Y-34876619D01*
X16115392Y-34937095D01*
X16145630Y-34967333D01*
X16206107Y-34997571D01*
X16327059Y-34997571D01*
X16387535Y-34967333D01*
X16417773Y-34937095D01*
X16448011Y-34876619D01*
X16448011Y-34755666D01*
X16417773Y-34695190D01*
X16387535Y-34664952D01*
X16327059Y-34634714D01*
X16206107Y-34634714D01*
X16145630Y-34664952D01*
X16115392Y-34695190D01*
X16085154Y-34755666D01*
X16448011Y-34362571D02*
X15813011Y-34362571D01*
X15813011Y-34120666D01*
X15843250Y-34060190D01*
X15873488Y-34029952D01*
X15933964Y-33999714D01*
X16024678Y-33999714D01*
X16085154Y-34029952D01*
X16115392Y-34060190D01*
X16145630Y-34120666D01*
X16145630Y-34362571D01*
X16115392Y-33515904D02*
X16145630Y-33425190D01*
X16175869Y-33394952D01*
X16236345Y-33364714D01*
X16327059Y-33364714D01*
X16387535Y-33394952D01*
X16417773Y-33425190D01*
X16448011Y-33485666D01*
X16448011Y-33727571D01*
X15813011Y-33727571D01*
X15813011Y-33515904D01*
X15843250Y-33455428D01*
X15873488Y-33425190D01*
X15933964Y-33394952D01*
X15994440Y-33394952D01*
X16054916Y-33425190D01*
X16085154Y-33455428D01*
X16115392Y-33515904D01*
X16115392Y-33727571D01*
X16266583Y-32639000D02*
X16266583Y-32336619D01*
X16448011Y-32699476D02*
X15813011Y-32487809D01*
X16448011Y-32276142D01*
X16448011Y-31792333D02*
X15813011Y-31792333D01*
X16417773Y-31792333D02*
X16448011Y-31852809D01*
X16448011Y-31973761D01*
X16417773Y-32034238D01*
X16387535Y-32064476D01*
X16327059Y-32094714D01*
X16145630Y-32094714D01*
X16085154Y-32064476D01*
X16054916Y-32034238D01*
X16024678Y-31973761D01*
X16024678Y-31852809D01*
X16054916Y-31792333D01*
X16448011Y-31217809D02*
X16115392Y-31217809D01*
X16054916Y-31248047D01*
X16024678Y-31308523D01*
X16024678Y-31429476D01*
X16054916Y-31489952D01*
X16417773Y-31217809D02*
X16448011Y-31278285D01*
X16448011Y-31429476D01*
X16417773Y-31489952D01*
X16357297Y-31520190D01*
X16296821Y-31520190D01*
X16236345Y-31489952D01*
X16206107Y-31429476D01*
X16206107Y-31278285D01*
X16175869Y-31217809D01*
X16024678Y-30915428D02*
X16659678Y-30915428D01*
X16054916Y-30915428D02*
X16024678Y-30854952D01*
X16024678Y-30734000D01*
X16054916Y-30673523D01*
X16085154Y-30643285D01*
X16145630Y-30613047D01*
X16327059Y-30613047D01*
X16387535Y-30643285D01*
X16417773Y-30673523D01*
X16448011Y-30734000D01*
X16448011Y-30854952D01*
X16417773Y-30915428D01*
X16024678Y-30431619D02*
X16024678Y-30189714D01*
X15813011Y-30340904D02*
X16357297Y-30340904D01*
X16417773Y-30310666D01*
X16448011Y-30250190D01*
X16448011Y-30189714D01*
X16417773Y-29736142D02*
X16448011Y-29796619D01*
X16448011Y-29917571D01*
X16417773Y-29978047D01*
X16357297Y-30008285D01*
X16115392Y-30008285D01*
X16054916Y-29978047D01*
X16024678Y-29917571D01*
X16024678Y-29796619D01*
X16054916Y-29736142D01*
X16115392Y-29705904D01*
X16175869Y-29705904D01*
X16236345Y-30008285D01*
X16448011Y-29433761D02*
X16024678Y-29433761D01*
X16145630Y-29433761D02*
X16085154Y-29403523D01*
X16054916Y-29373285D01*
X16024678Y-29312809D01*
X16024678Y-29252333D01*
X17527511Y-41211500D02*
X16892511Y-41211500D01*
X17194892Y-41211500D02*
X17194892Y-40848642D01*
X17527511Y-40848642D02*
X16892511Y-40848642D01*
X16892511Y-40606738D02*
X17527511Y-40455547D01*
X17073940Y-40334595D01*
X17527511Y-40213642D01*
X16892511Y-40062452D01*
X17497273Y-39064595D02*
X17527511Y-39125071D01*
X17527511Y-39246023D01*
X17497273Y-39306500D01*
X17467035Y-39336738D01*
X17406559Y-39366976D01*
X17225130Y-39366976D01*
X17164654Y-39336738D01*
X17134416Y-39306500D01*
X17104178Y-39246023D01*
X17104178Y-39125071D01*
X17134416Y-39064595D01*
X17527511Y-38701738D02*
X17497273Y-38762214D01*
X17467035Y-38792452D01*
X17406559Y-38822690D01*
X17225130Y-38822690D01*
X17164654Y-38792452D01*
X17134416Y-38762214D01*
X17104178Y-38701738D01*
X17104178Y-38611023D01*
X17134416Y-38550547D01*
X17164654Y-38520309D01*
X17225130Y-38490071D01*
X17406559Y-38490071D01*
X17467035Y-38520309D01*
X17497273Y-38550547D01*
X17527511Y-38611023D01*
X17527511Y-38701738D01*
X17104178Y-38217928D02*
X17527511Y-38217928D01*
X17164654Y-38217928D02*
X17134416Y-38187690D01*
X17104178Y-38127214D01*
X17104178Y-38036500D01*
X17134416Y-37976023D01*
X17194892Y-37945785D01*
X17527511Y-37945785D01*
X17104178Y-37734119D02*
X17104178Y-37492214D01*
X16892511Y-37643404D02*
X17436797Y-37643404D01*
X17497273Y-37613166D01*
X17527511Y-37552690D01*
X17527511Y-37492214D01*
X17527511Y-37280547D02*
X17104178Y-37280547D01*
X17225130Y-37280547D02*
X17164654Y-37250309D01*
X17134416Y-37220071D01*
X17104178Y-37159595D01*
X17104178Y-37099119D01*
X17527511Y-36887452D02*
X17104178Y-36887452D01*
X16892511Y-36887452D02*
X16922750Y-36917690D01*
X16952988Y-36887452D01*
X16922750Y-36857214D01*
X16892511Y-36887452D01*
X16952988Y-36887452D01*
X17527511Y-36585071D02*
X16892511Y-36585071D01*
X17134416Y-36585071D02*
X17104178Y-36524595D01*
X17104178Y-36403642D01*
X17134416Y-36343166D01*
X17164654Y-36312928D01*
X17225130Y-36282690D01*
X17406559Y-36282690D01*
X17467035Y-36312928D01*
X17497273Y-36343166D01*
X17527511Y-36403642D01*
X17527511Y-36524595D01*
X17497273Y-36585071D01*
X17497273Y-36040785D02*
X17527511Y-35980309D01*
X17527511Y-35859357D01*
X17497273Y-35798880D01*
X17436797Y-35768642D01*
X17406559Y-35768642D01*
X17346083Y-35798880D01*
X17315845Y-35859357D01*
X17315845Y-35950071D01*
X17285607Y-36010547D01*
X17225130Y-36040785D01*
X17194892Y-36040785D01*
X17134416Y-36010547D01*
X17104178Y-35950071D01*
X17104178Y-35859357D01*
X17134416Y-35798880D01*
X17104178Y-35103404D02*
X17104178Y-34861500D01*
X17527511Y-35012690D02*
X16983226Y-35012690D01*
X16922750Y-34982452D01*
X16892511Y-34921976D01*
X16892511Y-34861500D01*
X17527511Y-34649833D02*
X17104178Y-34649833D01*
X17225130Y-34649833D02*
X17164654Y-34619595D01*
X17134416Y-34589357D01*
X17104178Y-34528880D01*
X17104178Y-34468404D01*
X17527511Y-34166023D02*
X17497273Y-34226500D01*
X17467035Y-34256738D01*
X17406559Y-34286976D01*
X17225130Y-34286976D01*
X17164654Y-34256738D01*
X17134416Y-34226500D01*
X17104178Y-34166023D01*
X17104178Y-34075309D01*
X17134416Y-34014833D01*
X17164654Y-33984595D01*
X17225130Y-33954357D01*
X17406559Y-33954357D01*
X17467035Y-33984595D01*
X17497273Y-34014833D01*
X17527511Y-34075309D01*
X17527511Y-34166023D01*
X17527511Y-33682214D02*
X17104178Y-33682214D01*
X17164654Y-33682214D02*
X17134416Y-33651976D01*
X17104178Y-33591500D01*
X17104178Y-33500785D01*
X17134416Y-33440309D01*
X17194892Y-33410071D01*
X17527511Y-33410071D01*
X17194892Y-33410071D02*
X17134416Y-33379833D01*
X17104178Y-33319357D01*
X17104178Y-33228642D01*
X17134416Y-33168166D01*
X17194892Y-33137928D01*
X17527511Y-33137928D01*
X17527511Y-32351738D02*
X17104178Y-32351738D01*
X17164654Y-32351738D02*
X17134416Y-32321500D01*
X17104178Y-32261023D01*
X17104178Y-32170309D01*
X17134416Y-32109833D01*
X17194892Y-32079595D01*
X17527511Y-32079595D01*
X17194892Y-32079595D02*
X17134416Y-32049357D01*
X17104178Y-31988880D01*
X17104178Y-31898166D01*
X17134416Y-31837690D01*
X17194892Y-31807452D01*
X17527511Y-31807452D01*
X17527511Y-31232928D02*
X17194892Y-31232928D01*
X17134416Y-31263166D01*
X17104178Y-31323642D01*
X17104178Y-31444595D01*
X17134416Y-31505071D01*
X17497273Y-31232928D02*
X17527511Y-31293404D01*
X17527511Y-31444595D01*
X17497273Y-31505071D01*
X17436797Y-31535309D01*
X17376321Y-31535309D01*
X17315845Y-31505071D01*
X17285607Y-31444595D01*
X17285607Y-31293404D01*
X17255369Y-31232928D01*
X17527511Y-30658404D02*
X16892511Y-30658404D01*
X17497273Y-30658404D02*
X17527511Y-30718880D01*
X17527511Y-30839833D01*
X17497273Y-30900309D01*
X17467035Y-30930547D01*
X17406559Y-30960785D01*
X17225130Y-30960785D01*
X17164654Y-30930547D01*
X17134416Y-30900309D01*
X17104178Y-30839833D01*
X17104178Y-30718880D01*
X17134416Y-30658404D01*
X17104178Y-30416500D02*
X17527511Y-30295547D01*
X17225130Y-30174595D01*
X17527511Y-30053642D01*
X17104178Y-29932690D01*
X17527511Y-29600071D02*
X17497273Y-29660547D01*
X17467035Y-29690785D01*
X17406559Y-29721023D01*
X17225130Y-29721023D01*
X17164654Y-29690785D01*
X17134416Y-29660547D01*
X17104178Y-29600071D01*
X17104178Y-29509357D01*
X17134416Y-29448880D01*
X17164654Y-29418642D01*
X17225130Y-29388404D01*
X17406559Y-29388404D01*
X17467035Y-29418642D01*
X17497273Y-29448880D01*
X17527511Y-29509357D01*
X17527511Y-29600071D01*
X17527511Y-29116261D02*
X17104178Y-29116261D01*
X17225130Y-29116261D02*
X17164654Y-29086023D01*
X17134416Y-29055785D01*
X17104178Y-28995309D01*
X17104178Y-28934833D01*
X17527511Y-28723166D02*
X17104178Y-28723166D01*
X17164654Y-28723166D02*
X17134416Y-28692928D01*
X17104178Y-28632452D01*
X17104178Y-28541738D01*
X17134416Y-28481261D01*
X17194892Y-28451023D01*
X17527511Y-28451023D01*
X17194892Y-28451023D02*
X17134416Y-28420785D01*
X17104178Y-28360309D01*
X17104178Y-28269595D01*
X17134416Y-28209119D01*
X17194892Y-28178880D01*
X17527511Y-28178880D01*
X17497273Y-27846261D02*
X17527511Y-27846261D01*
X17587988Y-27876500D01*
X17618226Y-27906738D01*
X18183678Y-39261142D02*
X18607011Y-39140190D01*
X18304630Y-39019238D01*
X18607011Y-38898285D01*
X18183678Y-38777333D01*
X18183678Y-38263285D02*
X18697726Y-38263285D01*
X18758202Y-38293523D01*
X18788440Y-38323761D01*
X18818678Y-38384238D01*
X18818678Y-38474952D01*
X18788440Y-38535428D01*
X18576773Y-38263285D02*
X18607011Y-38323761D01*
X18607011Y-38444714D01*
X18576773Y-38505190D01*
X18546535Y-38535428D01*
X18486059Y-38565666D01*
X18304630Y-38565666D01*
X18244154Y-38535428D01*
X18213916Y-38505190D01*
X18183678Y-38444714D01*
X18183678Y-38323761D01*
X18213916Y-38263285D01*
X18183678Y-37688761D02*
X18607011Y-37688761D01*
X18183678Y-37960904D02*
X18516297Y-37960904D01*
X18576773Y-37930666D01*
X18607011Y-37870190D01*
X18607011Y-37779476D01*
X18576773Y-37719000D01*
X18546535Y-37688761D01*
X18607011Y-37386380D02*
X18183678Y-37386380D01*
X17972011Y-37386380D02*
X18002250Y-37416619D01*
X18032488Y-37386380D01*
X18002250Y-37356142D01*
X17972011Y-37386380D01*
X18032488Y-37386380D01*
X18607011Y-37084000D02*
X17972011Y-37084000D01*
X18213916Y-37084000D02*
X18183678Y-37023523D01*
X18183678Y-36902571D01*
X18213916Y-36842095D01*
X18244154Y-36811857D01*
X18304630Y-36781619D01*
X18486059Y-36781619D01*
X18546535Y-36811857D01*
X18576773Y-36842095D01*
X18607011Y-36902571D01*
X18607011Y-37023523D01*
X18576773Y-37084000D01*
X18607011Y-36237333D02*
X18274392Y-36237333D01*
X18213916Y-36267571D01*
X18183678Y-36328047D01*
X18183678Y-36449000D01*
X18213916Y-36509476D01*
X18576773Y-36237333D02*
X18607011Y-36297809D01*
X18607011Y-36449000D01*
X18576773Y-36509476D01*
X18516297Y-36539714D01*
X18455821Y-36539714D01*
X18395345Y-36509476D01*
X18365107Y-36449000D01*
X18365107Y-36297809D01*
X18334869Y-36237333D01*
X18576773Y-35965190D02*
X18607011Y-35904714D01*
X18607011Y-35783761D01*
X18576773Y-35723285D01*
X18516297Y-35693047D01*
X18486059Y-35693047D01*
X18425583Y-35723285D01*
X18395345Y-35783761D01*
X18395345Y-35874476D01*
X18365107Y-35934952D01*
X18304630Y-35965190D01*
X18274392Y-35965190D01*
X18213916Y-35934952D01*
X18183678Y-35874476D01*
X18183678Y-35783761D01*
X18213916Y-35723285D01*
X18576773Y-35390666D02*
X18607011Y-35390666D01*
X18667488Y-35420904D01*
X18697726Y-35451142D01*
X18607011Y-34362571D02*
X18274392Y-34362571D01*
X18213916Y-34392809D01*
X18183678Y-34453285D01*
X18183678Y-34574238D01*
X18213916Y-34634714D01*
X18576773Y-34362571D02*
X18607011Y-34423047D01*
X18607011Y-34574238D01*
X18576773Y-34634714D01*
X18516297Y-34664952D01*
X18455821Y-34664952D01*
X18395345Y-34634714D01*
X18365107Y-34574238D01*
X18365107Y-34423047D01*
X18334869Y-34362571D01*
X18183678Y-34060190D02*
X18607011Y-34060190D01*
X18244154Y-34060190D02*
X18213916Y-34029952D01*
X18183678Y-33969476D01*
X18183678Y-33878761D01*
X18213916Y-33818285D01*
X18274392Y-33788047D01*
X18607011Y-33788047D01*
X18607011Y-33213523D02*
X17972011Y-33213523D01*
X18576773Y-33213523D02*
X18607011Y-33274000D01*
X18607011Y-33394952D01*
X18576773Y-33455428D01*
X18546535Y-33485666D01*
X18486059Y-33515904D01*
X18304630Y-33515904D01*
X18244154Y-33485666D01*
X18213916Y-33455428D01*
X18183678Y-33394952D01*
X18183678Y-33274000D01*
X18213916Y-33213523D01*
X18002250Y-32094714D02*
X17972011Y-32155190D01*
X17972011Y-32245904D01*
X18002250Y-32336619D01*
X18062726Y-32397095D01*
X18123202Y-32427333D01*
X18244154Y-32457571D01*
X18334869Y-32457571D01*
X18455821Y-32427333D01*
X18516297Y-32397095D01*
X18576773Y-32336619D01*
X18607011Y-32245904D01*
X18607011Y-32185428D01*
X18576773Y-32094714D01*
X18546535Y-32064476D01*
X18334869Y-32064476D01*
X18334869Y-32185428D01*
X18607011Y-31520190D02*
X18274392Y-31520190D01*
X18213916Y-31550428D01*
X18183678Y-31610904D01*
X18183678Y-31731857D01*
X18213916Y-31792333D01*
X18576773Y-31520190D02*
X18607011Y-31580666D01*
X18607011Y-31731857D01*
X18576773Y-31792333D01*
X18516297Y-31822571D01*
X18455821Y-31822571D01*
X18395345Y-31792333D01*
X18365107Y-31731857D01*
X18365107Y-31580666D01*
X18334869Y-31520190D01*
X18607011Y-31217809D02*
X17972011Y-31217809D01*
X18213916Y-31217809D02*
X18183678Y-31157333D01*
X18183678Y-31036380D01*
X18213916Y-30975904D01*
X18244154Y-30945666D01*
X18304630Y-30915428D01*
X18486059Y-30915428D01*
X18546535Y-30945666D01*
X18576773Y-30975904D01*
X18607011Y-31036380D01*
X18607011Y-31157333D01*
X18576773Y-31217809D01*
X18576773Y-30673523D02*
X18607011Y-30613047D01*
X18607011Y-30492095D01*
X18576773Y-30431619D01*
X18516297Y-30401380D01*
X18486059Y-30401380D01*
X18425583Y-30431619D01*
X18395345Y-30492095D01*
X18395345Y-30582809D01*
X18365107Y-30643285D01*
X18304630Y-30673523D01*
X18274392Y-30673523D01*
X18213916Y-30643285D01*
X18183678Y-30582809D01*
X18183678Y-30492095D01*
X18213916Y-30431619D01*
X18576773Y-29887333D02*
X18607011Y-29947809D01*
X18607011Y-30068761D01*
X18576773Y-30129238D01*
X18516297Y-30159476D01*
X18274392Y-30159476D01*
X18213916Y-30129238D01*
X18183678Y-30068761D01*
X18183678Y-29947809D01*
X18213916Y-29887333D01*
X18274392Y-29857095D01*
X18334869Y-29857095D01*
X18395345Y-30159476D01*
X19686511Y-38958761D02*
X19353892Y-38958761D01*
X19293416Y-38989000D01*
X19263178Y-39049476D01*
X19263178Y-39170428D01*
X19293416Y-39230904D01*
X19656273Y-38958761D02*
X19686511Y-39019238D01*
X19686511Y-39170428D01*
X19656273Y-39230904D01*
X19595797Y-39261142D01*
X19535321Y-39261142D01*
X19474845Y-39230904D01*
X19444607Y-39170428D01*
X19444607Y-39019238D01*
X19414369Y-38958761D01*
X19051511Y-38716857D02*
X19686511Y-38565666D01*
X19232940Y-38444714D01*
X19686511Y-38323761D01*
X19051511Y-38172571D01*
X19051511Y-37991142D02*
X19051511Y-37567809D01*
X19686511Y-37991142D01*
X19686511Y-37567809D01*
X19686511Y-37325904D02*
X19051511Y-37325904D01*
X19353892Y-37325904D02*
X19353892Y-36963047D01*
X19686511Y-36963047D02*
X19051511Y-36963047D01*
X19384130Y-36539714D02*
X19686511Y-36539714D01*
X19051511Y-36751380D02*
X19384130Y-36539714D01*
X19051511Y-36328047D01*
X19051511Y-35995428D02*
X19051511Y-35934952D01*
X19081750Y-35874476D01*
X19111988Y-35844238D01*
X19172464Y-35814000D01*
X19293416Y-35783761D01*
X19444607Y-35783761D01*
X19565559Y-35814000D01*
X19626035Y-35844238D01*
X19656273Y-35874476D01*
X19686511Y-35934952D01*
X19686511Y-35995428D01*
X19656273Y-36055904D01*
X19626035Y-36086142D01*
X19565559Y-36116380D01*
X19444607Y-36146619D01*
X19293416Y-36146619D01*
X19172464Y-36116380D01*
X19111988Y-36086142D01*
X19081750Y-36055904D01*
X19051511Y-35995428D01*
X19263178Y-35572095D02*
X19686511Y-35420904D01*
X19263178Y-35269714D02*
X19686511Y-35420904D01*
X19837702Y-35481380D01*
X19867940Y-35511619D01*
X19898178Y-35572095D01*
X19746988Y-34604476D02*
X19716750Y-34664952D01*
X19656273Y-34725428D01*
X19565559Y-34816142D01*
X19535321Y-34876619D01*
X19535321Y-34937095D01*
X19686511Y-34906857D02*
X19656273Y-34967333D01*
X19595797Y-35027809D01*
X19474845Y-35058047D01*
X19263178Y-35058047D01*
X19142226Y-35027809D01*
X19081750Y-34967333D01*
X19051511Y-34906857D01*
X19051511Y-34785904D01*
X19081750Y-34725428D01*
X19142226Y-34664952D01*
X19263178Y-34634714D01*
X19474845Y-34634714D01*
X19595797Y-34664952D01*
X19656273Y-34725428D01*
X19686511Y-34785904D01*
X19686511Y-34906857D01*
X19686511Y-34362571D02*
X19051511Y-34362571D01*
X19353892Y-34362571D02*
X19353892Y-33999714D01*
X19686511Y-33999714D02*
X19051511Y-33999714D01*
X19323654Y-33606619D02*
X19293416Y-33667095D01*
X19263178Y-33697333D01*
X19202702Y-33727571D01*
X19172464Y-33727571D01*
X19111988Y-33697333D01*
X19081750Y-33667095D01*
X19051511Y-33606619D01*
X19051511Y-33485666D01*
X19081750Y-33425190D01*
X19111988Y-33394952D01*
X19172464Y-33364714D01*
X19202702Y-33364714D01*
X19263178Y-33394952D01*
X19293416Y-33425190D01*
X19323654Y-33485666D01*
X19323654Y-33606619D01*
X19353892Y-33667095D01*
X19384130Y-33697333D01*
X19444607Y-33727571D01*
X19565559Y-33727571D01*
X19626035Y-33697333D01*
X19656273Y-33667095D01*
X19686511Y-33606619D01*
X19686511Y-33485666D01*
X19656273Y-33425190D01*
X19626035Y-33394952D01*
X19565559Y-33364714D01*
X19444607Y-33364714D01*
X19384130Y-33394952D01*
X19353892Y-33425190D01*
X19323654Y-33485666D01*
X19686511Y-32759952D02*
X19686511Y-33122809D01*
X19686511Y-32941380D02*
X19051511Y-32941380D01*
X19142226Y-33001857D01*
X19202702Y-33062333D01*
X19232940Y-33122809D01*
X19263178Y-32215666D02*
X19686511Y-32215666D01*
X19263178Y-32487809D02*
X19595797Y-32487809D01*
X19656273Y-32457571D01*
X19686511Y-32397095D01*
X19686511Y-32306380D01*
X19656273Y-32245904D01*
X19626035Y-32215666D01*
X19051511Y-31792333D02*
X19051511Y-31671380D01*
X19081750Y-31610904D01*
X19142226Y-31550428D01*
X19263178Y-31520190D01*
X19474845Y-31520190D01*
X19595797Y-31550428D01*
X19656273Y-31610904D01*
X19686511Y-31671380D01*
X19686511Y-31792333D01*
X19656273Y-31852809D01*
X19595797Y-31913285D01*
X19474845Y-31943523D01*
X19263178Y-31943523D01*
X19142226Y-31913285D01*
X19081750Y-31852809D01*
X19051511Y-31792333D01*
X19384130Y-31127095D02*
X19686511Y-31127095D01*
X19051511Y-31338761D02*
X19384130Y-31127095D01*
X19051511Y-30915428D01*
X19263178Y-30764238D02*
X19686511Y-30613047D01*
X19263178Y-30461857D01*
X19686511Y-30219952D02*
X19051511Y-30219952D01*
X19353892Y-30219952D02*
X19353892Y-29857095D01*
X19686511Y-29857095D02*
X19051511Y-29857095D01*
X20131011Y-36600190D02*
X20584583Y-36600190D01*
X20675297Y-36630428D01*
X20735773Y-36690904D01*
X20766011Y-36781619D01*
X20766011Y-36842095D01*
X20342678Y-36025666D02*
X20766011Y-36025666D01*
X20342678Y-36297809D02*
X20675297Y-36297809D01*
X20735773Y-36267571D01*
X20766011Y-36207095D01*
X20766011Y-36116380D01*
X20735773Y-36055904D01*
X20705535Y-36025666D01*
X20766011Y-35632571D02*
X20735773Y-35693047D01*
X20675297Y-35723285D01*
X20131011Y-35723285D01*
X20342678Y-35451142D02*
X20766011Y-35299952D01*
X20342678Y-35148761D02*
X20766011Y-35299952D01*
X20917202Y-35360428D01*
X20947440Y-35390666D01*
X20977678Y-35451142D01*
X20191488Y-34453285D02*
X20161250Y-34423047D01*
X20131011Y-34362571D01*
X20131011Y-34211380D01*
X20161250Y-34150904D01*
X20191488Y-34120666D01*
X20251964Y-34090428D01*
X20312440Y-34090428D01*
X20403154Y-34120666D01*
X20766011Y-34483523D01*
X20766011Y-34090428D01*
X20131011Y-33697333D02*
X20131011Y-33636857D01*
X20161250Y-33576380D01*
X20191488Y-33546142D01*
X20251964Y-33515904D01*
X20372916Y-33485666D01*
X20524107Y-33485666D01*
X20645059Y-33515904D01*
X20705535Y-33546142D01*
X20735773Y-33576380D01*
X20766011Y-33636857D01*
X20766011Y-33697333D01*
X20735773Y-33757809D01*
X20705535Y-33788047D01*
X20645059Y-33818285D01*
X20524107Y-33848523D01*
X20372916Y-33848523D01*
X20251964Y-33818285D01*
X20191488Y-33788047D01*
X20161250Y-33757809D01*
X20131011Y-33697333D01*
X20191488Y-33243761D02*
X20161250Y-33213523D01*
X20131011Y-33153047D01*
X20131011Y-33001857D01*
X20161250Y-32941380D01*
X20191488Y-32911142D01*
X20251964Y-32880904D01*
X20312440Y-32880904D01*
X20403154Y-32911142D01*
X20766011Y-33274000D01*
X20766011Y-32880904D01*
X20131011Y-32487809D02*
X20131011Y-32427333D01*
X20161250Y-32366857D01*
X20191488Y-32336619D01*
X20251964Y-32306380D01*
X20372916Y-32276142D01*
X20524107Y-32276142D01*
X20645059Y-32306380D01*
X20705535Y-32336619D01*
X20735773Y-32366857D01*
X20766011Y-32427333D01*
X20766011Y-32487809D01*
X20735773Y-32548285D01*
X20705535Y-32578523D01*
X20645059Y-32608761D01*
X20524107Y-32639000D01*
X20372916Y-32639000D01*
X20251964Y-32608761D01*
X20191488Y-32578523D01*
X20161250Y-32548285D01*
X20131011Y-32487809D01*
X16764000Y-42109571D02*
X17018000Y-42109571D01*
X17126857Y-42508714D02*
X16764000Y-42508714D01*
X16764000Y-41746714D01*
X17126857Y-41746714D01*
X17380857Y-41746714D02*
X17888857Y-42508714D01*
X17888857Y-41746714D02*
X17380857Y-42508714D01*
X18070285Y-41746714D02*
X18505714Y-41746714D01*
X18288000Y-42508714D02*
X18288000Y-41746714D01*
X19195142Y-42508714D02*
X18941142Y-42145857D01*
X18759714Y-42508714D02*
X18759714Y-41746714D01*
X19050000Y-41746714D01*
X19122571Y-41783000D01*
X19158857Y-41819285D01*
X19195142Y-41891857D01*
X19195142Y-42000714D01*
X19158857Y-42073285D01*
X19122571Y-42109571D01*
X19050000Y-42145857D01*
X18759714Y-42145857D01*
X19485428Y-42291000D02*
X19848285Y-42291000D01*
X19412857Y-42508714D02*
X19666857Y-41746714D01*
X19920857Y-42508714D01*
X36739285Y-46173571D02*
X36485285Y-46173571D01*
X36485285Y-46572714D02*
X36485285Y-45810714D01*
X36848142Y-45810714D01*
X37102142Y-46355000D02*
X37465000Y-46355000D01*
X37029571Y-46572714D02*
X37283571Y-45810714D01*
X37537571Y-46572714D01*
X37791571Y-46572714D02*
X37791571Y-45810714D01*
X38227000Y-46572714D01*
X38227000Y-45810714D01*
X39134142Y-46536428D02*
X39243000Y-46572714D01*
X39424428Y-46572714D01*
X39497000Y-46536428D01*
X39533285Y-46500142D01*
X39569571Y-46427571D01*
X39569571Y-46355000D01*
X39533285Y-46282428D01*
X39497000Y-46246142D01*
X39424428Y-46209857D01*
X39279285Y-46173571D01*
X39206714Y-46137285D01*
X39170428Y-46101000D01*
X39134142Y-46028428D01*
X39134142Y-45955857D01*
X39170428Y-45883285D01*
X39206714Y-45847000D01*
X39279285Y-45810714D01*
X39460714Y-45810714D01*
X39569571Y-45847000D01*
X39896142Y-46173571D02*
X40150142Y-46173571D01*
X40259000Y-46572714D02*
X39896142Y-46572714D01*
X39896142Y-45810714D01*
X40259000Y-45810714D01*
X40585571Y-46572714D02*
X40585571Y-45810714D01*
X41021000Y-46572714D01*
X41021000Y-45810714D01*
X41347571Y-46536428D02*
X41456428Y-46572714D01*
X41637857Y-46572714D01*
X41710428Y-46536428D01*
X41746714Y-46500142D01*
X41783000Y-46427571D01*
X41783000Y-46355000D01*
X41746714Y-46282428D01*
X41710428Y-46246142D01*
X41637857Y-46209857D01*
X41492714Y-46173571D01*
X41420142Y-46137285D01*
X41383857Y-46101000D01*
X41347571Y-46028428D01*
X41347571Y-45955857D01*
X41383857Y-45883285D01*
X41420142Y-45847000D01*
X41492714Y-45810714D01*
X41674142Y-45810714D01*
X41783000Y-45847000D01*
X46482000Y-46173571D02*
X46228000Y-46173571D01*
X46228000Y-46572714D02*
X46228000Y-45810714D01*
X46590857Y-45810714D01*
X46844857Y-46355000D02*
X47207714Y-46355000D01*
X46772285Y-46572714D02*
X47026285Y-45810714D01*
X47280285Y-46572714D01*
X47534285Y-46572714D02*
X47534285Y-45810714D01*
X47969714Y-46572714D01*
X47969714Y-45810714D01*
X48913142Y-46572714D02*
X48913142Y-45810714D01*
X49167142Y-46355000D01*
X49421142Y-45810714D01*
X49421142Y-46572714D01*
X49747714Y-46355000D02*
X50110571Y-46355000D01*
X49675142Y-46572714D02*
X49929142Y-45810714D01*
X50183142Y-46572714D01*
X50364571Y-45810714D02*
X50872571Y-46572714D01*
X50872571Y-45810714D02*
X50364571Y-46572714D01*
X50074285Y-41420142D02*
X50038000Y-41456428D01*
X49929142Y-41492714D01*
X49856571Y-41492714D01*
X49747714Y-41456428D01*
X49675142Y-41383857D01*
X49638857Y-41311285D01*
X49602571Y-41166142D01*
X49602571Y-41057285D01*
X49638857Y-40912142D01*
X49675142Y-40839571D01*
X49747714Y-40767000D01*
X49856571Y-40730714D01*
X49929142Y-40730714D01*
X50038000Y-40767000D01*
X50074285Y-40803285D01*
X50546000Y-40730714D02*
X50691142Y-40730714D01*
X50763714Y-40767000D01*
X50836285Y-40839571D01*
X50872571Y-40984714D01*
X50872571Y-41238714D01*
X50836285Y-41383857D01*
X50763714Y-41456428D01*
X50691142Y-41492714D01*
X50546000Y-41492714D01*
X50473428Y-41456428D01*
X50400857Y-41383857D01*
X50364571Y-41238714D01*
X50364571Y-40984714D01*
X50400857Y-40839571D01*
X50473428Y-40767000D01*
X50546000Y-40730714D01*
X51199142Y-41492714D02*
X51199142Y-40730714D01*
X51453142Y-41275000D01*
X51707142Y-40730714D01*
X51707142Y-41492714D01*
X52070000Y-41492714D02*
X52070000Y-40730714D01*
X52360285Y-40730714D01*
X52432857Y-40767000D01*
X52469142Y-40803285D01*
X52505428Y-40875857D01*
X52505428Y-40984714D01*
X52469142Y-41057285D01*
X52432857Y-41093571D01*
X52360285Y-41129857D01*
X52070000Y-41129857D01*
X49911000Y-30425571D02*
X49874714Y-30498142D01*
X49874714Y-30607000D01*
X49911000Y-30715857D01*
X49983571Y-30788428D01*
X50056142Y-30824714D01*
X50201285Y-30861000D01*
X50310142Y-30861000D01*
X50455285Y-30824714D01*
X50527857Y-30788428D01*
X50600428Y-30715857D01*
X50636714Y-30607000D01*
X50636714Y-30534428D01*
X50600428Y-30425571D01*
X50564142Y-30389285D01*
X50310142Y-30389285D01*
X50310142Y-30534428D01*
X50419000Y-30099000D02*
X50419000Y-29736142D01*
X50636714Y-30171571D02*
X49874714Y-29917571D01*
X50636714Y-29663571D01*
X50636714Y-29409571D02*
X49874714Y-29409571D01*
X50636714Y-29046714D02*
X49874714Y-29046714D01*
X50636714Y-28611285D01*
X49874714Y-28611285D01*
X33225619Y-32983714D02*
X32209619Y-32983714D01*
X32935333Y-32645047D01*
X32209619Y-32306380D01*
X33225619Y-32306380D01*
X33225619Y-31822571D02*
X32209619Y-31822571D01*
X33225619Y-31242000D02*
X32645047Y-31677428D01*
X32209619Y-31242000D02*
X32790190Y-31822571D01*
X33225619Y-30274380D02*
X33225619Y-30854952D01*
X33225619Y-30564666D02*
X32209619Y-30564666D01*
X32354761Y-30661428D01*
X32451523Y-30758190D01*
X32499904Y-30854952D01*
X32645047Y-29693809D02*
X32596666Y-29790571D01*
X32548285Y-29838952D01*
X32451523Y-29887333D01*
X32403142Y-29887333D01*
X32306380Y-29838952D01*
X32258000Y-29790571D01*
X32209619Y-29693809D01*
X32209619Y-29500285D01*
X32258000Y-29403523D01*
X32306380Y-29355142D01*
X32403142Y-29306761D01*
X32451523Y-29306761D01*
X32548285Y-29355142D01*
X32596666Y-29403523D01*
X32645047Y-29500285D01*
X32645047Y-29693809D01*
X32693428Y-29790571D01*
X32741809Y-29838952D01*
X32838571Y-29887333D01*
X33032095Y-29887333D01*
X33128857Y-29838952D01*
X33177238Y-29790571D01*
X33225619Y-29693809D01*
X33225619Y-29500285D01*
X33177238Y-29403523D01*
X33128857Y-29355142D01*
X33032095Y-29306761D01*
X32838571Y-29306761D01*
X32741809Y-29355142D01*
X32693428Y-29403523D01*
X32645047Y-29500285D01*
X32548285Y-28435904D02*
X33225619Y-28435904D01*
X32161238Y-28677809D02*
X32886952Y-28919714D01*
X32886952Y-28290761D01*
X33225619Y-27371523D02*
X33225619Y-27952095D01*
X33225619Y-27661809D02*
X32209619Y-27661809D01*
X32354761Y-27758571D01*
X32451523Y-27855333D01*
X32499904Y-27952095D01*
X33225619Y-26936095D02*
X32209619Y-26936095D01*
X32209619Y-26694190D01*
X32258000Y-26549047D01*
X32354761Y-26452285D01*
X32451523Y-26403904D01*
X32645047Y-26355523D01*
X32790190Y-26355523D01*
X32983714Y-26403904D01*
X33080476Y-26452285D01*
X33177238Y-26549047D01*
X33225619Y-26694190D01*
X33225619Y-26936095D01*
X32209619Y-26016857D02*
X32209619Y-25387904D01*
X32596666Y-25726571D01*
X32596666Y-25581428D01*
X32645047Y-25484666D01*
X32693428Y-25436285D01*
X32790190Y-25387904D01*
X33032095Y-25387904D01*
X33128857Y-25436285D01*
X33177238Y-25484666D01*
X33225619Y-25581428D01*
X33225619Y-25871714D01*
X33177238Y-25968476D01*
X33128857Y-26016857D01*
X47806428Y-40222714D02*
X47552428Y-39859857D01*
X47371000Y-40222714D02*
X47371000Y-39460714D01*
X47661285Y-39460714D01*
X47733857Y-39497000D01*
X47770142Y-39533285D01*
X47806428Y-39605857D01*
X47806428Y-39714714D01*
X47770142Y-39787285D01*
X47733857Y-39823571D01*
X47661285Y-39859857D01*
X47371000Y-39859857D01*
X48096714Y-40005000D02*
X48459571Y-40005000D01*
X48024142Y-40222714D02*
X48278142Y-39460714D01*
X48532142Y-40222714D01*
X48786142Y-40222714D02*
X48786142Y-39460714D01*
X49221571Y-40222714D01*
X49221571Y-39460714D01*
X49983571Y-39497000D02*
X49911000Y-39460714D01*
X49802142Y-39460714D01*
X49693285Y-39497000D01*
X49620714Y-39569571D01*
X49584428Y-39642142D01*
X49548142Y-39787285D01*
X49548142Y-39896142D01*
X49584428Y-40041285D01*
X49620714Y-40113857D01*
X49693285Y-40186428D01*
X49802142Y-40222714D01*
X49874714Y-40222714D01*
X49983571Y-40186428D01*
X50019857Y-40150142D01*
X50019857Y-39896142D01*
X49874714Y-39896142D01*
X50346428Y-39823571D02*
X50600428Y-39823571D01*
X50709285Y-40222714D02*
X50346428Y-40222714D01*
X50346428Y-39460714D01*
X50709285Y-39460714D01*
X52106285Y-38444714D02*
X52106285Y-37682714D01*
X52106285Y-38045571D02*
X52541714Y-38045571D01*
X52541714Y-38444714D02*
X52541714Y-37682714D01*
X45955857Y-38444714D02*
X45593000Y-38444714D01*
X45593000Y-37682714D01*
X38190714Y-38118142D02*
X38952714Y-37864142D01*
X38190714Y-37610142D01*
X38952714Y-37356142D02*
X38444714Y-37356142D01*
X38589857Y-37356142D02*
X38517285Y-37319857D01*
X38481000Y-37283571D01*
X38444714Y-37211000D01*
X38444714Y-37138428D01*
X38916428Y-36594142D02*
X38952714Y-36666714D01*
X38952714Y-36811857D01*
X38916428Y-36884428D01*
X38843857Y-36920714D01*
X38553571Y-36920714D01*
X38481000Y-36884428D01*
X38444714Y-36811857D01*
X38444714Y-36666714D01*
X38481000Y-36594142D01*
X38553571Y-36557857D01*
X38626142Y-36557857D01*
X38698714Y-36920714D01*
X38444714Y-36340142D02*
X38444714Y-36049857D01*
X38952714Y-36231285D02*
X38299571Y-36231285D01*
X38227000Y-36195000D01*
X38190714Y-36122428D01*
X38190714Y-36049857D01*
D11*
X45718000Y-46538000D02*
X44258000Y-46538000D01*
X45718000Y-43378000D02*
X42558000Y-43378000D01*
X45718000Y-43378000D02*
X45718000Y-44308000D01*
X45718000Y-46538000D02*
X45718000Y-45608000D01*
X26146000Y-26960000D02*
X26146000Y-30860000D01*
X24146000Y-26960000D02*
X24146000Y-30860000D01*
X26146000Y-26960000D02*
X24146000Y-26960000D01*
X22858000Y-31578733D02*
X22858000Y-31921267D01*
X23878000Y-31578733D02*
X23878000Y-31921267D01*
D12*
X48866000Y-17965000D02*
X48866000Y-16540000D01*
X49091000Y-25215000D02*
X49091000Y-24890000D01*
X41841000Y-25215000D02*
X41841000Y-24890000D01*
X41841000Y-17965000D02*
X41841000Y-18290000D01*
X49091000Y-17965000D02*
X49091000Y-18290000D01*
X41841000Y-17965000D02*
X42166000Y-17965000D01*
X41841000Y-25215000D02*
X42166000Y-25215000D01*
X49091000Y-25215000D02*
X48766000Y-25215000D01*
X49091000Y-17965000D02*
X48866000Y-17965000D01*
D11*
X52264000Y-16704000D02*
X53594000Y-16704000D01*
X52264000Y-18034000D02*
X52264000Y-16704000D01*
X54864000Y-16704000D02*
X57464000Y-16704000D01*
X54864000Y-19304000D02*
X54864000Y-16704000D01*
X52264000Y-19304000D02*
X54864000Y-19304000D01*
X57464000Y-16704000D02*
X57464000Y-24444000D01*
X52264000Y-19304000D02*
X52264000Y-24444000D01*
X52264000Y-24444000D02*
X57464000Y-24444000D01*
X24974733Y-38356000D02*
X25317267Y-38356000D01*
X24974733Y-37336000D02*
X25317267Y-37336000D01*
X46272000Y-37100000D02*
X51772000Y-37100000D01*
X51772000Y-37100000D02*
X51772000Y-39050000D01*
X51772000Y-39050000D02*
X46272000Y-39050000D01*
X46272000Y-39050000D02*
X46272000Y-37100000D01*
X34820000Y-16382000D02*
X33570000Y-16382000D01*
X34820000Y-41902000D02*
X34820000Y-16382000D01*
X30320000Y-41902000D02*
X34820000Y-41902000D01*
X30320000Y-16382000D02*
X30320000Y-41902000D01*
X31570000Y-16382000D02*
X30320000Y-16382000D01*
X33570000Y-16382000D02*
G75*
G02X31570000Y-16382000I-1000000J0D01*
G01*
D12*
X39081000Y-33571000D02*
X39131000Y-33571000D01*
X39081000Y-29421000D02*
X39226000Y-29421000D01*
X44231000Y-29421000D02*
X44086000Y-29421000D01*
X44231000Y-33571000D02*
X44086000Y-33571000D01*
X39081000Y-33571000D02*
X39081000Y-29421000D01*
X44231000Y-33571000D02*
X44231000Y-29421000D01*
X39131000Y-33571000D02*
X39131000Y-34971000D01*
D11*
X51742000Y-26416000D02*
G75*
G03X51742000Y-26416000I-1450000J0D01*
G01*
X49456000Y-41910000D02*
G75*
G03X49456000Y-41910000I-1450000J0D01*
G01*
X41074000Y-40640000D02*
G75*
G03X41074000Y-40640000I-1450000J0D01*
G01*
X44644000Y-27918000D02*
X44644000Y-28618000D01*
X45344000Y-27918000D02*
X44644000Y-27918000D01*
X49144000Y-31318000D02*
X49144000Y-30718000D01*
X46244000Y-31318000D02*
X49144000Y-31318000D01*
X49144000Y-28118000D02*
X49144000Y-28718000D01*
X46244000Y-28118000D02*
X49144000Y-28118000D01*
X45144000Y-29518000D02*
X45144000Y-29918000D01*
X44256000Y-38884000D02*
X44256000Y-38184000D01*
X43556000Y-38884000D02*
X44256000Y-38884000D01*
X39756000Y-35484000D02*
X39756000Y-36084000D01*
X42656000Y-35484000D02*
X39756000Y-35484000D01*
X39756000Y-38684000D02*
X39756000Y-38084000D01*
X42656000Y-38684000D02*
X39756000Y-38684000D01*
X43756000Y-37284000D02*
X43756000Y-36884000D01*
X52322000Y-29800733D02*
X52322000Y-30143267D01*
X53342000Y-29800733D02*
X53342000Y-30143267D01*
X52072000Y-30143267D02*
X52072000Y-29800733D01*
X51052000Y-30143267D02*
X51052000Y-29800733D01*
X49104733Y-44960000D02*
X49447267Y-44960000D01*
X49104733Y-43940000D02*
X49447267Y-43940000D01*
X46056733Y-34038000D02*
X46399267Y-34038000D01*
X46056733Y-33018000D02*
X46399267Y-33018000D01*
X43097267Y-41908000D02*
X42754733Y-41908000D01*
X43097267Y-42928000D02*
X42754733Y-42928000D01*
X50798000Y-19894733D02*
X50798000Y-20237267D01*
X51818000Y-19894733D02*
X51818000Y-20237267D01*
X46145267Y-35812000D02*
X45802733Y-35812000D01*
X46145267Y-36832000D02*
X45802733Y-36832000D01*
X49193267Y-35812000D02*
X48850733Y-35812000D01*
X49193267Y-36832000D02*
X48850733Y-36832000D01*
X52241267Y-35812000D02*
X51898733Y-35812000D01*
X52241267Y-36832000D02*
X51898733Y-36832000D01*
X26726000Y-33530000D02*
X26726000Y-34990000D01*
X23566000Y-33530000D02*
X23566000Y-36690000D01*
X23566000Y-33530000D02*
X24496000Y-33530000D01*
X26726000Y-33530000D02*
X25796000Y-33530000D01*
X53342000Y-26841267D02*
X53342000Y-26498733D01*
X52322000Y-26841267D02*
X52322000Y-26498733D01*
X39706733Y-18036000D02*
X40049267Y-18036000D01*
X39706733Y-17016000D02*
X40049267Y-17016000D01*
X46056733Y-32768000D02*
X46399267Y-32768000D01*
X46056733Y-31748000D02*
X46399267Y-31748000D01*
X39626000Y-26841267D02*
X39626000Y-26498733D01*
X38606000Y-26841267D02*
X38606000Y-26498733D01*
X42754733Y-40388000D02*
X43097267Y-40388000D01*
X42754733Y-39368000D02*
X43097267Y-39368000D01*
X43097267Y-40638000D02*
X42754733Y-40638000D01*
X43097267Y-41658000D02*
X42754733Y-41658000D01*
X26928000Y-21538000D02*
G75*
G03X26928000Y-21538000I-6100000J0D01*
G01*
D12*
X41052761Y-44489619D02*
X40957523Y-44442000D01*
X40862285Y-44346761D01*
X40719428Y-44203904D01*
X40624190Y-44156285D01*
X40528952Y-44156285D01*
X40576571Y-44394380D02*
X40481333Y-44346761D01*
X40386095Y-44251523D01*
X40338476Y-44061047D01*
X40338476Y-43727714D01*
X40386095Y-43537238D01*
X40481333Y-43442000D01*
X40576571Y-43394380D01*
X40767047Y-43394380D01*
X40862285Y-43442000D01*
X40957523Y-43537238D01*
X41005142Y-43727714D01*
X41005142Y-44061047D01*
X40957523Y-44251523D01*
X40862285Y-44346761D01*
X40767047Y-44394380D01*
X40576571Y-44394380D01*
X41386095Y-43489619D02*
X41433714Y-43442000D01*
X41528952Y-43394380D01*
X41767047Y-43394380D01*
X41862285Y-43442000D01*
X41909904Y-43489619D01*
X41957523Y-43584857D01*
X41957523Y-43680095D01*
X41909904Y-43822952D01*
X41338476Y-44394380D01*
X41957523Y-44394380D01*
X23820380Y-29948095D02*
X22820380Y-29948095D01*
X22820380Y-29710000D01*
X22868000Y-29567142D01*
X22963238Y-29471904D01*
X23058476Y-29424285D01*
X23248952Y-29376666D01*
X23391809Y-29376666D01*
X23582285Y-29424285D01*
X23677523Y-29471904D01*
X23772761Y-29567142D01*
X23820380Y-29710000D01*
X23820380Y-29948095D01*
X23820380Y-28424285D02*
X23820380Y-28995714D01*
X23820380Y-28710000D02*
X22820380Y-28710000D01*
X22963238Y-28805238D01*
X23058476Y-28900476D01*
X23106095Y-28995714D01*
X22296380Y-32392857D02*
X21820190Y-32726190D01*
X22296380Y-32964285D02*
X21296380Y-32964285D01*
X21296380Y-32583333D01*
X21344000Y-32488095D01*
X21391619Y-32440476D01*
X21486857Y-32392857D01*
X21629714Y-32392857D01*
X21724952Y-32440476D01*
X21772571Y-32488095D01*
X21820190Y-32583333D01*
X21820190Y-32964285D01*
X22296380Y-31440476D02*
X22296380Y-32011904D01*
X22296380Y-31726190D02*
X21296380Y-31726190D01*
X21439238Y-31821428D01*
X21534476Y-31916666D01*
X21582095Y-32011904D01*
X22296380Y-30488095D02*
X22296380Y-31059523D01*
X22296380Y-30773809D02*
X21296380Y-30773809D01*
X21439238Y-30869047D01*
X21534476Y-30964285D01*
X21582095Y-31059523D01*
D10*
X58510714Y-24238857D02*
X57748714Y-24238857D01*
X58438142Y-23440571D02*
X58474428Y-23476857D01*
X58510714Y-23585714D01*
X58510714Y-23658285D01*
X58474428Y-23767142D01*
X58401857Y-23839714D01*
X58329285Y-23876000D01*
X58184142Y-23912285D01*
X58075285Y-23912285D01*
X57930142Y-23876000D01*
X57857571Y-23839714D01*
X57785000Y-23767142D01*
X57748714Y-23658285D01*
X57748714Y-23585714D01*
X57785000Y-23476857D01*
X57821285Y-23440571D01*
X58474428Y-23150285D02*
X58510714Y-23041428D01*
X58510714Y-22860000D01*
X58474428Y-22787428D01*
X58438142Y-22751142D01*
X58365571Y-22714857D01*
X58293000Y-22714857D01*
X58220428Y-22751142D01*
X58184142Y-22787428D01*
X58147857Y-22860000D01*
X58111571Y-23005142D01*
X58075285Y-23077714D01*
X58039000Y-23114000D01*
X57966428Y-23150285D01*
X57893857Y-23150285D01*
X57821285Y-23114000D01*
X57785000Y-23077714D01*
X57748714Y-23005142D01*
X57748714Y-22823714D01*
X57785000Y-22714857D01*
X58510714Y-22388285D02*
X57748714Y-22388285D01*
X57748714Y-22098000D01*
X57785000Y-22025428D01*
X57821285Y-21989142D01*
X57893857Y-21952857D01*
X58002714Y-21952857D01*
X58075285Y-21989142D01*
X58111571Y-22025428D01*
X58147857Y-22098000D01*
X58147857Y-22388285D01*
D12*
X24503142Y-39822380D02*
X24169809Y-39346190D01*
X23931714Y-39822380D02*
X23931714Y-38822380D01*
X24312666Y-38822380D01*
X24407904Y-38870000D01*
X24455523Y-38917619D01*
X24503142Y-39012857D01*
X24503142Y-39155714D01*
X24455523Y-39250952D01*
X24407904Y-39298571D01*
X24312666Y-39346190D01*
X23931714Y-39346190D01*
X25455523Y-39822380D02*
X24884095Y-39822380D01*
X25169809Y-39822380D02*
X25169809Y-38822380D01*
X25074571Y-38965238D01*
X24979333Y-39060476D01*
X24884095Y-39108095D01*
X26074571Y-38822380D02*
X26169809Y-38822380D01*
X26265047Y-38870000D01*
X26312666Y-38917619D01*
X26360285Y-39012857D01*
X26407904Y-39203333D01*
X26407904Y-39441428D01*
X26360285Y-39631904D01*
X26312666Y-39727142D01*
X26265047Y-39774761D01*
X26169809Y-39822380D01*
X26074571Y-39822380D01*
X25979333Y-39774761D01*
X25931714Y-39727142D01*
X25884095Y-39631904D01*
X25836476Y-39441428D01*
X25836476Y-39203333D01*
X25884095Y-39012857D01*
X25931714Y-38917619D01*
X25979333Y-38870000D01*
X26074571Y-38822380D01*
X53284380Y-32678666D02*
X52808190Y-33012000D01*
X53284380Y-33250095D02*
X52284380Y-33250095D01*
X52284380Y-32869142D01*
X52332000Y-32773904D01*
X52379619Y-32726285D01*
X52474857Y-32678666D01*
X52617714Y-32678666D01*
X52712952Y-32726285D01*
X52760571Y-32773904D01*
X52808190Y-32869142D01*
X52808190Y-33250095D01*
X53284380Y-32202476D02*
X53284380Y-32012000D01*
X53236761Y-31916761D01*
X53189142Y-31869142D01*
X53046285Y-31773904D01*
X52855809Y-31726285D01*
X52474857Y-31726285D01*
X52379619Y-31773904D01*
X52332000Y-31821523D01*
X52284380Y-31916761D01*
X52284380Y-32107238D01*
X52332000Y-32202476D01*
X52379619Y-32250095D01*
X52474857Y-32297714D01*
X52712952Y-32297714D01*
X52808190Y-32250095D01*
X52855809Y-32202476D01*
X52903428Y-32107238D01*
X52903428Y-31916761D01*
X52855809Y-31821523D01*
X52808190Y-31773904D01*
X52712952Y-31726285D01*
X52014380Y-32678666D02*
X51538190Y-33012000D01*
X52014380Y-33250095D02*
X51014380Y-33250095D01*
X51014380Y-32869142D01*
X51062000Y-32773904D01*
X51109619Y-32726285D01*
X51204857Y-32678666D01*
X51347714Y-32678666D01*
X51442952Y-32726285D01*
X51490571Y-32773904D01*
X51538190Y-32869142D01*
X51538190Y-33250095D01*
X51442952Y-32107238D02*
X51395333Y-32202476D01*
X51347714Y-32250095D01*
X51252476Y-32297714D01*
X51204857Y-32297714D01*
X51109619Y-32250095D01*
X51062000Y-32202476D01*
X51014380Y-32107238D01*
X51014380Y-31916761D01*
X51062000Y-31821523D01*
X51109619Y-31773904D01*
X51204857Y-31726285D01*
X51252476Y-31726285D01*
X51347714Y-31773904D01*
X51395333Y-31821523D01*
X51442952Y-31916761D01*
X51442952Y-32107238D01*
X51490571Y-32202476D01*
X51538190Y-32250095D01*
X51633428Y-32297714D01*
X51823904Y-32297714D01*
X51919142Y-32250095D01*
X51966761Y-32202476D01*
X52014380Y-32107238D01*
X52014380Y-31916761D01*
X51966761Y-31821523D01*
X51919142Y-31773904D01*
X51823904Y-31726285D01*
X51633428Y-31726285D01*
X51538190Y-31773904D01*
X51490571Y-31821523D01*
X51442952Y-31916761D01*
X50125333Y-43632380D02*
X49792000Y-43156190D01*
X49553904Y-43632380D02*
X49553904Y-42632380D01*
X49934857Y-42632380D01*
X50030095Y-42680000D01*
X50077714Y-42727619D01*
X50125333Y-42822857D01*
X50125333Y-42965714D01*
X50077714Y-43060952D01*
X50030095Y-43108571D01*
X49934857Y-43156190D01*
X49553904Y-43156190D01*
X50458666Y-42632380D02*
X51125333Y-42632380D01*
X50696761Y-43632380D01*
X48855333Y-33980380D02*
X48522000Y-33504190D01*
X48283904Y-33980380D02*
X48283904Y-32980380D01*
X48664857Y-32980380D01*
X48760095Y-33028000D01*
X48807714Y-33075619D01*
X48855333Y-33170857D01*
X48855333Y-33313714D01*
X48807714Y-33408952D01*
X48760095Y-33456571D01*
X48664857Y-33504190D01*
X48283904Y-33504190D01*
X49712476Y-32980380D02*
X49522000Y-32980380D01*
X49426761Y-33028000D01*
X49379142Y-33075619D01*
X49283904Y-33218476D01*
X49236285Y-33408952D01*
X49236285Y-33789904D01*
X49283904Y-33885142D01*
X49331523Y-33932761D01*
X49426761Y-33980380D01*
X49617238Y-33980380D01*
X49712476Y-33932761D01*
X49760095Y-33885142D01*
X49807714Y-33789904D01*
X49807714Y-33551809D01*
X49760095Y-33456571D01*
X49712476Y-33408952D01*
X49617238Y-33361333D01*
X49426761Y-33361333D01*
X49331523Y-33408952D01*
X49283904Y-33456571D01*
X49236285Y-33551809D01*
X45299333Y-42870380D02*
X44966000Y-42394190D01*
X44727904Y-42870380D02*
X44727904Y-41870380D01*
X45108857Y-41870380D01*
X45204095Y-41918000D01*
X45251714Y-41965619D01*
X45299333Y-42060857D01*
X45299333Y-42203714D01*
X45251714Y-42298952D01*
X45204095Y-42346571D01*
X45108857Y-42394190D01*
X44727904Y-42394190D01*
X46204095Y-41870380D02*
X45727904Y-41870380D01*
X45680285Y-42346571D01*
X45727904Y-42298952D01*
X45823142Y-42251333D01*
X46061238Y-42251333D01*
X46156476Y-42298952D01*
X46204095Y-42346571D01*
X46251714Y-42441809D01*
X46251714Y-42679904D01*
X46204095Y-42775142D01*
X46156476Y-42822761D01*
X46061238Y-42870380D01*
X45823142Y-42870380D01*
X45727904Y-42822761D01*
X45680285Y-42775142D01*
X51760380Y-17692666D02*
X51284190Y-18026000D01*
X51760380Y-18264095D02*
X50760380Y-18264095D01*
X50760380Y-17883142D01*
X50808000Y-17787904D01*
X50855619Y-17740285D01*
X50950857Y-17692666D01*
X51093714Y-17692666D01*
X51188952Y-17740285D01*
X51236571Y-17787904D01*
X51284190Y-17883142D01*
X51284190Y-18264095D01*
X51093714Y-16835523D02*
X51760380Y-16835523D01*
X50712761Y-17073619D02*
X51427047Y-17311714D01*
X51427047Y-16692666D01*
X45807333Y-35504380D02*
X45474000Y-35028190D01*
X45235904Y-35504380D02*
X45235904Y-34504380D01*
X45616857Y-34504380D01*
X45712095Y-34552000D01*
X45759714Y-34599619D01*
X45807333Y-34694857D01*
X45807333Y-34837714D01*
X45759714Y-34932952D01*
X45712095Y-34980571D01*
X45616857Y-35028190D01*
X45235904Y-35028190D01*
X46140666Y-34504380D02*
X46759714Y-34504380D01*
X46426380Y-34885333D01*
X46569238Y-34885333D01*
X46664476Y-34932952D01*
X46712095Y-34980571D01*
X46759714Y-35075809D01*
X46759714Y-35313904D01*
X46712095Y-35409142D01*
X46664476Y-35456761D01*
X46569238Y-35504380D01*
X46283523Y-35504380D01*
X46188285Y-35456761D01*
X46140666Y-35409142D01*
X48855333Y-35504380D02*
X48522000Y-35028190D01*
X48283904Y-35504380D02*
X48283904Y-34504380D01*
X48664857Y-34504380D01*
X48760095Y-34552000D01*
X48807714Y-34599619D01*
X48855333Y-34694857D01*
X48855333Y-34837714D01*
X48807714Y-34932952D01*
X48760095Y-34980571D01*
X48664857Y-35028190D01*
X48283904Y-35028190D01*
X49236285Y-34599619D02*
X49283904Y-34552000D01*
X49379142Y-34504380D01*
X49617238Y-34504380D01*
X49712476Y-34552000D01*
X49760095Y-34599619D01*
X49807714Y-34694857D01*
X49807714Y-34790095D01*
X49760095Y-34932952D01*
X49188666Y-35504380D01*
X49807714Y-35504380D01*
X51903333Y-35504380D02*
X51570000Y-35028190D01*
X51331904Y-35504380D02*
X51331904Y-34504380D01*
X51712857Y-34504380D01*
X51808095Y-34552000D01*
X51855714Y-34599619D01*
X51903333Y-34694857D01*
X51903333Y-34837714D01*
X51855714Y-34932952D01*
X51808095Y-34980571D01*
X51712857Y-35028190D01*
X51331904Y-35028190D01*
X52855714Y-35504380D02*
X52284285Y-35504380D01*
X52570000Y-35504380D02*
X52570000Y-34504380D01*
X52474761Y-34647238D01*
X52379523Y-34742476D01*
X52284285Y-34790095D01*
X23193619Y-35401238D02*
X23146000Y-35496476D01*
X23050761Y-35591714D01*
X22907904Y-35734571D01*
X22860285Y-35829809D01*
X22860285Y-35925047D01*
X23098380Y-35877428D02*
X23050761Y-35972666D01*
X22955523Y-36067904D01*
X22765047Y-36115523D01*
X22431714Y-36115523D01*
X22241238Y-36067904D01*
X22146000Y-35972666D01*
X22098380Y-35877428D01*
X22098380Y-35686952D01*
X22146000Y-35591714D01*
X22241238Y-35496476D01*
X22431714Y-35448857D01*
X22765047Y-35448857D01*
X22955523Y-35496476D01*
X23050761Y-35591714D01*
X23098380Y-35686952D01*
X23098380Y-35877428D01*
X23098380Y-34496476D02*
X23098380Y-35067904D01*
X23098380Y-34782190D02*
X22098380Y-34782190D01*
X22241238Y-34877428D01*
X22336476Y-34972666D01*
X22384095Y-35067904D01*
X51919142Y-24296666D02*
X51966761Y-24344285D01*
X52014380Y-24487142D01*
X52014380Y-24582380D01*
X51966761Y-24725238D01*
X51871523Y-24820476D01*
X51776285Y-24868095D01*
X51585809Y-24915714D01*
X51442952Y-24915714D01*
X51252476Y-24868095D01*
X51157238Y-24820476D01*
X51062000Y-24725238D01*
X51014380Y-24582380D01*
X51014380Y-24487142D01*
X51062000Y-24344285D01*
X51109619Y-24296666D01*
X51014380Y-23439523D02*
X51014380Y-23630000D01*
X51062000Y-23725238D01*
X51109619Y-23772857D01*
X51252476Y-23868095D01*
X51442952Y-23915714D01*
X51823904Y-23915714D01*
X51919142Y-23868095D01*
X51966761Y-23820476D01*
X52014380Y-23725238D01*
X52014380Y-23534761D01*
X51966761Y-23439523D01*
X51919142Y-23391904D01*
X51823904Y-23344285D01*
X51585809Y-23344285D01*
X51490571Y-23391904D01*
X51442952Y-23439523D01*
X51395333Y-23534761D01*
X51395333Y-23725238D01*
X51442952Y-23820476D01*
X51490571Y-23868095D01*
X51585809Y-23915714D01*
X39711333Y-16613142D02*
X39663714Y-16660761D01*
X39520857Y-16708380D01*
X39425619Y-16708380D01*
X39282761Y-16660761D01*
X39187523Y-16565523D01*
X39139904Y-16470285D01*
X39092285Y-16279809D01*
X39092285Y-16136952D01*
X39139904Y-15946476D01*
X39187523Y-15851238D01*
X39282761Y-15756000D01*
X39425619Y-15708380D01*
X39520857Y-15708380D01*
X39663714Y-15756000D01*
X39711333Y-15803619D01*
X40616095Y-15708380D02*
X40139904Y-15708380D01*
X40092285Y-16184571D01*
X40139904Y-16136952D01*
X40235142Y-16089333D01*
X40473238Y-16089333D01*
X40568476Y-16136952D01*
X40616095Y-16184571D01*
X40663714Y-16279809D01*
X40663714Y-16517904D01*
X40616095Y-16613142D01*
X40568476Y-16660761D01*
X40473238Y-16708380D01*
X40235142Y-16708380D01*
X40139904Y-16660761D01*
X40092285Y-16613142D01*
X48855333Y-32615142D02*
X48807714Y-32662761D01*
X48664857Y-32710380D01*
X48569619Y-32710380D01*
X48426761Y-32662761D01*
X48331523Y-32567523D01*
X48283904Y-32472285D01*
X48236285Y-32281809D01*
X48236285Y-32138952D01*
X48283904Y-31948476D01*
X48331523Y-31853238D01*
X48426761Y-31758000D01*
X48569619Y-31710380D01*
X48664857Y-31710380D01*
X48807714Y-31758000D01*
X48855333Y-31805619D01*
X49712476Y-32043714D02*
X49712476Y-32710380D01*
X49474380Y-31662761D02*
X49236285Y-32377047D01*
X49855333Y-32377047D01*
X39473142Y-24296666D02*
X39520761Y-24344285D01*
X39568380Y-24487142D01*
X39568380Y-24582380D01*
X39520761Y-24725238D01*
X39425523Y-24820476D01*
X39330285Y-24868095D01*
X39139809Y-24915714D01*
X38996952Y-24915714D01*
X38806476Y-24868095D01*
X38711238Y-24820476D01*
X38616000Y-24725238D01*
X38568380Y-24582380D01*
X38568380Y-24487142D01*
X38616000Y-24344285D01*
X38663619Y-24296666D01*
X38568380Y-23963333D02*
X38568380Y-23344285D01*
X38949333Y-23677619D01*
X38949333Y-23534761D01*
X38996952Y-23439523D01*
X39044571Y-23391904D01*
X39139809Y-23344285D01*
X39377904Y-23344285D01*
X39473142Y-23391904D01*
X39520761Y-23439523D01*
X39568380Y-23534761D01*
X39568380Y-23820476D01*
X39520761Y-23915714D01*
X39473142Y-23963333D01*
X45299333Y-40235142D02*
X45251714Y-40282761D01*
X45108857Y-40330380D01*
X45013619Y-40330380D01*
X44870761Y-40282761D01*
X44775523Y-40187523D01*
X44727904Y-40092285D01*
X44680285Y-39901809D01*
X44680285Y-39758952D01*
X44727904Y-39568476D01*
X44775523Y-39473238D01*
X44870761Y-39378000D01*
X45013619Y-39330380D01*
X45108857Y-39330380D01*
X45251714Y-39378000D01*
X45299333Y-39425619D01*
X45680285Y-39425619D02*
X45727904Y-39378000D01*
X45823142Y-39330380D01*
X46061238Y-39330380D01*
X46156476Y-39378000D01*
X46204095Y-39425619D01*
X46251714Y-39520857D01*
X46251714Y-39616095D01*
X46204095Y-39758952D01*
X45632666Y-40330380D01*
X46251714Y-40330380D01*
X45299333Y-41505142D02*
X45251714Y-41552761D01*
X45108857Y-41600380D01*
X45013619Y-41600380D01*
X44870761Y-41552761D01*
X44775523Y-41457523D01*
X44727904Y-41362285D01*
X44680285Y-41171809D01*
X44680285Y-41028952D01*
X44727904Y-40838476D01*
X44775523Y-40743238D01*
X44870761Y-40648000D01*
X45013619Y-40600380D01*
X45108857Y-40600380D01*
X45251714Y-40648000D01*
X45299333Y-40695619D01*
X46251714Y-41600380D02*
X45680285Y-41600380D01*
X45966000Y-41600380D02*
X45966000Y-40600380D01*
X45870761Y-40743238D01*
X45775523Y-40838476D01*
X45680285Y-40886095D01*
X23439428Y-18658952D02*
X23439428Y-17897047D01*
X23820380Y-18278000D02*
X23058476Y-18278000D01*
M02*
