G04 #@! TF.GenerationSoftware,KiCad,Pcbnew,(5.1.0-0)*
G04 #@! TF.CreationDate,2020-09-24T17:30:25-07:00*
G04 #@! TF.ProjectId,858D+ MK1841D3 to ATmega328,38353844-2b20-44d4-9b31-383431443320,rev?*
G04 #@! TF.SameCoordinates,Original*
G04 #@! TF.FileFunction,Copper,L2,Bot*
G04 #@! TF.FilePolarity,Positive*
%FSLAX46Y46*%
G04 Gerber Fmt 4.6, Leading zero omitted, Abs format (unit mm)*
G04 Created by KiCad (PCBNEW (5.1.0-0)) date 2020-09-24 17:30:25*
%MOMM*%
%LPD*%
G04 APERTURE LIST*
%ADD10O,1.700000X1.700000*%
%ADD11R,1.700000X1.700000*%
%ADD12O,2.400000X1.600000*%
%ADD13R,2.400000X1.600000*%
%ADD14C,2.500000*%
%ADD15C,2.999740*%
%ADD16R,2.999740X2.999740*%
%ADD17C,3.500120*%
%ADD18C,2.000000*%
%ADD19R,2.000000X2.000000*%
%ADD20C,0.635000*%
%ADD21C,0.381000*%
%ADD22C,0.203200*%
G04 APERTURE END LIST*
D10*
X56134000Y-23114000D03*
X53594000Y-23114000D03*
X56134000Y-20574000D03*
X53594000Y-20574000D03*
X56134000Y-18034000D03*
D11*
X53594000Y-18034000D03*
D12*
X36380000Y-17712000D03*
X28760000Y-40572000D03*
X36380000Y-20252000D03*
X28760000Y-38032000D03*
X36380000Y-22792000D03*
X28760000Y-35492000D03*
X36380000Y-25332000D03*
X28760000Y-32952000D03*
X36380000Y-27872000D03*
X28760000Y-30412000D03*
X36380000Y-30412000D03*
X28760000Y-27872000D03*
X36380000Y-32952000D03*
X28760000Y-25332000D03*
X36380000Y-35492000D03*
X28760000Y-22792000D03*
X36380000Y-38032000D03*
X28760000Y-20252000D03*
X36380000Y-40572000D03*
D13*
X28760000Y-17712000D03*
D14*
X50292000Y-26416000D03*
X48006000Y-41910000D03*
X39624000Y-40640000D03*
D15*
X55626000Y-41656000D03*
X55626000Y-37846000D03*
X55626000Y-34036000D03*
X55626000Y-30226000D03*
D16*
X55626000Y-26416000D03*
D17*
X52832000Y-44450000D03*
D15*
X29718000Y-44450000D03*
X25908000Y-44450000D03*
X22098000Y-44450000D03*
D16*
X18288000Y-44450000D03*
D17*
X34798000Y-44450000D03*
D18*
X20828000Y-24788000D03*
D19*
X20828000Y-18288000D03*
D20*
X49784000Y-17780000D03*
X41588000Y-17712000D03*
X49276000Y-32512000D03*
X51562000Y-32004000D03*
X38608000Y-28194000D03*
X45866003Y-18521003D03*
X43185159Y-31534110D03*
X43688000Y-20828000D03*
X34290000Y-32766000D03*
X45466000Y-37846000D03*
X52832000Y-32004000D03*
X52832000Y-33274000D03*
X42926000Y-19050000D03*
X55880000Y-44450000D03*
X53086000Y-41656000D03*
X49784000Y-45720000D03*
X32512000Y-46228000D03*
X37084000Y-46228000D03*
X32512000Y-42672000D03*
X37084000Y-42672000D03*
X49022000Y-34798000D03*
X34290000Y-36830000D03*
X49530000Y-31750000D03*
X38354000Y-31242000D03*
X49022000Y-17018000D03*
X50546000Y-17018000D03*
X39618841Y-25648841D03*
X44196000Y-34798000D03*
X39624000Y-17056110D03*
X38100003Y-18500992D03*
X44958023Y-16040110D03*
X46482000Y-24384000D03*
X45720000Y-24638000D03*
X44450000Y-30187890D03*
X48230967Y-22127033D03*
X49022000Y-43942000D03*
X41656000Y-26162000D03*
X48006000Y-24384000D03*
X33528000Y-27178000D03*
X48261126Y-22888448D03*
X39878000Y-24130000D03*
X33782000Y-22860000D03*
X44704000Y-19558000D03*
X44640492Y-21080230D03*
X39370000Y-22352000D03*
X34544000Y-23368000D03*
X46697890Y-20574000D03*
X47498000Y-18584512D03*
X39116000Y-20320000D03*
X47473775Y-27076848D03*
X51308000Y-24638000D03*
X48234330Y-27029178D03*
X51816000Y-23876000D03*
X43942006Y-31750000D03*
X46087000Y-34544000D03*
X46101010Y-21231473D03*
X41148000Y-27686000D03*
X46736000Y-29171890D03*
X44196010Y-16040110D03*
X46482000Y-16040110D03*
D21*
X23114000Y-16002000D02*
X20828000Y-18288000D01*
X35851000Y-16002000D02*
X23114000Y-16002000D01*
X36380000Y-16531000D02*
X35851000Y-16002000D01*
X36380000Y-17712000D02*
X36380000Y-16531000D01*
X49716000Y-17712000D02*
X49784000Y-17780000D01*
X36380000Y-17712000D02*
X41588000Y-17712000D01*
X51054000Y-32512000D02*
X51562000Y-32004000D01*
X49276000Y-32512000D02*
X51054000Y-32512000D01*
X46550000Y-17712000D02*
X49716000Y-17712000D01*
X45788000Y-17712000D02*
X46550000Y-17712000D01*
X45466000Y-18796000D02*
X45466000Y-21336000D01*
X38925499Y-27876501D02*
X38608000Y-28194000D01*
X45466000Y-21336000D02*
X38925499Y-27876501D01*
X45466000Y-17898000D02*
X45652000Y-17712000D01*
X45652000Y-17712000D02*
X45788000Y-17712000D01*
X41588000Y-17712000D02*
X45652000Y-17712000D01*
X45486997Y-18521003D02*
X45466000Y-18542000D01*
X45866003Y-18521003D02*
X45486997Y-18521003D01*
X45466000Y-18542000D02*
X45466000Y-17898000D01*
X45466000Y-18796000D02*
X45466000Y-18542000D01*
X43714037Y-32512000D02*
X43185159Y-31983122D01*
X43185159Y-31983122D02*
X43185159Y-31534110D01*
X49276000Y-32512000D02*
X43714037Y-32512000D01*
X18288000Y-42569130D02*
X18288000Y-44450000D01*
X22860000Y-37997130D02*
X18288000Y-42569130D01*
X22860000Y-22860000D02*
X22860000Y-37997130D01*
X20828000Y-20828000D02*
X22860000Y-22860000D01*
X20828000Y-18288000D02*
X20828000Y-20828000D01*
D22*
X55055399Y-19495399D02*
X55055399Y-17383917D01*
X48230967Y-21678021D02*
X48230967Y-22127033D01*
X52578000Y-16764000D02*
X48230967Y-21111033D01*
X55055399Y-17383917D02*
X54435482Y-16764000D01*
X54435482Y-16764000D02*
X52578000Y-16764000D01*
X48230967Y-21111033D02*
X48230967Y-21678021D01*
X56134000Y-20574000D02*
X55055399Y-19495399D01*
X53848000Y-24638000D02*
X53848000Y-39116000D01*
X53848000Y-39116000D02*
X49022000Y-43942000D01*
X54864000Y-23622000D02*
X53848000Y-24638000D01*
X54864000Y-21844000D02*
X54864000Y-23622000D01*
X56134000Y-20574000D02*
X54864000Y-21844000D01*
X49784000Y-24384000D02*
X48006000Y-24384000D01*
X52236001Y-21931999D02*
X49784000Y-24384000D01*
X52236001Y-21931999D02*
X53594000Y-20574000D01*
X35560000Y-29210000D02*
X33845499Y-27495499D01*
X38608000Y-29210000D02*
X35560000Y-29210000D01*
X33845499Y-27495499D02*
X33528000Y-27178000D01*
X41656000Y-26162000D02*
X38608000Y-29210000D01*
X52540800Y-18034000D02*
X48777069Y-21797731D01*
X48578625Y-22570949D02*
X48261126Y-22888448D01*
X53594000Y-18034000D02*
X52540800Y-18034000D01*
X48777069Y-21797731D02*
X48777069Y-22372505D01*
X48777069Y-22372505D02*
X48578625Y-22570949D01*
X39878000Y-24130000D02*
X37338000Y-26670000D01*
X33782000Y-23309012D02*
X33782000Y-22860000D01*
X35306000Y-26670000D02*
X33782000Y-25146000D01*
X37338000Y-26670000D02*
X35306000Y-26670000D01*
X33782000Y-25146000D02*
X33782000Y-23309012D01*
X44344790Y-19558000D02*
X44704000Y-19558000D01*
X36380000Y-25332000D02*
X37783200Y-25332000D01*
X37783200Y-25332000D02*
X43557200Y-19558000D01*
X43557200Y-19558000D02*
X44344790Y-19558000D01*
X44640492Y-21529242D02*
X44640492Y-21080230D01*
X38737734Y-27432000D02*
X44640492Y-21529242D01*
X37220000Y-27432000D02*
X38737734Y-27432000D01*
X36780000Y-27872000D02*
X37220000Y-27432000D01*
X36380000Y-27872000D02*
X36780000Y-27872000D01*
X34861499Y-23685499D02*
X34544000Y-23368000D01*
X39370000Y-22352000D02*
X37592000Y-24130000D01*
X37592000Y-24130000D02*
X35306000Y-24130000D01*
X35306000Y-24130000D02*
X34861499Y-23685499D01*
X39438000Y-30412000D02*
X42926000Y-26924000D01*
X46697890Y-21023012D02*
X46697890Y-20574000D01*
X42926000Y-26924000D02*
X42926000Y-25908000D01*
X46697890Y-22136110D02*
X46697890Y-21023012D01*
X42926000Y-25908000D02*
X46697890Y-22136110D01*
X36380000Y-30412000D02*
X39438000Y-30412000D01*
X47498000Y-21844000D02*
X47498000Y-19033524D01*
X43434000Y-27301200D02*
X43434000Y-25908000D01*
X36380000Y-32952000D02*
X37783200Y-32952000D01*
X47498000Y-19033524D02*
X47498000Y-18584512D01*
X43434000Y-25908000D02*
X47498000Y-21844000D01*
X37783200Y-32952000D02*
X43434000Y-27301200D01*
X33782000Y-21590000D02*
X37846000Y-21590000D01*
X32766000Y-32278000D02*
X32766000Y-22606000D01*
X35980000Y-35492000D02*
X32766000Y-32278000D01*
X37846000Y-21590000D02*
X39116000Y-20320000D01*
X32766000Y-22606000D02*
X33782000Y-21590000D01*
X36380000Y-35492000D02*
X35980000Y-35492000D01*
X38608000Y-38744000D02*
X38608000Y-34290000D01*
X36780000Y-40572000D02*
X38608000Y-38744000D01*
X47024763Y-27076848D02*
X47473775Y-27076848D01*
X38608000Y-34290000D02*
X45821152Y-27076848D01*
X45821152Y-27076848D02*
X47024763Y-27076848D01*
X36380000Y-40572000D02*
X36780000Y-40572000D01*
X52070000Y-25400000D02*
X51308000Y-24638000D01*
X52070000Y-27432000D02*
X52070000Y-25400000D01*
X48514000Y-30988000D02*
X52070000Y-27432000D01*
X42672000Y-30988000D02*
X48514000Y-30988000D01*
X39116000Y-34544000D02*
X42672000Y-30988000D01*
X39116000Y-38862000D02*
X39116000Y-34544000D01*
X37846000Y-41402000D02*
X37846000Y-40132000D01*
X37338000Y-41910000D02*
X37846000Y-41402000D01*
X25908000Y-44450000D02*
X28448000Y-41910000D01*
X37846000Y-40132000D02*
X39116000Y-38862000D01*
X28448000Y-41910000D02*
X37338000Y-41910000D01*
X22098000Y-44450000D02*
X22098000Y-42328864D01*
X47621152Y-26416000D02*
X47916831Y-26711679D01*
X38100000Y-38608000D02*
X38100000Y-34036000D01*
X38100000Y-34036000D02*
X45720000Y-26416000D01*
X45720000Y-26416000D02*
X47621152Y-26416000D01*
X37338000Y-39370000D02*
X38100000Y-38608000D01*
X47916831Y-26711679D02*
X48234330Y-27029178D01*
X26834864Y-39370000D02*
X37338000Y-39370000D01*
X25056864Y-39370000D02*
X22098000Y-42328864D01*
X26834864Y-39370000D02*
X25056864Y-39370000D01*
X52578000Y-27686000D02*
X48514000Y-31750000D01*
X52578000Y-24638000D02*
X52578000Y-27686000D01*
X51816000Y-23876000D02*
X52578000Y-24638000D01*
X48514000Y-31750000D02*
X44301216Y-31750000D01*
X44301216Y-31750000D02*
X43942006Y-31750000D01*
X48006000Y-36463000D02*
X46087000Y-34544000D01*
X48006000Y-41910000D02*
X48006000Y-36463000D01*
X42418000Y-26416000D02*
X41465499Y-27368501D01*
X42418000Y-25908000D02*
X42418000Y-26416000D01*
X46101010Y-22224990D02*
X42418000Y-25908000D01*
X46101010Y-21231473D02*
X46101010Y-22224990D01*
X41465499Y-27368501D02*
X41148000Y-27686000D01*
X47536110Y-29171890D02*
X47185012Y-29171890D01*
X50292000Y-26416000D02*
X47536110Y-29171890D01*
X47185012Y-29171890D02*
X46736000Y-29171890D01*
X58166000Y-31496000D02*
X58166000Y-17526000D01*
X55626000Y-34036000D02*
X58166000Y-31496000D01*
X44293108Y-15494000D02*
X44196010Y-15591098D01*
X58166000Y-17526000D02*
X56388000Y-15748000D01*
X44196010Y-15591098D02*
X44196010Y-16040110D01*
X56388000Y-15748000D02*
X47244000Y-15748000D01*
X47244000Y-15748000D02*
X46990000Y-15494000D01*
X46990000Y-15494000D02*
X44293108Y-15494000D01*
X46799499Y-16357609D02*
X46482000Y-16040110D01*
X57658000Y-17526000D02*
X56489609Y-16357609D01*
X56489609Y-16357609D02*
X46799499Y-16357609D01*
X57658000Y-28194000D02*
X57658000Y-17526000D01*
X55626000Y-30226000D02*
X57658000Y-28194000D01*
G36*
X56047667Y-15129631D02*
G01*
X56697598Y-15325857D01*
X57297036Y-15644583D01*
X57823155Y-16073675D01*
X58255904Y-16596779D01*
X58578810Y-17193980D01*
X58779569Y-17842529D01*
X58852167Y-18533256D01*
X58852200Y-18542581D01*
X58852201Y-43163860D01*
X58784369Y-43855667D01*
X58588142Y-44505599D01*
X58269415Y-45105038D01*
X57840327Y-45631153D01*
X57317221Y-46063904D01*
X56720020Y-46386810D01*
X56071471Y-46587569D01*
X55380744Y-46660167D01*
X55371419Y-46660200D01*
X18050130Y-46660200D01*
X17358333Y-46592369D01*
X16708401Y-46396142D01*
X16108962Y-46077415D01*
X15582847Y-45648327D01*
X15150096Y-45125221D01*
X14827190Y-44528020D01*
X14626431Y-43879471D01*
X14553833Y-43188744D01*
X14553800Y-43179419D01*
X14553800Y-42950130D01*
X16481856Y-42950130D01*
X16481856Y-45949870D01*
X16487741Y-46009621D01*
X16505170Y-46067076D01*
X16533472Y-46120027D01*
X16571562Y-46166438D01*
X16617973Y-46204528D01*
X16670924Y-46232830D01*
X16728379Y-46250259D01*
X16788130Y-46256144D01*
X19787870Y-46256144D01*
X19847621Y-46250259D01*
X19905076Y-46232830D01*
X19958027Y-46204528D01*
X20004438Y-46166438D01*
X20042528Y-46120027D01*
X20070830Y-46067076D01*
X20088259Y-46009621D01*
X20094144Y-45949870D01*
X20094144Y-42950130D01*
X20088259Y-42890379D01*
X20070830Y-42832924D01*
X20042528Y-42779973D01*
X20004438Y-42733562D01*
X19958027Y-42695472D01*
X19905076Y-42667170D01*
X19847621Y-42649741D01*
X19787870Y-42643856D01*
X18913733Y-42643856D01*
X23193030Y-38364560D01*
X23211924Y-38349054D01*
X23246833Y-38306518D01*
X23273819Y-38273636D01*
X23309179Y-38207481D01*
X23319811Y-38187590D01*
X23348133Y-38094226D01*
X23355300Y-38021457D01*
X23355300Y-38021448D01*
X23357695Y-37997131D01*
X23355300Y-37972814D01*
X23355300Y-35492000D01*
X27249855Y-35492000D01*
X27271186Y-35708579D01*
X27334360Y-35916834D01*
X27436948Y-36108764D01*
X27575009Y-36276991D01*
X27743236Y-36415052D01*
X27935166Y-36517640D01*
X28143421Y-36580814D01*
X28305731Y-36596800D01*
X29214269Y-36596800D01*
X29376579Y-36580814D01*
X29584834Y-36517640D01*
X29776764Y-36415052D01*
X29944991Y-36276991D01*
X30083052Y-36108764D01*
X30185640Y-35916834D01*
X30248814Y-35708579D01*
X30270145Y-35492000D01*
X30248814Y-35275421D01*
X30185640Y-35067166D01*
X30083052Y-34875236D01*
X29944991Y-34707009D01*
X29776764Y-34568948D01*
X29584834Y-34466360D01*
X29376579Y-34403186D01*
X29214269Y-34387200D01*
X28305731Y-34387200D01*
X28143421Y-34403186D01*
X27935166Y-34466360D01*
X27743236Y-34568948D01*
X27575009Y-34707009D01*
X27436948Y-34875236D01*
X27334360Y-35067166D01*
X27271186Y-35275421D01*
X27249855Y-35492000D01*
X23355300Y-35492000D01*
X23355300Y-32952000D01*
X27249855Y-32952000D01*
X27271186Y-33168579D01*
X27334360Y-33376834D01*
X27436948Y-33568764D01*
X27575009Y-33736991D01*
X27743236Y-33875052D01*
X27935166Y-33977640D01*
X28143421Y-34040814D01*
X28305731Y-34056800D01*
X29214269Y-34056800D01*
X29376579Y-34040814D01*
X29584834Y-33977640D01*
X29776764Y-33875052D01*
X29944991Y-33736991D01*
X30083052Y-33568764D01*
X30185640Y-33376834D01*
X30248814Y-33168579D01*
X30270145Y-32952000D01*
X30248814Y-32735421D01*
X30185640Y-32527166D01*
X30083052Y-32335236D01*
X29944991Y-32167009D01*
X29776764Y-32028948D01*
X29584834Y-31926360D01*
X29376579Y-31863186D01*
X29214269Y-31847200D01*
X28305731Y-31847200D01*
X28143421Y-31863186D01*
X27935166Y-31926360D01*
X27743236Y-32028948D01*
X27575009Y-32167009D01*
X27436948Y-32335236D01*
X27334360Y-32527166D01*
X27271186Y-32735421D01*
X27249855Y-32952000D01*
X23355300Y-32952000D01*
X23355300Y-30412000D01*
X27249855Y-30412000D01*
X27271186Y-30628579D01*
X27334360Y-30836834D01*
X27436948Y-31028764D01*
X27575009Y-31196991D01*
X27743236Y-31335052D01*
X27935166Y-31437640D01*
X28143421Y-31500814D01*
X28305731Y-31516800D01*
X29214269Y-31516800D01*
X29376579Y-31500814D01*
X29584834Y-31437640D01*
X29776764Y-31335052D01*
X29944991Y-31196991D01*
X30083052Y-31028764D01*
X30185640Y-30836834D01*
X30248814Y-30628579D01*
X30270145Y-30412000D01*
X30248814Y-30195421D01*
X30185640Y-29987166D01*
X30083052Y-29795236D01*
X29944991Y-29627009D01*
X29776764Y-29488948D01*
X29584834Y-29386360D01*
X29376579Y-29323186D01*
X29214269Y-29307200D01*
X28305731Y-29307200D01*
X28143421Y-29323186D01*
X27935166Y-29386360D01*
X27743236Y-29488948D01*
X27575009Y-29627009D01*
X27436948Y-29795236D01*
X27334360Y-29987166D01*
X27271186Y-30195421D01*
X27249855Y-30412000D01*
X23355300Y-30412000D01*
X23355300Y-27872000D01*
X27249855Y-27872000D01*
X27271186Y-28088579D01*
X27334360Y-28296834D01*
X27436948Y-28488764D01*
X27575009Y-28656991D01*
X27743236Y-28795052D01*
X27935166Y-28897640D01*
X28143421Y-28960814D01*
X28305731Y-28976800D01*
X29214269Y-28976800D01*
X29376579Y-28960814D01*
X29584834Y-28897640D01*
X29776764Y-28795052D01*
X29944991Y-28656991D01*
X30083052Y-28488764D01*
X30185640Y-28296834D01*
X30248814Y-28088579D01*
X30270145Y-27872000D01*
X30248814Y-27655421D01*
X30185640Y-27447166D01*
X30083052Y-27255236D01*
X29944991Y-27087009D01*
X29776764Y-26948948D01*
X29584834Y-26846360D01*
X29376579Y-26783186D01*
X29214269Y-26767200D01*
X28305731Y-26767200D01*
X28143421Y-26783186D01*
X27935166Y-26846360D01*
X27743236Y-26948948D01*
X27575009Y-27087009D01*
X27436948Y-27255236D01*
X27334360Y-27447166D01*
X27271186Y-27655421D01*
X27249855Y-27872000D01*
X23355300Y-27872000D01*
X23355300Y-25332000D01*
X27249855Y-25332000D01*
X27271186Y-25548579D01*
X27334360Y-25756834D01*
X27436948Y-25948764D01*
X27575009Y-26116991D01*
X27743236Y-26255052D01*
X27935166Y-26357640D01*
X28143421Y-26420814D01*
X28305731Y-26436800D01*
X29214269Y-26436800D01*
X29376579Y-26420814D01*
X29584834Y-26357640D01*
X29776764Y-26255052D01*
X29944991Y-26116991D01*
X30083052Y-25948764D01*
X30185640Y-25756834D01*
X30248814Y-25548579D01*
X30270145Y-25332000D01*
X30248814Y-25115421D01*
X30185640Y-24907166D01*
X30083052Y-24715236D01*
X29944991Y-24547009D01*
X29776764Y-24408948D01*
X29584834Y-24306360D01*
X29376579Y-24243186D01*
X29214269Y-24227200D01*
X28305731Y-24227200D01*
X28143421Y-24243186D01*
X27935166Y-24306360D01*
X27743236Y-24408948D01*
X27575009Y-24547009D01*
X27436948Y-24715236D01*
X27334360Y-24907166D01*
X27271186Y-25115421D01*
X27249855Y-25332000D01*
X23355300Y-25332000D01*
X23355300Y-22884317D01*
X23357695Y-22860000D01*
X23355300Y-22835683D01*
X23355300Y-22835673D01*
X23350999Y-22792000D01*
X27249855Y-22792000D01*
X27271186Y-23008579D01*
X27334360Y-23216834D01*
X27436948Y-23408764D01*
X27575009Y-23576991D01*
X27743236Y-23715052D01*
X27935166Y-23817640D01*
X28143421Y-23880814D01*
X28305731Y-23896800D01*
X29214269Y-23896800D01*
X29376579Y-23880814D01*
X29584834Y-23817640D01*
X29776764Y-23715052D01*
X29944991Y-23576991D01*
X30083052Y-23408764D01*
X30185640Y-23216834D01*
X30248814Y-23008579D01*
X30270145Y-22792000D01*
X30248814Y-22575421D01*
X30185640Y-22367166D01*
X30083052Y-22175236D01*
X29944991Y-22007009D01*
X29776764Y-21868948D01*
X29584834Y-21766360D01*
X29376579Y-21703186D01*
X29214269Y-21687200D01*
X28305731Y-21687200D01*
X28143421Y-21703186D01*
X27935166Y-21766360D01*
X27743236Y-21868948D01*
X27575009Y-22007009D01*
X27436948Y-22175236D01*
X27334360Y-22367166D01*
X27271186Y-22575421D01*
X27249855Y-22792000D01*
X23350999Y-22792000D01*
X23348133Y-22762904D01*
X23319811Y-22669540D01*
X23273819Y-22583495D01*
X23235357Y-22536629D01*
X23227431Y-22526971D01*
X23227430Y-22526970D01*
X23211924Y-22508076D01*
X23193030Y-22492570D01*
X21323300Y-20622841D01*
X21323300Y-20252000D01*
X27249855Y-20252000D01*
X27271186Y-20468579D01*
X27334360Y-20676834D01*
X27436948Y-20868764D01*
X27575009Y-21036991D01*
X27743236Y-21175052D01*
X27935166Y-21277640D01*
X28143421Y-21340814D01*
X28305731Y-21356800D01*
X29214269Y-21356800D01*
X29376579Y-21340814D01*
X29584834Y-21277640D01*
X29776764Y-21175052D01*
X29944991Y-21036991D01*
X30083052Y-20868764D01*
X30185640Y-20676834D01*
X30248814Y-20468579D01*
X30270145Y-20252000D01*
X30248814Y-20035421D01*
X30185640Y-19827166D01*
X30083052Y-19635236D01*
X29944991Y-19467009D01*
X29776764Y-19328948D01*
X29584834Y-19226360D01*
X29376579Y-19163186D01*
X29214269Y-19147200D01*
X28305731Y-19147200D01*
X28143421Y-19163186D01*
X27935166Y-19226360D01*
X27743236Y-19328948D01*
X27575009Y-19467009D01*
X27436948Y-19635236D01*
X27334360Y-19827166D01*
X27271186Y-20035421D01*
X27249855Y-20252000D01*
X21323300Y-20252000D01*
X21323300Y-19594274D01*
X21828000Y-19594274D01*
X21887751Y-19588389D01*
X21945206Y-19570960D01*
X21998157Y-19542658D01*
X22044568Y-19504568D01*
X22082658Y-19458157D01*
X22110960Y-19405206D01*
X22128389Y-19347751D01*
X22134274Y-19288000D01*
X22134274Y-18512000D01*
X27253725Y-18512000D01*
X27259610Y-18571751D01*
X27277039Y-18629206D01*
X27305342Y-18682157D01*
X27343431Y-18728569D01*
X27389843Y-18766658D01*
X27442794Y-18794961D01*
X27500249Y-18812390D01*
X27560000Y-18818275D01*
X28594900Y-18816800D01*
X28671100Y-18740600D01*
X28671100Y-17800900D01*
X28848900Y-17800900D01*
X28848900Y-18740600D01*
X28925100Y-18816800D01*
X29960000Y-18818275D01*
X30019751Y-18812390D01*
X30077206Y-18794961D01*
X30130157Y-18766658D01*
X30176569Y-18728569D01*
X30214658Y-18682157D01*
X30242961Y-18629206D01*
X30260390Y-18571751D01*
X30266275Y-18512000D01*
X30264800Y-17877100D01*
X30188600Y-17800900D01*
X28848900Y-17800900D01*
X28671100Y-17800900D01*
X27331400Y-17800900D01*
X27255200Y-17877100D01*
X27253725Y-18512000D01*
X22134274Y-18512000D01*
X22134274Y-17682185D01*
X22904459Y-16912000D01*
X27253725Y-16912000D01*
X27255200Y-17546900D01*
X27331400Y-17623100D01*
X28671100Y-17623100D01*
X28671100Y-16683400D01*
X28848900Y-16683400D01*
X28848900Y-17623100D01*
X30188600Y-17623100D01*
X30264800Y-17546900D01*
X30266275Y-16912000D01*
X30260390Y-16852249D01*
X30242961Y-16794794D01*
X30214658Y-16741843D01*
X30176569Y-16695431D01*
X30130157Y-16657342D01*
X30077206Y-16629039D01*
X30019751Y-16611610D01*
X29960000Y-16605725D01*
X28925100Y-16607200D01*
X28848900Y-16683400D01*
X28671100Y-16683400D01*
X28594900Y-16607200D01*
X27560000Y-16605725D01*
X27500249Y-16611610D01*
X27442794Y-16629039D01*
X27389843Y-16657342D01*
X27343431Y-16695431D01*
X27305342Y-16741843D01*
X27277039Y-16794794D01*
X27259610Y-16852249D01*
X27253725Y-16912000D01*
X22904459Y-16912000D01*
X23319160Y-16497300D01*
X35645841Y-16497300D01*
X35770982Y-16622441D01*
X35763421Y-16623186D01*
X35555166Y-16686360D01*
X35363236Y-16788948D01*
X35195009Y-16927009D01*
X35056948Y-17095236D01*
X34954360Y-17287166D01*
X34891186Y-17495421D01*
X34869855Y-17712000D01*
X34891186Y-17928579D01*
X34954360Y-18136834D01*
X35056948Y-18328764D01*
X35195009Y-18496991D01*
X35363236Y-18635052D01*
X35555166Y-18737640D01*
X35763421Y-18800814D01*
X35925731Y-18816800D01*
X36834269Y-18816800D01*
X36996579Y-18800814D01*
X37204834Y-18737640D01*
X37396764Y-18635052D01*
X37564991Y-18496991D01*
X37703052Y-18328764D01*
X37767975Y-18207300D01*
X41209158Y-18207300D01*
X41293230Y-18263475D01*
X41406482Y-18310385D01*
X41526709Y-18334300D01*
X41649291Y-18334300D01*
X41769518Y-18310385D01*
X41882770Y-18263475D01*
X41966842Y-18207300D01*
X44970701Y-18207300D01*
X44970700Y-18517672D01*
X44970700Y-18517683D01*
X44968305Y-18542000D01*
X44970700Y-18566317D01*
X44970700Y-18994898D01*
X44885518Y-18959615D01*
X44765291Y-18935700D01*
X44642709Y-18935700D01*
X44522482Y-18959615D01*
X44409230Y-19006525D01*
X44307307Y-19074628D01*
X44230335Y-19151600D01*
X43577152Y-19151600D01*
X43557199Y-19149635D01*
X43537246Y-19151600D01*
X43537240Y-19151600D01*
X43485535Y-19156693D01*
X43477531Y-19157481D01*
X43464919Y-19161307D01*
X43400925Y-19180719D01*
X43330324Y-19218456D01*
X43268442Y-19269242D01*
X43255718Y-19284746D01*
X39941119Y-22599345D01*
X39968385Y-22533518D01*
X39992300Y-22413291D01*
X39992300Y-22290709D01*
X39968385Y-22170482D01*
X39921475Y-22057230D01*
X39853372Y-21955307D01*
X39766693Y-21868628D01*
X39664770Y-21800525D01*
X39551518Y-21753615D01*
X39431291Y-21729700D01*
X39308709Y-21729700D01*
X39188482Y-21753615D01*
X39075230Y-21800525D01*
X38973307Y-21868628D01*
X38886628Y-21955307D01*
X38818525Y-22057230D01*
X38771615Y-22170482D01*
X38747700Y-22290709D01*
X38747700Y-22399563D01*
X37423664Y-23723600D01*
X37380772Y-23723600D01*
X37396764Y-23715052D01*
X37564991Y-23576991D01*
X37703052Y-23408764D01*
X37805640Y-23216834D01*
X37868814Y-23008579D01*
X37890145Y-22792000D01*
X37868814Y-22575421D01*
X37805640Y-22367166D01*
X37703052Y-22175236D01*
X37564991Y-22007009D01*
X37552064Y-21996400D01*
X37826047Y-21996400D01*
X37846000Y-21998365D01*
X37865953Y-21996400D01*
X37865960Y-21996400D01*
X37925668Y-21990519D01*
X38002275Y-21967281D01*
X38072876Y-21929544D01*
X38134758Y-21878758D01*
X38147482Y-21863254D01*
X39068436Y-20942300D01*
X39177291Y-20942300D01*
X39297518Y-20918385D01*
X39410770Y-20871475D01*
X39512693Y-20803372D01*
X39599372Y-20716693D01*
X39667475Y-20614770D01*
X39714385Y-20501518D01*
X39738300Y-20381291D01*
X39738300Y-20258709D01*
X39714385Y-20138482D01*
X39667475Y-20025230D01*
X39599372Y-19923307D01*
X39512693Y-19836628D01*
X39410770Y-19768525D01*
X39297518Y-19721615D01*
X39177291Y-19697700D01*
X39054709Y-19697700D01*
X38934482Y-19721615D01*
X38821230Y-19768525D01*
X38719307Y-19836628D01*
X38632628Y-19923307D01*
X38564525Y-20025230D01*
X38517615Y-20138482D01*
X38493700Y-20258709D01*
X38493700Y-20367564D01*
X37677664Y-21183600D01*
X37380772Y-21183600D01*
X37396764Y-21175052D01*
X37564991Y-21036991D01*
X37703052Y-20868764D01*
X37805640Y-20676834D01*
X37868814Y-20468579D01*
X37890145Y-20252000D01*
X37868814Y-20035421D01*
X37805640Y-19827166D01*
X37703052Y-19635236D01*
X37564991Y-19467009D01*
X37396764Y-19328948D01*
X37204834Y-19226360D01*
X36996579Y-19163186D01*
X36834269Y-19147200D01*
X35925731Y-19147200D01*
X35763421Y-19163186D01*
X35555166Y-19226360D01*
X35363236Y-19328948D01*
X35195009Y-19467009D01*
X35056948Y-19635236D01*
X34954360Y-19827166D01*
X34891186Y-20035421D01*
X34869855Y-20252000D01*
X34891186Y-20468579D01*
X34954360Y-20676834D01*
X35056948Y-20868764D01*
X35195009Y-21036991D01*
X35363236Y-21175052D01*
X35379228Y-21183600D01*
X33801953Y-21183600D01*
X33782000Y-21181635D01*
X33762047Y-21183600D01*
X33762040Y-21183600D01*
X33709604Y-21188765D01*
X33702331Y-21189481D01*
X33679852Y-21196300D01*
X33625725Y-21212719D01*
X33555124Y-21250456D01*
X33531730Y-21269655D01*
X33508745Y-21288518D01*
X33508740Y-21288523D01*
X33493242Y-21301242D01*
X33480522Y-21316741D01*
X32492741Y-22304523D01*
X32477243Y-22317242D01*
X32464524Y-22332740D01*
X32464518Y-22332746D01*
X32455222Y-22344074D01*
X32426457Y-22379124D01*
X32410293Y-22409365D01*
X32388719Y-22449726D01*
X32365481Y-22526332D01*
X32357635Y-22606000D01*
X32359601Y-22625963D01*
X32359600Y-32258047D01*
X32357635Y-32278000D01*
X32359600Y-32297953D01*
X32359600Y-32297959D01*
X32363253Y-32335046D01*
X32365481Y-32357668D01*
X32382843Y-32414904D01*
X32388719Y-32434274D01*
X32426456Y-32504875D01*
X32477242Y-32566758D01*
X32492746Y-32579482D01*
X34963441Y-35050177D01*
X34954360Y-35067166D01*
X34891186Y-35275421D01*
X34869855Y-35492000D01*
X34891186Y-35708579D01*
X34954360Y-35916834D01*
X35056948Y-36108764D01*
X35195009Y-36276991D01*
X35363236Y-36415052D01*
X35555166Y-36517640D01*
X35763421Y-36580814D01*
X35925731Y-36596800D01*
X36834269Y-36596800D01*
X36996579Y-36580814D01*
X37204834Y-36517640D01*
X37396764Y-36415052D01*
X37564991Y-36276991D01*
X37693601Y-36120281D01*
X37693600Y-37403719D01*
X37564991Y-37247009D01*
X37396764Y-37108948D01*
X37204834Y-37006360D01*
X36996579Y-36943186D01*
X36834269Y-36927200D01*
X35925731Y-36927200D01*
X35763421Y-36943186D01*
X35555166Y-37006360D01*
X35363236Y-37108948D01*
X35195009Y-37247009D01*
X35056948Y-37415236D01*
X34954360Y-37607166D01*
X34891186Y-37815421D01*
X34869855Y-38032000D01*
X34891186Y-38248579D01*
X34954360Y-38456834D01*
X35056948Y-38648764D01*
X35195009Y-38816991D01*
X35363236Y-38955052D01*
X35379228Y-38963600D01*
X29760772Y-38963600D01*
X29776764Y-38955052D01*
X29944991Y-38816991D01*
X30083052Y-38648764D01*
X30185640Y-38456834D01*
X30248814Y-38248579D01*
X30270145Y-38032000D01*
X30248814Y-37815421D01*
X30185640Y-37607166D01*
X30083052Y-37415236D01*
X29944991Y-37247009D01*
X29776764Y-37108948D01*
X29584834Y-37006360D01*
X29376579Y-36943186D01*
X29214269Y-36927200D01*
X28305731Y-36927200D01*
X28143421Y-36943186D01*
X27935166Y-37006360D01*
X27743236Y-37108948D01*
X27575009Y-37247009D01*
X27436948Y-37415236D01*
X27334360Y-37607166D01*
X27271186Y-37815421D01*
X27249855Y-38032000D01*
X27271186Y-38248579D01*
X27334360Y-38456834D01*
X27436948Y-38648764D01*
X27575009Y-38816991D01*
X27743236Y-38955052D01*
X27759228Y-38963600D01*
X25076817Y-38963600D01*
X25056864Y-38961635D01*
X25036911Y-38963600D01*
X25036904Y-38963600D01*
X24984468Y-38968765D01*
X24977195Y-38969481D01*
X24925109Y-38985281D01*
X24900589Y-38992719D01*
X24829988Y-39030456D01*
X24804610Y-39051283D01*
X24783609Y-39068518D01*
X24783604Y-39068523D01*
X24768106Y-39081242D01*
X24755387Y-39096740D01*
X21824741Y-42027387D01*
X21809243Y-42040106D01*
X21796524Y-42055604D01*
X21796518Y-42055610D01*
X21783532Y-42071434D01*
X21758457Y-42101988D01*
X21754539Y-42109319D01*
X21720719Y-42172590D01*
X21697481Y-42249196D01*
X21689635Y-42328864D01*
X21691601Y-42348827D01*
X21691601Y-42690812D01*
X21571597Y-42714682D01*
X21243168Y-42850722D01*
X20947590Y-43048221D01*
X20696221Y-43299590D01*
X20498722Y-43595168D01*
X20362682Y-43923597D01*
X20293330Y-44272256D01*
X20293330Y-44627744D01*
X20362682Y-44976403D01*
X20498722Y-45304832D01*
X20696221Y-45600410D01*
X20947590Y-45851779D01*
X21243168Y-46049278D01*
X21571597Y-46185318D01*
X21920256Y-46254670D01*
X22275744Y-46254670D01*
X22624403Y-46185318D01*
X22952832Y-46049278D01*
X23248410Y-45851779D01*
X23499779Y-45600410D01*
X23697278Y-45304832D01*
X23833318Y-44976403D01*
X23902670Y-44627744D01*
X23902670Y-44272256D01*
X23833318Y-43923597D01*
X23697278Y-43595168D01*
X23499779Y-43299590D01*
X23248410Y-43048221D01*
X22952832Y-42850722D01*
X22624403Y-42714682D01*
X22504400Y-42690812D01*
X22504400Y-42497200D01*
X25225201Y-39776400D01*
X27587936Y-39776400D01*
X27575009Y-39787009D01*
X27436948Y-39955236D01*
X27334360Y-40147166D01*
X27271186Y-40355421D01*
X27249855Y-40572000D01*
X27271186Y-40788579D01*
X27334360Y-40996834D01*
X27436948Y-41188764D01*
X27575009Y-41356991D01*
X27743236Y-41495052D01*
X27935166Y-41597640D01*
X28127331Y-41655933D01*
X26864566Y-42918698D01*
X26762832Y-42850722D01*
X26434403Y-42714682D01*
X26085744Y-42645330D01*
X25730256Y-42645330D01*
X25381597Y-42714682D01*
X25053168Y-42850722D01*
X24757590Y-43048221D01*
X24506221Y-43299590D01*
X24308722Y-43595168D01*
X24172682Y-43923597D01*
X24103330Y-44272256D01*
X24103330Y-44627744D01*
X24172682Y-44976403D01*
X24308722Y-45304832D01*
X24506221Y-45600410D01*
X24757590Y-45851779D01*
X25053168Y-46049278D01*
X25381597Y-46185318D01*
X25730256Y-46254670D01*
X26085744Y-46254670D01*
X26434403Y-46185318D01*
X26762832Y-46049278D01*
X27058410Y-45851779D01*
X27170549Y-45739640D01*
X28554084Y-45739640D01*
X28725312Y-45967564D01*
X29040448Y-46132068D01*
X29381622Y-46231932D01*
X29735724Y-46263317D01*
X30089143Y-46225016D01*
X30428300Y-46118503D01*
X30710688Y-45967564D01*
X30881916Y-45739640D01*
X29718000Y-44575724D01*
X28554084Y-45739640D01*
X27170549Y-45739640D01*
X27309779Y-45600410D01*
X27507278Y-45304832D01*
X27643318Y-44976403D01*
X27712670Y-44627744D01*
X27712670Y-44467724D01*
X27904683Y-44467724D01*
X27942984Y-44821143D01*
X28049497Y-45160300D01*
X28200436Y-45442688D01*
X28428360Y-45613916D01*
X29592276Y-44450000D01*
X29843724Y-44450000D01*
X31007640Y-45613916D01*
X31235564Y-45442688D01*
X31400068Y-45127552D01*
X31499932Y-44786378D01*
X31531317Y-44432276D01*
X31511305Y-44247614D01*
X32743140Y-44247614D01*
X32743140Y-44652386D01*
X32822107Y-45049381D01*
X32977006Y-45423341D01*
X33201886Y-45759897D01*
X33488103Y-46046114D01*
X33824659Y-46270994D01*
X34198619Y-46425893D01*
X34595614Y-46504860D01*
X35000386Y-46504860D01*
X35397381Y-46425893D01*
X35771341Y-46270994D01*
X36107897Y-46046114D01*
X36394114Y-45759897D01*
X36618994Y-45423341D01*
X36773893Y-45049381D01*
X36852860Y-44652386D01*
X36852860Y-44247614D01*
X36773893Y-43850619D01*
X36618994Y-43476659D01*
X36394114Y-43140103D01*
X36107897Y-42853886D01*
X35771341Y-42629006D01*
X35397381Y-42474107D01*
X35000386Y-42395140D01*
X34595614Y-42395140D01*
X34198619Y-42474107D01*
X33824659Y-42629006D01*
X33488103Y-42853886D01*
X33201886Y-43140103D01*
X32977006Y-43476659D01*
X32822107Y-43850619D01*
X32743140Y-44247614D01*
X31511305Y-44247614D01*
X31493016Y-44078857D01*
X31386503Y-43739700D01*
X31235564Y-43457312D01*
X31007640Y-43286084D01*
X29843724Y-44450000D01*
X29592276Y-44450000D01*
X28428360Y-43286084D01*
X28200436Y-43457312D01*
X28035932Y-43772448D01*
X27936068Y-44113622D01*
X27904683Y-44467724D01*
X27712670Y-44467724D01*
X27712670Y-44272256D01*
X27643318Y-43923597D01*
X27507278Y-43595168D01*
X27439302Y-43493434D01*
X27772376Y-43160360D01*
X28554084Y-43160360D01*
X29718000Y-44324276D01*
X30881916Y-43160360D01*
X30710688Y-42932436D01*
X30395552Y-42767932D01*
X30054378Y-42668068D01*
X29700276Y-42636683D01*
X29346857Y-42674984D01*
X29007700Y-42781497D01*
X28725312Y-42932436D01*
X28554084Y-43160360D01*
X27772376Y-43160360D01*
X28616336Y-42316400D01*
X37318047Y-42316400D01*
X37338000Y-42318365D01*
X37357953Y-42316400D01*
X37357960Y-42316400D01*
X37417668Y-42310519D01*
X37494275Y-42287281D01*
X37564876Y-42249544D01*
X37626758Y-42198758D01*
X37639482Y-42183254D01*
X38119255Y-41703481D01*
X38134758Y-41690758D01*
X38185544Y-41628876D01*
X38223281Y-41558275D01*
X38246519Y-41481668D01*
X38252400Y-41421960D01*
X38252400Y-41421954D01*
X38254365Y-41402001D01*
X38252836Y-41386474D01*
X38416308Y-41631127D01*
X38632873Y-41847692D01*
X38887526Y-42017846D01*
X39170482Y-42135050D01*
X39470866Y-42194800D01*
X39777134Y-42194800D01*
X40077518Y-42135050D01*
X40360474Y-42017846D01*
X40615127Y-41847692D01*
X40831692Y-41631127D01*
X41001846Y-41376474D01*
X41119050Y-41093518D01*
X41178800Y-40793134D01*
X41178800Y-40486866D01*
X41119050Y-40186482D01*
X41001846Y-39903526D01*
X40831692Y-39648873D01*
X40615127Y-39432308D01*
X40360474Y-39262154D01*
X40077518Y-39144950D01*
X39777134Y-39085200D01*
X39470866Y-39085200D01*
X39455920Y-39088173D01*
X39493281Y-39018275D01*
X39516519Y-38941668D01*
X39522400Y-38881960D01*
X39522400Y-38881954D01*
X39524365Y-38862001D01*
X39522400Y-38842048D01*
X39522400Y-34712336D01*
X39752027Y-34482709D01*
X45464700Y-34482709D01*
X45464700Y-34605291D01*
X45488615Y-34725518D01*
X45535525Y-34838770D01*
X45603628Y-34940693D01*
X45690307Y-35027372D01*
X45792230Y-35095475D01*
X45905482Y-35142385D01*
X46025709Y-35166300D01*
X46134564Y-35166300D01*
X47599601Y-36631338D01*
X47599600Y-40405578D01*
X47552482Y-40414950D01*
X47269526Y-40532154D01*
X47014873Y-40702308D01*
X46798308Y-40918873D01*
X46628154Y-41173526D01*
X46510950Y-41456482D01*
X46451200Y-41756866D01*
X46451200Y-42063134D01*
X46510950Y-42363518D01*
X46628154Y-42646474D01*
X46798308Y-42901127D01*
X47014873Y-43117692D01*
X47269526Y-43287846D01*
X47552482Y-43405050D01*
X47852866Y-43464800D01*
X48159134Y-43464800D01*
X48459518Y-43405050D01*
X48742474Y-43287846D01*
X48997127Y-43117692D01*
X49213692Y-42901127D01*
X49383846Y-42646474D01*
X49501050Y-42363518D01*
X49560800Y-42063134D01*
X49560800Y-41756866D01*
X49501050Y-41456482D01*
X49383846Y-41173526D01*
X49213692Y-40918873D01*
X48997127Y-40702308D01*
X48742474Y-40532154D01*
X48459518Y-40414950D01*
X48412400Y-40405578D01*
X48412400Y-36482953D01*
X48414365Y-36463000D01*
X48412400Y-36443047D01*
X48412400Y-36443040D01*
X48406519Y-36383332D01*
X48383281Y-36306725D01*
X48345544Y-36236124D01*
X48324717Y-36210746D01*
X48307482Y-36189745D01*
X48307477Y-36189740D01*
X48294758Y-36174242D01*
X48279260Y-36161523D01*
X46709300Y-34591564D01*
X46709300Y-34482709D01*
X46685385Y-34362482D01*
X46638475Y-34249230D01*
X46570372Y-34147307D01*
X46483693Y-34060628D01*
X46381770Y-33992525D01*
X46268518Y-33945615D01*
X46148291Y-33921700D01*
X46025709Y-33921700D01*
X45905482Y-33945615D01*
X45792230Y-33992525D01*
X45690307Y-34060628D01*
X45603628Y-34147307D01*
X45535525Y-34249230D01*
X45488615Y-34362482D01*
X45464700Y-34482709D01*
X39752027Y-34482709D01*
X42575547Y-31659189D01*
X42586774Y-31715628D01*
X42633684Y-31828880D01*
X42689859Y-31912952D01*
X42689859Y-31958805D01*
X42687464Y-31983122D01*
X42689859Y-32007439D01*
X42689859Y-32007448D01*
X42697026Y-32080217D01*
X42725348Y-32173581D01*
X42771340Y-32259627D01*
X42833235Y-32335046D01*
X42852134Y-32350556D01*
X43346607Y-32845030D01*
X43362113Y-32863924D01*
X43381007Y-32879430D01*
X43381008Y-32879431D01*
X43437531Y-32925819D01*
X43483523Y-32950402D01*
X43523577Y-32971811D01*
X43616941Y-33000133D01*
X43689710Y-33007300D01*
X43689719Y-33007300D01*
X43714036Y-33009695D01*
X43738353Y-33007300D01*
X48897158Y-33007300D01*
X48981230Y-33063475D01*
X49094482Y-33110385D01*
X49214709Y-33134300D01*
X49337291Y-33134300D01*
X49457518Y-33110385D01*
X49570770Y-33063475D01*
X49654842Y-33007300D01*
X51029683Y-33007300D01*
X51054000Y-33009695D01*
X51078317Y-33007300D01*
X51078327Y-33007300D01*
X51151096Y-33000133D01*
X51244460Y-32971811D01*
X51330505Y-32925819D01*
X51405924Y-32863924D01*
X51421434Y-32845025D01*
X51644348Y-32622111D01*
X51743518Y-32602385D01*
X51856770Y-32555475D01*
X51958693Y-32487372D01*
X52045372Y-32400693D01*
X52113475Y-32298770D01*
X52160385Y-32185518D01*
X52184300Y-32065291D01*
X52184300Y-31942709D01*
X52160385Y-31822482D01*
X52113475Y-31709230D01*
X52045372Y-31607307D01*
X51958693Y-31520628D01*
X51856770Y-31452525D01*
X51743518Y-31405615D01*
X51623291Y-31381700D01*
X51500709Y-31381700D01*
X51380482Y-31405615D01*
X51267230Y-31452525D01*
X51165307Y-31520628D01*
X51078628Y-31607307D01*
X51010525Y-31709230D01*
X50963615Y-31822482D01*
X50943889Y-31921652D01*
X50848841Y-32016700D01*
X49654842Y-32016700D01*
X49570770Y-31960525D01*
X49457518Y-31913615D01*
X49337291Y-31889700D01*
X49214709Y-31889700D01*
X49094482Y-31913615D01*
X48981230Y-31960525D01*
X48897158Y-32016700D01*
X48822036Y-32016700D01*
X52851260Y-27987477D01*
X52866758Y-27974758D01*
X52879477Y-27959260D01*
X52879482Y-27959255D01*
X52913752Y-27917496D01*
X52917544Y-27912876D01*
X52955281Y-27842275D01*
X52963033Y-27816719D01*
X52978519Y-27765669D01*
X52981689Y-27733482D01*
X52984400Y-27705960D01*
X52984400Y-27705953D01*
X52986365Y-27686000D01*
X52984400Y-27666047D01*
X52984400Y-24657953D01*
X52986365Y-24638000D01*
X52984400Y-24618047D01*
X52984400Y-24618040D01*
X52978519Y-24558332D01*
X52975085Y-24547009D01*
X52955281Y-24481725D01*
X52948770Y-24469544D01*
X52917544Y-24411124D01*
X52895284Y-24384000D01*
X52879482Y-24364745D01*
X52879477Y-24364740D01*
X52866758Y-24349242D01*
X52851261Y-24336524D01*
X52438300Y-23923564D01*
X52438300Y-23814709D01*
X52414385Y-23694482D01*
X52367475Y-23581230D01*
X52299372Y-23479307D01*
X52212693Y-23392628D01*
X52110770Y-23324525D01*
X51997518Y-23277615D01*
X51877291Y-23253700D01*
X51754709Y-23253700D01*
X51634482Y-23277615D01*
X51521230Y-23324525D01*
X51419307Y-23392628D01*
X51332628Y-23479307D01*
X51264525Y-23581230D01*
X51217615Y-23694482D01*
X51193700Y-23814709D01*
X51193700Y-23937291D01*
X51210721Y-24022859D01*
X51126482Y-24039615D01*
X51013230Y-24086525D01*
X50911307Y-24154628D01*
X50824628Y-24241307D01*
X50756525Y-24343230D01*
X50709615Y-24456482D01*
X50685700Y-24576709D01*
X50685700Y-24699291D01*
X50709615Y-24819518D01*
X50752895Y-24924006D01*
X50745518Y-24920950D01*
X50445134Y-24861200D01*
X50138866Y-24861200D01*
X49838482Y-24920950D01*
X49555526Y-25038154D01*
X49300873Y-25208308D01*
X49084308Y-25424873D01*
X48914154Y-25679526D01*
X48796950Y-25962482D01*
X48737200Y-26262866D01*
X48737200Y-26569134D01*
X48763407Y-26700888D01*
X48717702Y-26632485D01*
X48631023Y-26545806D01*
X48529100Y-26477703D01*
X48415848Y-26430793D01*
X48295621Y-26406878D01*
X48186766Y-26406878D01*
X47922634Y-26142746D01*
X47909910Y-26127242D01*
X47848028Y-26076456D01*
X47777427Y-26038719D01*
X47700820Y-26015481D01*
X47641112Y-26009600D01*
X47641105Y-26009600D01*
X47621152Y-26007635D01*
X47601199Y-26009600D01*
X45739952Y-26009600D01*
X45719999Y-26007635D01*
X45700046Y-26009600D01*
X45700040Y-26009600D01*
X45648335Y-26014693D01*
X45640331Y-26015481D01*
X45617093Y-26022530D01*
X45563725Y-26038719D01*
X45493124Y-26076456D01*
X45431242Y-26127242D01*
X45418518Y-26142746D01*
X37826741Y-33734523D01*
X37811243Y-33747242D01*
X37798524Y-33762740D01*
X37798518Y-33762746D01*
X37777549Y-33788298D01*
X37760457Y-33809124D01*
X37740286Y-33846862D01*
X37722719Y-33879726D01*
X37699481Y-33956332D01*
X37691635Y-34036000D01*
X37693601Y-34055963D01*
X37693601Y-34863720D01*
X37564991Y-34707009D01*
X37396764Y-34568948D01*
X37204834Y-34466360D01*
X36996579Y-34403186D01*
X36834269Y-34387200D01*
X35925731Y-34387200D01*
X35763421Y-34403186D01*
X35555166Y-34466360D01*
X35538177Y-34475441D01*
X33172400Y-32109664D01*
X33172400Y-27688830D01*
X33233230Y-27729475D01*
X33346482Y-27776385D01*
X33466709Y-27800300D01*
X33575564Y-27800300D01*
X35258523Y-29483260D01*
X35271242Y-29498758D01*
X35286740Y-29511477D01*
X35286745Y-29511482D01*
X35307746Y-29528717D01*
X35311262Y-29531602D01*
X35195009Y-29627009D01*
X35056948Y-29795236D01*
X34954360Y-29987166D01*
X34891186Y-30195421D01*
X34869855Y-30412000D01*
X34891186Y-30628579D01*
X34954360Y-30836834D01*
X35056948Y-31028764D01*
X35195009Y-31196991D01*
X35363236Y-31335052D01*
X35555166Y-31437640D01*
X35763421Y-31500814D01*
X35925731Y-31516800D01*
X36834269Y-31516800D01*
X36996579Y-31500814D01*
X37204834Y-31437640D01*
X37396764Y-31335052D01*
X37564991Y-31196991D01*
X37703052Y-31028764D01*
X37805640Y-30836834D01*
X37811232Y-30818400D01*
X39342064Y-30818400D01*
X37745609Y-32414855D01*
X37703052Y-32335236D01*
X37564991Y-32167009D01*
X37396764Y-32028948D01*
X37204834Y-31926360D01*
X36996579Y-31863186D01*
X36834269Y-31847200D01*
X35925731Y-31847200D01*
X35763421Y-31863186D01*
X35555166Y-31926360D01*
X35363236Y-32028948D01*
X35195009Y-32167009D01*
X35056948Y-32335236D01*
X34954360Y-32527166D01*
X34891186Y-32735421D01*
X34869855Y-32952000D01*
X34891186Y-33168579D01*
X34954360Y-33376834D01*
X35056948Y-33568764D01*
X35195009Y-33736991D01*
X35363236Y-33875052D01*
X35555166Y-33977640D01*
X35763421Y-34040814D01*
X35925731Y-34056800D01*
X36834269Y-34056800D01*
X36996579Y-34040814D01*
X37204834Y-33977640D01*
X37396764Y-33875052D01*
X37564991Y-33736991D01*
X37703052Y-33568764D01*
X37805640Y-33376834D01*
X37811481Y-33357580D01*
X37862868Y-33352519D01*
X37939475Y-33329281D01*
X38010076Y-33291544D01*
X38071958Y-33240758D01*
X38084682Y-33225254D01*
X43707261Y-27602676D01*
X43722758Y-27589958D01*
X43735477Y-27574460D01*
X43735482Y-27574455D01*
X43752717Y-27553454D01*
X43773544Y-27528076D01*
X43811281Y-27457475D01*
X43820868Y-27425871D01*
X43834519Y-27380869D01*
X43836622Y-27359518D01*
X43840400Y-27321160D01*
X43840400Y-27321153D01*
X43842365Y-27301200D01*
X43840400Y-27281247D01*
X43840400Y-26076336D01*
X45594027Y-24322709D01*
X47383700Y-24322709D01*
X47383700Y-24445291D01*
X47407615Y-24565518D01*
X47454525Y-24678770D01*
X47522628Y-24780693D01*
X47609307Y-24867372D01*
X47711230Y-24935475D01*
X47824482Y-24982385D01*
X47944709Y-25006300D01*
X48067291Y-25006300D01*
X48187518Y-24982385D01*
X48300770Y-24935475D01*
X48402693Y-24867372D01*
X48479665Y-24790400D01*
X49764047Y-24790400D01*
X49784000Y-24792365D01*
X49803953Y-24790400D01*
X49803960Y-24790400D01*
X49863668Y-24784519D01*
X49940275Y-24761281D01*
X50010876Y-24723544D01*
X50072758Y-24672758D01*
X50085482Y-24657254D01*
X52537482Y-22205254D01*
X53115231Y-21627506D01*
X53149939Y-21646058D01*
X53367620Y-21712090D01*
X53537276Y-21728800D01*
X53650724Y-21728800D01*
X53820380Y-21712090D01*
X54038061Y-21646058D01*
X54238676Y-21538827D01*
X54414518Y-21394518D01*
X54558827Y-21218676D01*
X54666058Y-21018061D01*
X54732090Y-20800380D01*
X54754387Y-20574000D01*
X54732090Y-20347620D01*
X54666058Y-20129939D01*
X54558827Y-19929324D01*
X54414518Y-19753482D01*
X54238676Y-19609173D01*
X54038061Y-19501942D01*
X53820380Y-19435910D01*
X53650724Y-19419200D01*
X53537276Y-19419200D01*
X53367620Y-19435910D01*
X53149939Y-19501942D01*
X52949324Y-19609173D01*
X52773482Y-19753482D01*
X52629173Y-19929324D01*
X52521942Y-20129939D01*
X52455910Y-20347620D01*
X52433613Y-20574000D01*
X52455910Y-20800380D01*
X52521942Y-21018061D01*
X52540494Y-21052769D01*
X51962746Y-21630518D01*
X49615664Y-23977600D01*
X48479665Y-23977600D01*
X48402693Y-23900628D01*
X48300770Y-23832525D01*
X48187518Y-23785615D01*
X48067291Y-23761700D01*
X47944709Y-23761700D01*
X47824482Y-23785615D01*
X47711230Y-23832525D01*
X47609307Y-23900628D01*
X47522628Y-23987307D01*
X47454525Y-24089230D01*
X47407615Y-24202482D01*
X47383700Y-24322709D01*
X45594027Y-24322709D01*
X47628534Y-22288203D01*
X47632582Y-22308551D01*
X47679492Y-22421803D01*
X47747595Y-22523726D01*
X47752868Y-22528999D01*
X47709651Y-22593678D01*
X47662741Y-22706930D01*
X47638826Y-22827157D01*
X47638826Y-22949739D01*
X47662741Y-23069966D01*
X47709651Y-23183218D01*
X47777754Y-23285141D01*
X47864433Y-23371820D01*
X47966356Y-23439923D01*
X48079608Y-23486833D01*
X48199835Y-23510748D01*
X48322417Y-23510748D01*
X48442644Y-23486833D01*
X48555896Y-23439923D01*
X48657819Y-23371820D01*
X48744498Y-23285141D01*
X48812601Y-23183218D01*
X48859511Y-23069966D01*
X48883426Y-22949739D01*
X48883426Y-22840884D01*
X49050318Y-22673991D01*
X49065827Y-22661263D01*
X49116613Y-22599381D01*
X49154350Y-22528780D01*
X49177588Y-22452173D01*
X49183469Y-22392465D01*
X49183469Y-22392459D01*
X49185434Y-22372506D01*
X49183469Y-22352553D01*
X49183469Y-21966067D01*
X52437726Y-18711810D01*
X52437726Y-18884000D01*
X52443611Y-18943751D01*
X52461040Y-19001206D01*
X52489342Y-19054157D01*
X52527432Y-19100568D01*
X52573843Y-19138658D01*
X52626794Y-19166960D01*
X52684249Y-19184389D01*
X52744000Y-19190274D01*
X54444000Y-19190274D01*
X54503751Y-19184389D01*
X54561206Y-19166960D01*
X54614157Y-19138658D01*
X54648999Y-19110063D01*
X54648999Y-19475446D01*
X54647034Y-19495399D01*
X54648999Y-19515352D01*
X54648999Y-19515358D01*
X54651688Y-19542658D01*
X54654880Y-19575067D01*
X54665226Y-19609173D01*
X54678118Y-19651673D01*
X54715855Y-19722274D01*
X54766641Y-19784157D01*
X54782145Y-19796881D01*
X55080494Y-20095230D01*
X55061942Y-20129939D01*
X54995910Y-20347620D01*
X54973613Y-20574000D01*
X54995910Y-20800380D01*
X55061942Y-21018061D01*
X55080494Y-21052770D01*
X54590746Y-21542518D01*
X54575242Y-21555242D01*
X54524456Y-21617125D01*
X54502575Y-21658062D01*
X54486719Y-21687726D01*
X54465151Y-21758829D01*
X54463481Y-21764333D01*
X54457600Y-21824041D01*
X54457600Y-21824047D01*
X54455635Y-21844000D01*
X54457600Y-21863953D01*
X54457600Y-22345978D01*
X54414518Y-22293482D01*
X54238676Y-22149173D01*
X54038061Y-22041942D01*
X53820380Y-21975910D01*
X53650724Y-21959200D01*
X53537276Y-21959200D01*
X53367620Y-21975910D01*
X53149939Y-22041942D01*
X52949324Y-22149173D01*
X52773482Y-22293482D01*
X52629173Y-22469324D01*
X52521942Y-22669939D01*
X52455910Y-22887620D01*
X52433613Y-23114000D01*
X52455910Y-23340380D01*
X52521942Y-23558061D01*
X52629173Y-23758676D01*
X52773482Y-23934518D01*
X52949324Y-24078827D01*
X53149939Y-24186058D01*
X53367620Y-24252090D01*
X53537276Y-24268800D01*
X53642464Y-24268800D01*
X53574746Y-24336518D01*
X53559242Y-24349242D01*
X53508456Y-24411125D01*
X53474643Y-24474385D01*
X53470719Y-24481726D01*
X53447482Y-24558331D01*
X53447481Y-24558333D01*
X53441600Y-24618041D01*
X53441600Y-24618047D01*
X53439635Y-24638000D01*
X53441600Y-24657953D01*
X53441601Y-38947662D01*
X49069564Y-43319700D01*
X48960709Y-43319700D01*
X48840482Y-43343615D01*
X48727230Y-43390525D01*
X48625307Y-43458628D01*
X48538628Y-43545307D01*
X48470525Y-43647230D01*
X48423615Y-43760482D01*
X48399700Y-43880709D01*
X48399700Y-44003291D01*
X48423615Y-44123518D01*
X48470525Y-44236770D01*
X48538628Y-44338693D01*
X48625307Y-44425372D01*
X48727230Y-44493475D01*
X48840482Y-44540385D01*
X48960709Y-44564300D01*
X49083291Y-44564300D01*
X49203518Y-44540385D01*
X49316770Y-44493475D01*
X49418693Y-44425372D01*
X49505372Y-44338693D01*
X49566229Y-44247614D01*
X50777140Y-44247614D01*
X50777140Y-44652386D01*
X50856107Y-45049381D01*
X51011006Y-45423341D01*
X51235886Y-45759897D01*
X51522103Y-46046114D01*
X51858659Y-46270994D01*
X52232619Y-46425893D01*
X52629614Y-46504860D01*
X53034386Y-46504860D01*
X53431381Y-46425893D01*
X53805341Y-46270994D01*
X54141897Y-46046114D01*
X54428114Y-45759897D01*
X54652994Y-45423341D01*
X54807893Y-45049381D01*
X54886860Y-44652386D01*
X54886860Y-44247614D01*
X54807893Y-43850619D01*
X54652994Y-43476659D01*
X54428114Y-43140103D01*
X54141897Y-42853886D01*
X53805341Y-42629006D01*
X53431381Y-42474107D01*
X53034386Y-42395140D01*
X52629614Y-42395140D01*
X52232619Y-42474107D01*
X51858659Y-42629006D01*
X51522103Y-42853886D01*
X51235886Y-43140103D01*
X51011006Y-43476659D01*
X50856107Y-43850619D01*
X50777140Y-44247614D01*
X49566229Y-44247614D01*
X49573475Y-44236770D01*
X49620385Y-44123518D01*
X49644300Y-44003291D01*
X49644300Y-43894436D01*
X52060480Y-41478256D01*
X53821330Y-41478256D01*
X53821330Y-41833744D01*
X53890682Y-42182403D01*
X54026722Y-42510832D01*
X54224221Y-42806410D01*
X54475590Y-43057779D01*
X54771168Y-43255278D01*
X55099597Y-43391318D01*
X55448256Y-43460670D01*
X55803744Y-43460670D01*
X56152403Y-43391318D01*
X56480832Y-43255278D01*
X56776410Y-43057779D01*
X57027779Y-42806410D01*
X57225278Y-42510832D01*
X57361318Y-42182403D01*
X57430670Y-41833744D01*
X57430670Y-41478256D01*
X57361318Y-41129597D01*
X57225278Y-40801168D01*
X57027779Y-40505590D01*
X56776410Y-40254221D01*
X56480832Y-40056722D01*
X56152403Y-39920682D01*
X55803744Y-39851330D01*
X55448256Y-39851330D01*
X55099597Y-39920682D01*
X54771168Y-40056722D01*
X54475590Y-40254221D01*
X54224221Y-40505590D01*
X54026722Y-40801168D01*
X53890682Y-41129597D01*
X53821330Y-41478256D01*
X52060480Y-41478256D01*
X54121260Y-39417477D01*
X54136758Y-39404758D01*
X54149477Y-39389260D01*
X54149482Y-39389255D01*
X54166717Y-39368254D01*
X54187544Y-39342876D01*
X54225281Y-39272275D01*
X54232712Y-39247779D01*
X54248519Y-39195669D01*
X54252942Y-39150758D01*
X54254400Y-39135960D01*
X54254400Y-39135953D01*
X54256365Y-39116000D01*
X54254400Y-39096047D01*
X54254400Y-39026589D01*
X54475590Y-39247779D01*
X54771168Y-39445278D01*
X55099597Y-39581318D01*
X55448256Y-39650670D01*
X55803744Y-39650670D01*
X56152403Y-39581318D01*
X56480832Y-39445278D01*
X56776410Y-39247779D01*
X57027779Y-38996410D01*
X57225278Y-38700832D01*
X57361318Y-38372403D01*
X57430670Y-38023744D01*
X57430670Y-37668256D01*
X57361318Y-37319597D01*
X57225278Y-36991168D01*
X57027779Y-36695590D01*
X56776410Y-36444221D01*
X56480832Y-36246722D01*
X56152403Y-36110682D01*
X55803744Y-36041330D01*
X55448256Y-36041330D01*
X55099597Y-36110682D01*
X54771168Y-36246722D01*
X54475590Y-36444221D01*
X54254400Y-36665411D01*
X54254400Y-35216589D01*
X54475590Y-35437779D01*
X54771168Y-35635278D01*
X55099597Y-35771318D01*
X55448256Y-35840670D01*
X55803744Y-35840670D01*
X56152403Y-35771318D01*
X56480832Y-35635278D01*
X56776410Y-35437779D01*
X57027779Y-35186410D01*
X57225278Y-34890832D01*
X57361318Y-34562403D01*
X57430670Y-34213744D01*
X57430670Y-33858256D01*
X57361318Y-33509597D01*
X57225278Y-33181168D01*
X57157302Y-33079434D01*
X58439255Y-31797481D01*
X58454758Y-31784758D01*
X58505544Y-31722876D01*
X58543281Y-31652275D01*
X58566519Y-31575668D01*
X58572400Y-31515960D01*
X58572400Y-31515954D01*
X58574365Y-31496001D01*
X58572400Y-31476048D01*
X58572400Y-17545953D01*
X58574365Y-17526000D01*
X58572400Y-17506047D01*
X58572400Y-17506040D01*
X58567235Y-17453604D01*
X58566519Y-17446331D01*
X58543281Y-17369725D01*
X58540198Y-17363957D01*
X58505544Y-17299124D01*
X58484717Y-17273746D01*
X58467482Y-17252745D01*
X58467477Y-17252740D01*
X58454758Y-17237242D01*
X58439260Y-17224523D01*
X56689482Y-15474746D01*
X56676758Y-15459242D01*
X56614876Y-15408456D01*
X56544275Y-15370719D01*
X56467668Y-15347481D01*
X56407960Y-15341600D01*
X56407953Y-15341600D01*
X56388000Y-15339635D01*
X56368047Y-15341600D01*
X47412335Y-15341600D01*
X47291482Y-15220747D01*
X47278758Y-15205242D01*
X47216876Y-15154456D01*
X47146275Y-15116719D01*
X47069668Y-15093481D01*
X47009960Y-15087600D01*
X47009953Y-15087600D01*
X46990000Y-15085635D01*
X46970047Y-15087600D01*
X44313060Y-15087600D01*
X44293107Y-15085635D01*
X44273154Y-15087600D01*
X44273148Y-15087600D01*
X44221443Y-15092693D01*
X44213439Y-15093481D01*
X44195610Y-15098890D01*
X44136833Y-15116719D01*
X44066232Y-15154456D01*
X44004350Y-15205242D01*
X43991622Y-15220750D01*
X43922757Y-15289615D01*
X43907252Y-15302340D01*
X43894529Y-15317843D01*
X43894528Y-15317844D01*
X43887858Y-15325971D01*
X43856466Y-15364223D01*
X43829682Y-15414332D01*
X43818729Y-15434824D01*
X43797653Y-15504305D01*
X43795491Y-15511431D01*
X43790123Y-15565932D01*
X43712638Y-15643417D01*
X43644535Y-15745340D01*
X43597625Y-15858592D01*
X43573710Y-15978819D01*
X43573710Y-16101401D01*
X43597625Y-16221628D01*
X43644535Y-16334880D01*
X43712638Y-16436803D01*
X43799317Y-16523482D01*
X43901240Y-16591585D01*
X44014492Y-16638495D01*
X44134719Y-16662410D01*
X44257301Y-16662410D01*
X44377528Y-16638495D01*
X44490780Y-16591585D01*
X44592703Y-16523482D01*
X44679382Y-16436803D01*
X44747485Y-16334880D01*
X44794395Y-16221628D01*
X44818310Y-16101401D01*
X44818310Y-15978819D01*
X44802711Y-15900400D01*
X45875299Y-15900400D01*
X45859700Y-15978819D01*
X45859700Y-16101401D01*
X45883615Y-16221628D01*
X45930525Y-16334880D01*
X45998628Y-16436803D01*
X46085307Y-16523482D01*
X46187230Y-16591585D01*
X46300482Y-16638495D01*
X46420709Y-16662410D01*
X46530289Y-16662410D01*
X46572623Y-16697153D01*
X46643224Y-16734890D01*
X46688513Y-16748628D01*
X46719830Y-16758128D01*
X46727834Y-16758916D01*
X46779539Y-16764009D01*
X46779545Y-16764009D01*
X46799498Y-16765974D01*
X46819451Y-16764009D01*
X52003254Y-16764009D01*
X47957713Y-20809551D01*
X47942209Y-20822275D01*
X47929486Y-20837778D01*
X47929485Y-20837779D01*
X47922815Y-20845906D01*
X47904400Y-20868345D01*
X47904400Y-19058177D01*
X47981372Y-18981205D01*
X48049475Y-18879282D01*
X48096385Y-18766030D01*
X48120300Y-18645803D01*
X48120300Y-18523221D01*
X48096385Y-18402994D01*
X48049475Y-18289742D01*
X47994389Y-18207300D01*
X49331235Y-18207300D01*
X49387307Y-18263372D01*
X49489230Y-18331475D01*
X49602482Y-18378385D01*
X49722709Y-18402300D01*
X49845291Y-18402300D01*
X49965518Y-18378385D01*
X50078770Y-18331475D01*
X50180693Y-18263372D01*
X50267372Y-18176693D01*
X50335475Y-18074770D01*
X50382385Y-17961518D01*
X50406300Y-17841291D01*
X50406300Y-17718709D01*
X50382385Y-17598482D01*
X50335475Y-17485230D01*
X50267372Y-17383307D01*
X50180693Y-17296628D01*
X50078770Y-17228525D01*
X49965518Y-17181615D01*
X49845291Y-17157700D01*
X49722709Y-17157700D01*
X49602482Y-17181615D01*
X49517778Y-17216700D01*
X45676317Y-17216700D01*
X45652000Y-17214305D01*
X45627683Y-17216700D01*
X41966842Y-17216700D01*
X41882770Y-17160525D01*
X41769518Y-17113615D01*
X41649291Y-17089700D01*
X41526709Y-17089700D01*
X41406482Y-17113615D01*
X41293230Y-17160525D01*
X41209158Y-17216700D01*
X37767975Y-17216700D01*
X37703052Y-17095236D01*
X37564991Y-16927009D01*
X37396764Y-16788948D01*
X37204834Y-16686360D01*
X36996579Y-16623186D01*
X36875300Y-16611241D01*
X36875300Y-16555317D01*
X36877695Y-16531000D01*
X36875300Y-16506683D01*
X36875300Y-16506673D01*
X36868133Y-16433904D01*
X36839811Y-16340540D01*
X36793819Y-16254495D01*
X36766812Y-16221587D01*
X36747431Y-16197971D01*
X36747430Y-16197970D01*
X36731924Y-16179076D01*
X36713030Y-16163570D01*
X36218434Y-15668975D01*
X36202924Y-15650076D01*
X36127505Y-15588181D01*
X36041460Y-15542189D01*
X35948096Y-15513867D01*
X35875327Y-15506700D01*
X35875317Y-15506700D01*
X35851000Y-15504305D01*
X35826683Y-15506700D01*
X23138316Y-15506700D01*
X23113999Y-15504305D01*
X23089682Y-15506700D01*
X23089673Y-15506700D01*
X23016904Y-15513867D01*
X22923540Y-15542189D01*
X22896321Y-15556738D01*
X22837494Y-15588181D01*
X22780971Y-15634569D01*
X22762076Y-15650076D01*
X22746570Y-15668970D01*
X21433815Y-16981726D01*
X19828000Y-16981726D01*
X19768249Y-16987611D01*
X19710794Y-17005040D01*
X19657843Y-17033342D01*
X19611432Y-17071432D01*
X19573342Y-17117843D01*
X19545040Y-17170794D01*
X19527611Y-17228249D01*
X19521726Y-17288000D01*
X19521726Y-19288000D01*
X19527611Y-19347751D01*
X19545040Y-19405206D01*
X19573342Y-19458157D01*
X19611432Y-19504568D01*
X19657843Y-19542658D01*
X19710794Y-19570960D01*
X19768249Y-19588389D01*
X19828000Y-19594274D01*
X20332701Y-19594274D01*
X20332701Y-20803673D01*
X20330305Y-20828000D01*
X20332701Y-20852327D01*
X20337270Y-20898712D01*
X20339868Y-20925095D01*
X20368189Y-21018459D01*
X20414181Y-21104504D01*
X20431392Y-21125475D01*
X20476077Y-21179924D01*
X20494971Y-21195430D01*
X22364700Y-23065160D01*
X22364701Y-37791969D01*
X17954975Y-42201696D01*
X17936076Y-42217206D01*
X17874181Y-42292625D01*
X17828189Y-42378671D01*
X17799867Y-42472035D01*
X17792700Y-42544804D01*
X17792700Y-42544813D01*
X17790305Y-42569130D01*
X17792700Y-42593447D01*
X17792700Y-42643856D01*
X16788130Y-42643856D01*
X16728379Y-42649741D01*
X16670924Y-42667170D01*
X16617973Y-42695472D01*
X16571562Y-42733562D01*
X16533472Y-42779973D01*
X16505170Y-42832924D01*
X16487741Y-42890379D01*
X16481856Y-42950130D01*
X14553800Y-42950130D01*
X14553800Y-24659488D01*
X19523200Y-24659488D01*
X19523200Y-24916512D01*
X19573343Y-25168596D01*
X19671702Y-25406054D01*
X19814496Y-25619761D01*
X19996239Y-25801504D01*
X20209946Y-25944298D01*
X20447404Y-26042657D01*
X20699488Y-26092800D01*
X20956512Y-26092800D01*
X21208596Y-26042657D01*
X21446054Y-25944298D01*
X21659761Y-25801504D01*
X21841504Y-25619761D01*
X21984298Y-25406054D01*
X22082657Y-25168596D01*
X22132800Y-24916512D01*
X22132800Y-24659488D01*
X22082657Y-24407404D01*
X21984298Y-24169946D01*
X21841504Y-23956239D01*
X21659761Y-23774496D01*
X21446054Y-23631702D01*
X21208596Y-23533343D01*
X20956512Y-23483200D01*
X20699488Y-23483200D01*
X20447404Y-23533343D01*
X20209946Y-23631702D01*
X19996239Y-23774496D01*
X19814496Y-23956239D01*
X19671702Y-24169946D01*
X19573343Y-24407404D01*
X19523200Y-24659488D01*
X14553800Y-24659488D01*
X14553800Y-18558130D01*
X14621631Y-17866333D01*
X14817857Y-17216402D01*
X15136583Y-16616964D01*
X15565675Y-16090845D01*
X16088779Y-15658096D01*
X16685980Y-15335190D01*
X17334529Y-15134431D01*
X18025256Y-15061833D01*
X18034581Y-15061800D01*
X55355870Y-15061800D01*
X56047667Y-15129631D01*
X56047667Y-15129631D01*
G37*
X56047667Y-15129631D02*
X56697598Y-15325857D01*
X57297036Y-15644583D01*
X57823155Y-16073675D01*
X58255904Y-16596779D01*
X58578810Y-17193980D01*
X58779569Y-17842529D01*
X58852167Y-18533256D01*
X58852200Y-18542581D01*
X58852201Y-43163860D01*
X58784369Y-43855667D01*
X58588142Y-44505599D01*
X58269415Y-45105038D01*
X57840327Y-45631153D01*
X57317221Y-46063904D01*
X56720020Y-46386810D01*
X56071471Y-46587569D01*
X55380744Y-46660167D01*
X55371419Y-46660200D01*
X18050130Y-46660200D01*
X17358333Y-46592369D01*
X16708401Y-46396142D01*
X16108962Y-46077415D01*
X15582847Y-45648327D01*
X15150096Y-45125221D01*
X14827190Y-44528020D01*
X14626431Y-43879471D01*
X14553833Y-43188744D01*
X14553800Y-43179419D01*
X14553800Y-42950130D01*
X16481856Y-42950130D01*
X16481856Y-45949870D01*
X16487741Y-46009621D01*
X16505170Y-46067076D01*
X16533472Y-46120027D01*
X16571562Y-46166438D01*
X16617973Y-46204528D01*
X16670924Y-46232830D01*
X16728379Y-46250259D01*
X16788130Y-46256144D01*
X19787870Y-46256144D01*
X19847621Y-46250259D01*
X19905076Y-46232830D01*
X19958027Y-46204528D01*
X20004438Y-46166438D01*
X20042528Y-46120027D01*
X20070830Y-46067076D01*
X20088259Y-46009621D01*
X20094144Y-45949870D01*
X20094144Y-42950130D01*
X20088259Y-42890379D01*
X20070830Y-42832924D01*
X20042528Y-42779973D01*
X20004438Y-42733562D01*
X19958027Y-42695472D01*
X19905076Y-42667170D01*
X19847621Y-42649741D01*
X19787870Y-42643856D01*
X18913733Y-42643856D01*
X23193030Y-38364560D01*
X23211924Y-38349054D01*
X23246833Y-38306518D01*
X23273819Y-38273636D01*
X23309179Y-38207481D01*
X23319811Y-38187590D01*
X23348133Y-38094226D01*
X23355300Y-38021457D01*
X23355300Y-38021448D01*
X23357695Y-37997131D01*
X23355300Y-37972814D01*
X23355300Y-35492000D01*
X27249855Y-35492000D01*
X27271186Y-35708579D01*
X27334360Y-35916834D01*
X27436948Y-36108764D01*
X27575009Y-36276991D01*
X27743236Y-36415052D01*
X27935166Y-36517640D01*
X28143421Y-36580814D01*
X28305731Y-36596800D01*
X29214269Y-36596800D01*
X29376579Y-36580814D01*
X29584834Y-36517640D01*
X29776764Y-36415052D01*
X29944991Y-36276991D01*
X30083052Y-36108764D01*
X30185640Y-35916834D01*
X30248814Y-35708579D01*
X30270145Y-35492000D01*
X30248814Y-35275421D01*
X30185640Y-35067166D01*
X30083052Y-34875236D01*
X29944991Y-34707009D01*
X29776764Y-34568948D01*
X29584834Y-34466360D01*
X29376579Y-34403186D01*
X29214269Y-34387200D01*
X28305731Y-34387200D01*
X28143421Y-34403186D01*
X27935166Y-34466360D01*
X27743236Y-34568948D01*
X27575009Y-34707009D01*
X27436948Y-34875236D01*
X27334360Y-35067166D01*
X27271186Y-35275421D01*
X27249855Y-35492000D01*
X23355300Y-35492000D01*
X23355300Y-32952000D01*
X27249855Y-32952000D01*
X27271186Y-33168579D01*
X27334360Y-33376834D01*
X27436948Y-33568764D01*
X27575009Y-33736991D01*
X27743236Y-33875052D01*
X27935166Y-33977640D01*
X28143421Y-34040814D01*
X28305731Y-34056800D01*
X29214269Y-34056800D01*
X29376579Y-34040814D01*
X29584834Y-33977640D01*
X29776764Y-33875052D01*
X29944991Y-33736991D01*
X30083052Y-33568764D01*
X30185640Y-33376834D01*
X30248814Y-33168579D01*
X30270145Y-32952000D01*
X30248814Y-32735421D01*
X30185640Y-32527166D01*
X30083052Y-32335236D01*
X29944991Y-32167009D01*
X29776764Y-32028948D01*
X29584834Y-31926360D01*
X29376579Y-31863186D01*
X29214269Y-31847200D01*
X28305731Y-31847200D01*
X28143421Y-31863186D01*
X27935166Y-31926360D01*
X27743236Y-32028948D01*
X27575009Y-32167009D01*
X27436948Y-32335236D01*
X27334360Y-32527166D01*
X27271186Y-32735421D01*
X27249855Y-32952000D01*
X23355300Y-32952000D01*
X23355300Y-30412000D01*
X27249855Y-30412000D01*
X27271186Y-30628579D01*
X27334360Y-30836834D01*
X27436948Y-31028764D01*
X27575009Y-31196991D01*
X27743236Y-31335052D01*
X27935166Y-31437640D01*
X28143421Y-31500814D01*
X28305731Y-31516800D01*
X29214269Y-31516800D01*
X29376579Y-31500814D01*
X29584834Y-31437640D01*
X29776764Y-31335052D01*
X29944991Y-31196991D01*
X30083052Y-31028764D01*
X30185640Y-30836834D01*
X30248814Y-30628579D01*
X30270145Y-30412000D01*
X30248814Y-30195421D01*
X30185640Y-29987166D01*
X30083052Y-29795236D01*
X29944991Y-29627009D01*
X29776764Y-29488948D01*
X29584834Y-29386360D01*
X29376579Y-29323186D01*
X29214269Y-29307200D01*
X28305731Y-29307200D01*
X28143421Y-29323186D01*
X27935166Y-29386360D01*
X27743236Y-29488948D01*
X27575009Y-29627009D01*
X27436948Y-29795236D01*
X27334360Y-29987166D01*
X27271186Y-30195421D01*
X27249855Y-30412000D01*
X23355300Y-30412000D01*
X23355300Y-27872000D01*
X27249855Y-27872000D01*
X27271186Y-28088579D01*
X27334360Y-28296834D01*
X27436948Y-28488764D01*
X27575009Y-28656991D01*
X27743236Y-28795052D01*
X27935166Y-28897640D01*
X28143421Y-28960814D01*
X28305731Y-28976800D01*
X29214269Y-28976800D01*
X29376579Y-28960814D01*
X29584834Y-28897640D01*
X29776764Y-28795052D01*
X29944991Y-28656991D01*
X30083052Y-28488764D01*
X30185640Y-28296834D01*
X30248814Y-28088579D01*
X30270145Y-27872000D01*
X30248814Y-27655421D01*
X30185640Y-27447166D01*
X30083052Y-27255236D01*
X29944991Y-27087009D01*
X29776764Y-26948948D01*
X29584834Y-26846360D01*
X29376579Y-26783186D01*
X29214269Y-26767200D01*
X28305731Y-26767200D01*
X28143421Y-26783186D01*
X27935166Y-26846360D01*
X27743236Y-26948948D01*
X27575009Y-27087009D01*
X27436948Y-27255236D01*
X27334360Y-27447166D01*
X27271186Y-27655421D01*
X27249855Y-27872000D01*
X23355300Y-27872000D01*
X23355300Y-25332000D01*
X27249855Y-25332000D01*
X27271186Y-25548579D01*
X27334360Y-25756834D01*
X27436948Y-25948764D01*
X27575009Y-26116991D01*
X27743236Y-26255052D01*
X27935166Y-26357640D01*
X28143421Y-26420814D01*
X28305731Y-26436800D01*
X29214269Y-26436800D01*
X29376579Y-26420814D01*
X29584834Y-26357640D01*
X29776764Y-26255052D01*
X29944991Y-26116991D01*
X30083052Y-25948764D01*
X30185640Y-25756834D01*
X30248814Y-25548579D01*
X30270145Y-25332000D01*
X30248814Y-25115421D01*
X30185640Y-24907166D01*
X30083052Y-24715236D01*
X29944991Y-24547009D01*
X29776764Y-24408948D01*
X29584834Y-24306360D01*
X29376579Y-24243186D01*
X29214269Y-24227200D01*
X28305731Y-24227200D01*
X28143421Y-24243186D01*
X27935166Y-24306360D01*
X27743236Y-24408948D01*
X27575009Y-24547009D01*
X27436948Y-24715236D01*
X27334360Y-24907166D01*
X27271186Y-25115421D01*
X27249855Y-25332000D01*
X23355300Y-25332000D01*
X23355300Y-22884317D01*
X23357695Y-22860000D01*
X23355300Y-22835683D01*
X23355300Y-22835673D01*
X23350999Y-22792000D01*
X27249855Y-22792000D01*
X27271186Y-23008579D01*
X27334360Y-23216834D01*
X27436948Y-23408764D01*
X27575009Y-23576991D01*
X27743236Y-23715052D01*
X27935166Y-23817640D01*
X28143421Y-23880814D01*
X28305731Y-23896800D01*
X29214269Y-23896800D01*
X29376579Y-23880814D01*
X29584834Y-23817640D01*
X29776764Y-23715052D01*
X29944991Y-23576991D01*
X30083052Y-23408764D01*
X30185640Y-23216834D01*
X30248814Y-23008579D01*
X30270145Y-22792000D01*
X30248814Y-22575421D01*
X30185640Y-22367166D01*
X30083052Y-22175236D01*
X29944991Y-22007009D01*
X29776764Y-21868948D01*
X29584834Y-21766360D01*
X29376579Y-21703186D01*
X29214269Y-21687200D01*
X28305731Y-21687200D01*
X28143421Y-21703186D01*
X27935166Y-21766360D01*
X27743236Y-21868948D01*
X27575009Y-22007009D01*
X27436948Y-22175236D01*
X27334360Y-22367166D01*
X27271186Y-22575421D01*
X27249855Y-22792000D01*
X23350999Y-22792000D01*
X23348133Y-22762904D01*
X23319811Y-22669540D01*
X23273819Y-22583495D01*
X23235357Y-22536629D01*
X23227431Y-22526971D01*
X23227430Y-22526970D01*
X23211924Y-22508076D01*
X23193030Y-22492570D01*
X21323300Y-20622841D01*
X21323300Y-20252000D01*
X27249855Y-20252000D01*
X27271186Y-20468579D01*
X27334360Y-20676834D01*
X27436948Y-20868764D01*
X27575009Y-21036991D01*
X27743236Y-21175052D01*
X27935166Y-21277640D01*
X28143421Y-21340814D01*
X28305731Y-21356800D01*
X29214269Y-21356800D01*
X29376579Y-21340814D01*
X29584834Y-21277640D01*
X29776764Y-21175052D01*
X29944991Y-21036991D01*
X30083052Y-20868764D01*
X30185640Y-20676834D01*
X30248814Y-20468579D01*
X30270145Y-20252000D01*
X30248814Y-20035421D01*
X30185640Y-19827166D01*
X30083052Y-19635236D01*
X29944991Y-19467009D01*
X29776764Y-19328948D01*
X29584834Y-19226360D01*
X29376579Y-19163186D01*
X29214269Y-19147200D01*
X28305731Y-19147200D01*
X28143421Y-19163186D01*
X27935166Y-19226360D01*
X27743236Y-19328948D01*
X27575009Y-19467009D01*
X27436948Y-19635236D01*
X27334360Y-19827166D01*
X27271186Y-20035421D01*
X27249855Y-20252000D01*
X21323300Y-20252000D01*
X21323300Y-19594274D01*
X21828000Y-19594274D01*
X21887751Y-19588389D01*
X21945206Y-19570960D01*
X21998157Y-19542658D01*
X22044568Y-19504568D01*
X22082658Y-19458157D01*
X22110960Y-19405206D01*
X22128389Y-19347751D01*
X22134274Y-19288000D01*
X22134274Y-18512000D01*
X27253725Y-18512000D01*
X27259610Y-18571751D01*
X27277039Y-18629206D01*
X27305342Y-18682157D01*
X27343431Y-18728569D01*
X27389843Y-18766658D01*
X27442794Y-18794961D01*
X27500249Y-18812390D01*
X27560000Y-18818275D01*
X28594900Y-18816800D01*
X28671100Y-18740600D01*
X28671100Y-17800900D01*
X28848900Y-17800900D01*
X28848900Y-18740600D01*
X28925100Y-18816800D01*
X29960000Y-18818275D01*
X30019751Y-18812390D01*
X30077206Y-18794961D01*
X30130157Y-18766658D01*
X30176569Y-18728569D01*
X30214658Y-18682157D01*
X30242961Y-18629206D01*
X30260390Y-18571751D01*
X30266275Y-18512000D01*
X30264800Y-17877100D01*
X30188600Y-17800900D01*
X28848900Y-17800900D01*
X28671100Y-17800900D01*
X27331400Y-17800900D01*
X27255200Y-17877100D01*
X27253725Y-18512000D01*
X22134274Y-18512000D01*
X22134274Y-17682185D01*
X22904459Y-16912000D01*
X27253725Y-16912000D01*
X27255200Y-17546900D01*
X27331400Y-17623100D01*
X28671100Y-17623100D01*
X28671100Y-16683400D01*
X28848900Y-16683400D01*
X28848900Y-17623100D01*
X30188600Y-17623100D01*
X30264800Y-17546900D01*
X30266275Y-16912000D01*
X30260390Y-16852249D01*
X30242961Y-16794794D01*
X30214658Y-16741843D01*
X30176569Y-16695431D01*
X30130157Y-16657342D01*
X30077206Y-16629039D01*
X30019751Y-16611610D01*
X29960000Y-16605725D01*
X28925100Y-16607200D01*
X28848900Y-16683400D01*
X28671100Y-16683400D01*
X28594900Y-16607200D01*
X27560000Y-16605725D01*
X27500249Y-16611610D01*
X27442794Y-16629039D01*
X27389843Y-16657342D01*
X27343431Y-16695431D01*
X27305342Y-16741843D01*
X27277039Y-16794794D01*
X27259610Y-16852249D01*
X27253725Y-16912000D01*
X22904459Y-16912000D01*
X23319160Y-16497300D01*
X35645841Y-16497300D01*
X35770982Y-16622441D01*
X35763421Y-16623186D01*
X35555166Y-16686360D01*
X35363236Y-16788948D01*
X35195009Y-16927009D01*
X35056948Y-17095236D01*
X34954360Y-17287166D01*
X34891186Y-17495421D01*
X34869855Y-17712000D01*
X34891186Y-17928579D01*
X34954360Y-18136834D01*
X35056948Y-18328764D01*
X35195009Y-18496991D01*
X35363236Y-18635052D01*
X35555166Y-18737640D01*
X35763421Y-18800814D01*
X35925731Y-18816800D01*
X36834269Y-18816800D01*
X36996579Y-18800814D01*
X37204834Y-18737640D01*
X37396764Y-18635052D01*
X37564991Y-18496991D01*
X37703052Y-18328764D01*
X37767975Y-18207300D01*
X41209158Y-18207300D01*
X41293230Y-18263475D01*
X41406482Y-18310385D01*
X41526709Y-18334300D01*
X41649291Y-18334300D01*
X41769518Y-18310385D01*
X41882770Y-18263475D01*
X41966842Y-18207300D01*
X44970701Y-18207300D01*
X44970700Y-18517672D01*
X44970700Y-18517683D01*
X44968305Y-18542000D01*
X44970700Y-18566317D01*
X44970700Y-18994898D01*
X44885518Y-18959615D01*
X44765291Y-18935700D01*
X44642709Y-18935700D01*
X44522482Y-18959615D01*
X44409230Y-19006525D01*
X44307307Y-19074628D01*
X44230335Y-19151600D01*
X43577152Y-19151600D01*
X43557199Y-19149635D01*
X43537246Y-19151600D01*
X43537240Y-19151600D01*
X43485535Y-19156693D01*
X43477531Y-19157481D01*
X43464919Y-19161307D01*
X43400925Y-19180719D01*
X43330324Y-19218456D01*
X43268442Y-19269242D01*
X43255718Y-19284746D01*
X39941119Y-22599345D01*
X39968385Y-22533518D01*
X39992300Y-22413291D01*
X39992300Y-22290709D01*
X39968385Y-22170482D01*
X39921475Y-22057230D01*
X39853372Y-21955307D01*
X39766693Y-21868628D01*
X39664770Y-21800525D01*
X39551518Y-21753615D01*
X39431291Y-21729700D01*
X39308709Y-21729700D01*
X39188482Y-21753615D01*
X39075230Y-21800525D01*
X38973307Y-21868628D01*
X38886628Y-21955307D01*
X38818525Y-22057230D01*
X38771615Y-22170482D01*
X38747700Y-22290709D01*
X38747700Y-22399563D01*
X37423664Y-23723600D01*
X37380772Y-23723600D01*
X37396764Y-23715052D01*
X37564991Y-23576991D01*
X37703052Y-23408764D01*
X37805640Y-23216834D01*
X37868814Y-23008579D01*
X37890145Y-22792000D01*
X37868814Y-22575421D01*
X37805640Y-22367166D01*
X37703052Y-22175236D01*
X37564991Y-22007009D01*
X37552064Y-21996400D01*
X37826047Y-21996400D01*
X37846000Y-21998365D01*
X37865953Y-21996400D01*
X37865960Y-21996400D01*
X37925668Y-21990519D01*
X38002275Y-21967281D01*
X38072876Y-21929544D01*
X38134758Y-21878758D01*
X38147482Y-21863254D01*
X39068436Y-20942300D01*
X39177291Y-20942300D01*
X39297518Y-20918385D01*
X39410770Y-20871475D01*
X39512693Y-20803372D01*
X39599372Y-20716693D01*
X39667475Y-20614770D01*
X39714385Y-20501518D01*
X39738300Y-20381291D01*
X39738300Y-20258709D01*
X39714385Y-20138482D01*
X39667475Y-20025230D01*
X39599372Y-19923307D01*
X39512693Y-19836628D01*
X39410770Y-19768525D01*
X39297518Y-19721615D01*
X39177291Y-19697700D01*
X39054709Y-19697700D01*
X38934482Y-19721615D01*
X38821230Y-19768525D01*
X38719307Y-19836628D01*
X38632628Y-19923307D01*
X38564525Y-20025230D01*
X38517615Y-20138482D01*
X38493700Y-20258709D01*
X38493700Y-20367564D01*
X37677664Y-21183600D01*
X37380772Y-21183600D01*
X37396764Y-21175052D01*
X37564991Y-21036991D01*
X37703052Y-20868764D01*
X37805640Y-20676834D01*
X37868814Y-20468579D01*
X37890145Y-20252000D01*
X37868814Y-20035421D01*
X37805640Y-19827166D01*
X37703052Y-19635236D01*
X37564991Y-19467009D01*
X37396764Y-19328948D01*
X37204834Y-19226360D01*
X36996579Y-19163186D01*
X36834269Y-19147200D01*
X35925731Y-19147200D01*
X35763421Y-19163186D01*
X35555166Y-19226360D01*
X35363236Y-19328948D01*
X35195009Y-19467009D01*
X35056948Y-19635236D01*
X34954360Y-19827166D01*
X34891186Y-20035421D01*
X34869855Y-20252000D01*
X34891186Y-20468579D01*
X34954360Y-20676834D01*
X35056948Y-20868764D01*
X35195009Y-21036991D01*
X35363236Y-21175052D01*
X35379228Y-21183600D01*
X33801953Y-21183600D01*
X33782000Y-21181635D01*
X33762047Y-21183600D01*
X33762040Y-21183600D01*
X33709604Y-21188765D01*
X33702331Y-21189481D01*
X33679852Y-21196300D01*
X33625725Y-21212719D01*
X33555124Y-21250456D01*
X33531730Y-21269655D01*
X33508745Y-21288518D01*
X33508740Y-21288523D01*
X33493242Y-21301242D01*
X33480522Y-21316741D01*
X32492741Y-22304523D01*
X32477243Y-22317242D01*
X32464524Y-22332740D01*
X32464518Y-22332746D01*
X32455222Y-22344074D01*
X32426457Y-22379124D01*
X32410293Y-22409365D01*
X32388719Y-22449726D01*
X32365481Y-22526332D01*
X32357635Y-22606000D01*
X32359601Y-22625963D01*
X32359600Y-32258047D01*
X32357635Y-32278000D01*
X32359600Y-32297953D01*
X32359600Y-32297959D01*
X32363253Y-32335046D01*
X32365481Y-32357668D01*
X32382843Y-32414904D01*
X32388719Y-32434274D01*
X32426456Y-32504875D01*
X32477242Y-32566758D01*
X32492746Y-32579482D01*
X34963441Y-35050177D01*
X34954360Y-35067166D01*
X34891186Y-35275421D01*
X34869855Y-35492000D01*
X34891186Y-35708579D01*
X34954360Y-35916834D01*
X35056948Y-36108764D01*
X35195009Y-36276991D01*
X35363236Y-36415052D01*
X35555166Y-36517640D01*
X35763421Y-36580814D01*
X35925731Y-36596800D01*
X36834269Y-36596800D01*
X36996579Y-36580814D01*
X37204834Y-36517640D01*
X37396764Y-36415052D01*
X37564991Y-36276991D01*
X37693601Y-36120281D01*
X37693600Y-37403719D01*
X37564991Y-37247009D01*
X37396764Y-37108948D01*
X37204834Y-37006360D01*
X36996579Y-36943186D01*
X36834269Y-36927200D01*
X35925731Y-36927200D01*
X35763421Y-36943186D01*
X35555166Y-37006360D01*
X35363236Y-37108948D01*
X35195009Y-37247009D01*
X35056948Y-37415236D01*
X34954360Y-37607166D01*
X34891186Y-37815421D01*
X34869855Y-38032000D01*
X34891186Y-38248579D01*
X34954360Y-38456834D01*
X35056948Y-38648764D01*
X35195009Y-38816991D01*
X35363236Y-38955052D01*
X35379228Y-38963600D01*
X29760772Y-38963600D01*
X29776764Y-38955052D01*
X29944991Y-38816991D01*
X30083052Y-38648764D01*
X30185640Y-38456834D01*
X30248814Y-38248579D01*
X30270145Y-38032000D01*
X30248814Y-37815421D01*
X30185640Y-37607166D01*
X30083052Y-37415236D01*
X29944991Y-37247009D01*
X29776764Y-37108948D01*
X29584834Y-37006360D01*
X29376579Y-36943186D01*
X29214269Y-36927200D01*
X28305731Y-36927200D01*
X28143421Y-36943186D01*
X27935166Y-37006360D01*
X27743236Y-37108948D01*
X27575009Y-37247009D01*
X27436948Y-37415236D01*
X27334360Y-37607166D01*
X27271186Y-37815421D01*
X27249855Y-38032000D01*
X27271186Y-38248579D01*
X27334360Y-38456834D01*
X27436948Y-38648764D01*
X27575009Y-38816991D01*
X27743236Y-38955052D01*
X27759228Y-38963600D01*
X25076817Y-38963600D01*
X25056864Y-38961635D01*
X25036911Y-38963600D01*
X25036904Y-38963600D01*
X24984468Y-38968765D01*
X24977195Y-38969481D01*
X24925109Y-38985281D01*
X24900589Y-38992719D01*
X24829988Y-39030456D01*
X24804610Y-39051283D01*
X24783609Y-39068518D01*
X24783604Y-39068523D01*
X24768106Y-39081242D01*
X24755387Y-39096740D01*
X21824741Y-42027387D01*
X21809243Y-42040106D01*
X21796524Y-42055604D01*
X21796518Y-42055610D01*
X21783532Y-42071434D01*
X21758457Y-42101988D01*
X21754539Y-42109319D01*
X21720719Y-42172590D01*
X21697481Y-42249196D01*
X21689635Y-42328864D01*
X21691601Y-42348827D01*
X21691601Y-42690812D01*
X21571597Y-42714682D01*
X21243168Y-42850722D01*
X20947590Y-43048221D01*
X20696221Y-43299590D01*
X20498722Y-43595168D01*
X20362682Y-43923597D01*
X20293330Y-44272256D01*
X20293330Y-44627744D01*
X20362682Y-44976403D01*
X20498722Y-45304832D01*
X20696221Y-45600410D01*
X20947590Y-45851779D01*
X21243168Y-46049278D01*
X21571597Y-46185318D01*
X21920256Y-46254670D01*
X22275744Y-46254670D01*
X22624403Y-46185318D01*
X22952832Y-46049278D01*
X23248410Y-45851779D01*
X23499779Y-45600410D01*
X23697278Y-45304832D01*
X23833318Y-44976403D01*
X23902670Y-44627744D01*
X23902670Y-44272256D01*
X23833318Y-43923597D01*
X23697278Y-43595168D01*
X23499779Y-43299590D01*
X23248410Y-43048221D01*
X22952832Y-42850722D01*
X22624403Y-42714682D01*
X22504400Y-42690812D01*
X22504400Y-42497200D01*
X25225201Y-39776400D01*
X27587936Y-39776400D01*
X27575009Y-39787009D01*
X27436948Y-39955236D01*
X27334360Y-40147166D01*
X27271186Y-40355421D01*
X27249855Y-40572000D01*
X27271186Y-40788579D01*
X27334360Y-40996834D01*
X27436948Y-41188764D01*
X27575009Y-41356991D01*
X27743236Y-41495052D01*
X27935166Y-41597640D01*
X28127331Y-41655933D01*
X26864566Y-42918698D01*
X26762832Y-42850722D01*
X26434403Y-42714682D01*
X26085744Y-42645330D01*
X25730256Y-42645330D01*
X25381597Y-42714682D01*
X25053168Y-42850722D01*
X24757590Y-43048221D01*
X24506221Y-43299590D01*
X24308722Y-43595168D01*
X24172682Y-43923597D01*
X24103330Y-44272256D01*
X24103330Y-44627744D01*
X24172682Y-44976403D01*
X24308722Y-45304832D01*
X24506221Y-45600410D01*
X24757590Y-45851779D01*
X25053168Y-46049278D01*
X25381597Y-46185318D01*
X25730256Y-46254670D01*
X26085744Y-46254670D01*
X26434403Y-46185318D01*
X26762832Y-46049278D01*
X27058410Y-45851779D01*
X27170549Y-45739640D01*
X28554084Y-45739640D01*
X28725312Y-45967564D01*
X29040448Y-46132068D01*
X29381622Y-46231932D01*
X29735724Y-46263317D01*
X30089143Y-46225016D01*
X30428300Y-46118503D01*
X30710688Y-45967564D01*
X30881916Y-45739640D01*
X29718000Y-44575724D01*
X28554084Y-45739640D01*
X27170549Y-45739640D01*
X27309779Y-45600410D01*
X27507278Y-45304832D01*
X27643318Y-44976403D01*
X27712670Y-44627744D01*
X27712670Y-44467724D01*
X27904683Y-44467724D01*
X27942984Y-44821143D01*
X28049497Y-45160300D01*
X28200436Y-45442688D01*
X28428360Y-45613916D01*
X29592276Y-44450000D01*
X29843724Y-44450000D01*
X31007640Y-45613916D01*
X31235564Y-45442688D01*
X31400068Y-45127552D01*
X31499932Y-44786378D01*
X31531317Y-44432276D01*
X31511305Y-44247614D01*
X32743140Y-44247614D01*
X32743140Y-44652386D01*
X32822107Y-45049381D01*
X32977006Y-45423341D01*
X33201886Y-45759897D01*
X33488103Y-46046114D01*
X33824659Y-46270994D01*
X34198619Y-46425893D01*
X34595614Y-46504860D01*
X35000386Y-46504860D01*
X35397381Y-46425893D01*
X35771341Y-46270994D01*
X36107897Y-46046114D01*
X36394114Y-45759897D01*
X36618994Y-45423341D01*
X36773893Y-45049381D01*
X36852860Y-44652386D01*
X36852860Y-44247614D01*
X36773893Y-43850619D01*
X36618994Y-43476659D01*
X36394114Y-43140103D01*
X36107897Y-42853886D01*
X35771341Y-42629006D01*
X35397381Y-42474107D01*
X35000386Y-42395140D01*
X34595614Y-42395140D01*
X34198619Y-42474107D01*
X33824659Y-42629006D01*
X33488103Y-42853886D01*
X33201886Y-43140103D01*
X32977006Y-43476659D01*
X32822107Y-43850619D01*
X32743140Y-44247614D01*
X31511305Y-44247614D01*
X31493016Y-44078857D01*
X31386503Y-43739700D01*
X31235564Y-43457312D01*
X31007640Y-43286084D01*
X29843724Y-44450000D01*
X29592276Y-44450000D01*
X28428360Y-43286084D01*
X28200436Y-43457312D01*
X28035932Y-43772448D01*
X27936068Y-44113622D01*
X27904683Y-44467724D01*
X27712670Y-44467724D01*
X27712670Y-44272256D01*
X27643318Y-43923597D01*
X27507278Y-43595168D01*
X27439302Y-43493434D01*
X27772376Y-43160360D01*
X28554084Y-43160360D01*
X29718000Y-44324276D01*
X30881916Y-43160360D01*
X30710688Y-42932436D01*
X30395552Y-42767932D01*
X30054378Y-42668068D01*
X29700276Y-42636683D01*
X29346857Y-42674984D01*
X29007700Y-42781497D01*
X28725312Y-42932436D01*
X28554084Y-43160360D01*
X27772376Y-43160360D01*
X28616336Y-42316400D01*
X37318047Y-42316400D01*
X37338000Y-42318365D01*
X37357953Y-42316400D01*
X37357960Y-42316400D01*
X37417668Y-42310519D01*
X37494275Y-42287281D01*
X37564876Y-42249544D01*
X37626758Y-42198758D01*
X37639482Y-42183254D01*
X38119255Y-41703481D01*
X38134758Y-41690758D01*
X38185544Y-41628876D01*
X38223281Y-41558275D01*
X38246519Y-41481668D01*
X38252400Y-41421960D01*
X38252400Y-41421954D01*
X38254365Y-41402001D01*
X38252836Y-41386474D01*
X38416308Y-41631127D01*
X38632873Y-41847692D01*
X38887526Y-42017846D01*
X39170482Y-42135050D01*
X39470866Y-42194800D01*
X39777134Y-42194800D01*
X40077518Y-42135050D01*
X40360474Y-42017846D01*
X40615127Y-41847692D01*
X40831692Y-41631127D01*
X41001846Y-41376474D01*
X41119050Y-41093518D01*
X41178800Y-40793134D01*
X41178800Y-40486866D01*
X41119050Y-40186482D01*
X41001846Y-39903526D01*
X40831692Y-39648873D01*
X40615127Y-39432308D01*
X40360474Y-39262154D01*
X40077518Y-39144950D01*
X39777134Y-39085200D01*
X39470866Y-39085200D01*
X39455920Y-39088173D01*
X39493281Y-39018275D01*
X39516519Y-38941668D01*
X39522400Y-38881960D01*
X39522400Y-38881954D01*
X39524365Y-38862001D01*
X39522400Y-38842048D01*
X39522400Y-34712336D01*
X39752027Y-34482709D01*
X45464700Y-34482709D01*
X45464700Y-34605291D01*
X45488615Y-34725518D01*
X45535525Y-34838770D01*
X45603628Y-34940693D01*
X45690307Y-35027372D01*
X45792230Y-35095475D01*
X45905482Y-35142385D01*
X46025709Y-35166300D01*
X46134564Y-35166300D01*
X47599601Y-36631338D01*
X47599600Y-40405578D01*
X47552482Y-40414950D01*
X47269526Y-40532154D01*
X47014873Y-40702308D01*
X46798308Y-40918873D01*
X46628154Y-41173526D01*
X46510950Y-41456482D01*
X46451200Y-41756866D01*
X46451200Y-42063134D01*
X46510950Y-42363518D01*
X46628154Y-42646474D01*
X46798308Y-42901127D01*
X47014873Y-43117692D01*
X47269526Y-43287846D01*
X47552482Y-43405050D01*
X47852866Y-43464800D01*
X48159134Y-43464800D01*
X48459518Y-43405050D01*
X48742474Y-43287846D01*
X48997127Y-43117692D01*
X49213692Y-42901127D01*
X49383846Y-42646474D01*
X49501050Y-42363518D01*
X49560800Y-42063134D01*
X49560800Y-41756866D01*
X49501050Y-41456482D01*
X49383846Y-41173526D01*
X49213692Y-40918873D01*
X48997127Y-40702308D01*
X48742474Y-40532154D01*
X48459518Y-40414950D01*
X48412400Y-40405578D01*
X48412400Y-36482953D01*
X48414365Y-36463000D01*
X48412400Y-36443047D01*
X48412400Y-36443040D01*
X48406519Y-36383332D01*
X48383281Y-36306725D01*
X48345544Y-36236124D01*
X48324717Y-36210746D01*
X48307482Y-36189745D01*
X48307477Y-36189740D01*
X48294758Y-36174242D01*
X48279260Y-36161523D01*
X46709300Y-34591564D01*
X46709300Y-34482709D01*
X46685385Y-34362482D01*
X46638475Y-34249230D01*
X46570372Y-34147307D01*
X46483693Y-34060628D01*
X46381770Y-33992525D01*
X46268518Y-33945615D01*
X46148291Y-33921700D01*
X46025709Y-33921700D01*
X45905482Y-33945615D01*
X45792230Y-33992525D01*
X45690307Y-34060628D01*
X45603628Y-34147307D01*
X45535525Y-34249230D01*
X45488615Y-34362482D01*
X45464700Y-34482709D01*
X39752027Y-34482709D01*
X42575547Y-31659189D01*
X42586774Y-31715628D01*
X42633684Y-31828880D01*
X42689859Y-31912952D01*
X42689859Y-31958805D01*
X42687464Y-31983122D01*
X42689859Y-32007439D01*
X42689859Y-32007448D01*
X42697026Y-32080217D01*
X42725348Y-32173581D01*
X42771340Y-32259627D01*
X42833235Y-32335046D01*
X42852134Y-32350556D01*
X43346607Y-32845030D01*
X43362113Y-32863924D01*
X43381007Y-32879430D01*
X43381008Y-32879431D01*
X43437531Y-32925819D01*
X43483523Y-32950402D01*
X43523577Y-32971811D01*
X43616941Y-33000133D01*
X43689710Y-33007300D01*
X43689719Y-33007300D01*
X43714036Y-33009695D01*
X43738353Y-33007300D01*
X48897158Y-33007300D01*
X48981230Y-33063475D01*
X49094482Y-33110385D01*
X49214709Y-33134300D01*
X49337291Y-33134300D01*
X49457518Y-33110385D01*
X49570770Y-33063475D01*
X49654842Y-33007300D01*
X51029683Y-33007300D01*
X51054000Y-33009695D01*
X51078317Y-33007300D01*
X51078327Y-33007300D01*
X51151096Y-33000133D01*
X51244460Y-32971811D01*
X51330505Y-32925819D01*
X51405924Y-32863924D01*
X51421434Y-32845025D01*
X51644348Y-32622111D01*
X51743518Y-32602385D01*
X51856770Y-32555475D01*
X51958693Y-32487372D01*
X52045372Y-32400693D01*
X52113475Y-32298770D01*
X52160385Y-32185518D01*
X52184300Y-32065291D01*
X52184300Y-31942709D01*
X52160385Y-31822482D01*
X52113475Y-31709230D01*
X52045372Y-31607307D01*
X51958693Y-31520628D01*
X51856770Y-31452525D01*
X51743518Y-31405615D01*
X51623291Y-31381700D01*
X51500709Y-31381700D01*
X51380482Y-31405615D01*
X51267230Y-31452525D01*
X51165307Y-31520628D01*
X51078628Y-31607307D01*
X51010525Y-31709230D01*
X50963615Y-31822482D01*
X50943889Y-31921652D01*
X50848841Y-32016700D01*
X49654842Y-32016700D01*
X49570770Y-31960525D01*
X49457518Y-31913615D01*
X49337291Y-31889700D01*
X49214709Y-31889700D01*
X49094482Y-31913615D01*
X48981230Y-31960525D01*
X48897158Y-32016700D01*
X48822036Y-32016700D01*
X52851260Y-27987477D01*
X52866758Y-27974758D01*
X52879477Y-27959260D01*
X52879482Y-27959255D01*
X52913752Y-27917496D01*
X52917544Y-27912876D01*
X52955281Y-27842275D01*
X52963033Y-27816719D01*
X52978519Y-27765669D01*
X52981689Y-27733482D01*
X52984400Y-27705960D01*
X52984400Y-27705953D01*
X52986365Y-27686000D01*
X52984400Y-27666047D01*
X52984400Y-24657953D01*
X52986365Y-24638000D01*
X52984400Y-24618047D01*
X52984400Y-24618040D01*
X52978519Y-24558332D01*
X52975085Y-24547009D01*
X52955281Y-24481725D01*
X52948770Y-24469544D01*
X52917544Y-24411124D01*
X52895284Y-24384000D01*
X52879482Y-24364745D01*
X52879477Y-24364740D01*
X52866758Y-24349242D01*
X52851261Y-24336524D01*
X52438300Y-23923564D01*
X52438300Y-23814709D01*
X52414385Y-23694482D01*
X52367475Y-23581230D01*
X52299372Y-23479307D01*
X52212693Y-23392628D01*
X52110770Y-23324525D01*
X51997518Y-23277615D01*
X51877291Y-23253700D01*
X51754709Y-23253700D01*
X51634482Y-23277615D01*
X51521230Y-23324525D01*
X51419307Y-23392628D01*
X51332628Y-23479307D01*
X51264525Y-23581230D01*
X51217615Y-23694482D01*
X51193700Y-23814709D01*
X51193700Y-23937291D01*
X51210721Y-24022859D01*
X51126482Y-24039615D01*
X51013230Y-24086525D01*
X50911307Y-24154628D01*
X50824628Y-24241307D01*
X50756525Y-24343230D01*
X50709615Y-24456482D01*
X50685700Y-24576709D01*
X50685700Y-24699291D01*
X50709615Y-24819518D01*
X50752895Y-24924006D01*
X50745518Y-24920950D01*
X50445134Y-24861200D01*
X50138866Y-24861200D01*
X49838482Y-24920950D01*
X49555526Y-25038154D01*
X49300873Y-25208308D01*
X49084308Y-25424873D01*
X48914154Y-25679526D01*
X48796950Y-25962482D01*
X48737200Y-26262866D01*
X48737200Y-26569134D01*
X48763407Y-26700888D01*
X48717702Y-26632485D01*
X48631023Y-26545806D01*
X48529100Y-26477703D01*
X48415848Y-26430793D01*
X48295621Y-26406878D01*
X48186766Y-26406878D01*
X47922634Y-26142746D01*
X47909910Y-26127242D01*
X47848028Y-26076456D01*
X47777427Y-26038719D01*
X47700820Y-26015481D01*
X47641112Y-26009600D01*
X47641105Y-26009600D01*
X47621152Y-26007635D01*
X47601199Y-26009600D01*
X45739952Y-26009600D01*
X45719999Y-26007635D01*
X45700046Y-26009600D01*
X45700040Y-26009600D01*
X45648335Y-26014693D01*
X45640331Y-26015481D01*
X45617093Y-26022530D01*
X45563725Y-26038719D01*
X45493124Y-26076456D01*
X45431242Y-26127242D01*
X45418518Y-26142746D01*
X37826741Y-33734523D01*
X37811243Y-33747242D01*
X37798524Y-33762740D01*
X37798518Y-33762746D01*
X37777549Y-33788298D01*
X37760457Y-33809124D01*
X37740286Y-33846862D01*
X37722719Y-33879726D01*
X37699481Y-33956332D01*
X37691635Y-34036000D01*
X37693601Y-34055963D01*
X37693601Y-34863720D01*
X37564991Y-34707009D01*
X37396764Y-34568948D01*
X37204834Y-34466360D01*
X36996579Y-34403186D01*
X36834269Y-34387200D01*
X35925731Y-34387200D01*
X35763421Y-34403186D01*
X35555166Y-34466360D01*
X35538177Y-34475441D01*
X33172400Y-32109664D01*
X33172400Y-27688830D01*
X33233230Y-27729475D01*
X33346482Y-27776385D01*
X33466709Y-27800300D01*
X33575564Y-27800300D01*
X35258523Y-29483260D01*
X35271242Y-29498758D01*
X35286740Y-29511477D01*
X35286745Y-29511482D01*
X35307746Y-29528717D01*
X35311262Y-29531602D01*
X35195009Y-29627009D01*
X35056948Y-29795236D01*
X34954360Y-29987166D01*
X34891186Y-30195421D01*
X34869855Y-30412000D01*
X34891186Y-30628579D01*
X34954360Y-30836834D01*
X35056948Y-31028764D01*
X35195009Y-31196991D01*
X35363236Y-31335052D01*
X35555166Y-31437640D01*
X35763421Y-31500814D01*
X35925731Y-31516800D01*
X36834269Y-31516800D01*
X36996579Y-31500814D01*
X37204834Y-31437640D01*
X37396764Y-31335052D01*
X37564991Y-31196991D01*
X37703052Y-31028764D01*
X37805640Y-30836834D01*
X37811232Y-30818400D01*
X39342064Y-30818400D01*
X37745609Y-32414855D01*
X37703052Y-32335236D01*
X37564991Y-32167009D01*
X37396764Y-32028948D01*
X37204834Y-31926360D01*
X36996579Y-31863186D01*
X36834269Y-31847200D01*
X35925731Y-31847200D01*
X35763421Y-31863186D01*
X35555166Y-31926360D01*
X35363236Y-32028948D01*
X35195009Y-32167009D01*
X35056948Y-32335236D01*
X34954360Y-32527166D01*
X34891186Y-32735421D01*
X34869855Y-32952000D01*
X34891186Y-33168579D01*
X34954360Y-33376834D01*
X35056948Y-33568764D01*
X35195009Y-33736991D01*
X35363236Y-33875052D01*
X35555166Y-33977640D01*
X35763421Y-34040814D01*
X35925731Y-34056800D01*
X36834269Y-34056800D01*
X36996579Y-34040814D01*
X37204834Y-33977640D01*
X37396764Y-33875052D01*
X37564991Y-33736991D01*
X37703052Y-33568764D01*
X37805640Y-33376834D01*
X37811481Y-33357580D01*
X37862868Y-33352519D01*
X37939475Y-33329281D01*
X38010076Y-33291544D01*
X38071958Y-33240758D01*
X38084682Y-33225254D01*
X43707261Y-27602676D01*
X43722758Y-27589958D01*
X43735477Y-27574460D01*
X43735482Y-27574455D01*
X43752717Y-27553454D01*
X43773544Y-27528076D01*
X43811281Y-27457475D01*
X43820868Y-27425871D01*
X43834519Y-27380869D01*
X43836622Y-27359518D01*
X43840400Y-27321160D01*
X43840400Y-27321153D01*
X43842365Y-27301200D01*
X43840400Y-27281247D01*
X43840400Y-26076336D01*
X45594027Y-24322709D01*
X47383700Y-24322709D01*
X47383700Y-24445291D01*
X47407615Y-24565518D01*
X47454525Y-24678770D01*
X47522628Y-24780693D01*
X47609307Y-24867372D01*
X47711230Y-24935475D01*
X47824482Y-24982385D01*
X47944709Y-25006300D01*
X48067291Y-25006300D01*
X48187518Y-24982385D01*
X48300770Y-24935475D01*
X48402693Y-24867372D01*
X48479665Y-24790400D01*
X49764047Y-24790400D01*
X49784000Y-24792365D01*
X49803953Y-24790400D01*
X49803960Y-24790400D01*
X49863668Y-24784519D01*
X49940275Y-24761281D01*
X50010876Y-24723544D01*
X50072758Y-24672758D01*
X50085482Y-24657254D01*
X52537482Y-22205254D01*
X53115231Y-21627506D01*
X53149939Y-21646058D01*
X53367620Y-21712090D01*
X53537276Y-21728800D01*
X53650724Y-21728800D01*
X53820380Y-21712090D01*
X54038061Y-21646058D01*
X54238676Y-21538827D01*
X54414518Y-21394518D01*
X54558827Y-21218676D01*
X54666058Y-21018061D01*
X54732090Y-20800380D01*
X54754387Y-20574000D01*
X54732090Y-20347620D01*
X54666058Y-20129939D01*
X54558827Y-19929324D01*
X54414518Y-19753482D01*
X54238676Y-19609173D01*
X54038061Y-19501942D01*
X53820380Y-19435910D01*
X53650724Y-19419200D01*
X53537276Y-19419200D01*
X53367620Y-19435910D01*
X53149939Y-19501942D01*
X52949324Y-19609173D01*
X52773482Y-19753482D01*
X52629173Y-19929324D01*
X52521942Y-20129939D01*
X52455910Y-20347620D01*
X52433613Y-20574000D01*
X52455910Y-20800380D01*
X52521942Y-21018061D01*
X52540494Y-21052769D01*
X51962746Y-21630518D01*
X49615664Y-23977600D01*
X48479665Y-23977600D01*
X48402693Y-23900628D01*
X48300770Y-23832525D01*
X48187518Y-23785615D01*
X48067291Y-23761700D01*
X47944709Y-23761700D01*
X47824482Y-23785615D01*
X47711230Y-23832525D01*
X47609307Y-23900628D01*
X47522628Y-23987307D01*
X47454525Y-24089230D01*
X47407615Y-24202482D01*
X47383700Y-24322709D01*
X45594027Y-24322709D01*
X47628534Y-22288203D01*
X47632582Y-22308551D01*
X47679492Y-22421803D01*
X47747595Y-22523726D01*
X47752868Y-22528999D01*
X47709651Y-22593678D01*
X47662741Y-22706930D01*
X47638826Y-22827157D01*
X47638826Y-22949739D01*
X47662741Y-23069966D01*
X47709651Y-23183218D01*
X47777754Y-23285141D01*
X47864433Y-23371820D01*
X47966356Y-23439923D01*
X48079608Y-23486833D01*
X48199835Y-23510748D01*
X48322417Y-23510748D01*
X48442644Y-23486833D01*
X48555896Y-23439923D01*
X48657819Y-23371820D01*
X48744498Y-23285141D01*
X48812601Y-23183218D01*
X48859511Y-23069966D01*
X48883426Y-22949739D01*
X48883426Y-22840884D01*
X49050318Y-22673991D01*
X49065827Y-22661263D01*
X49116613Y-22599381D01*
X49154350Y-22528780D01*
X49177588Y-22452173D01*
X49183469Y-22392465D01*
X49183469Y-22392459D01*
X49185434Y-22372506D01*
X49183469Y-22352553D01*
X49183469Y-21966067D01*
X52437726Y-18711810D01*
X52437726Y-18884000D01*
X52443611Y-18943751D01*
X52461040Y-19001206D01*
X52489342Y-19054157D01*
X52527432Y-19100568D01*
X52573843Y-19138658D01*
X52626794Y-19166960D01*
X52684249Y-19184389D01*
X52744000Y-19190274D01*
X54444000Y-19190274D01*
X54503751Y-19184389D01*
X54561206Y-19166960D01*
X54614157Y-19138658D01*
X54648999Y-19110063D01*
X54648999Y-19475446D01*
X54647034Y-19495399D01*
X54648999Y-19515352D01*
X54648999Y-19515358D01*
X54651688Y-19542658D01*
X54654880Y-19575067D01*
X54665226Y-19609173D01*
X54678118Y-19651673D01*
X54715855Y-19722274D01*
X54766641Y-19784157D01*
X54782145Y-19796881D01*
X55080494Y-20095230D01*
X55061942Y-20129939D01*
X54995910Y-20347620D01*
X54973613Y-20574000D01*
X54995910Y-20800380D01*
X55061942Y-21018061D01*
X55080494Y-21052770D01*
X54590746Y-21542518D01*
X54575242Y-21555242D01*
X54524456Y-21617125D01*
X54502575Y-21658062D01*
X54486719Y-21687726D01*
X54465151Y-21758829D01*
X54463481Y-21764333D01*
X54457600Y-21824041D01*
X54457600Y-21824047D01*
X54455635Y-21844000D01*
X54457600Y-21863953D01*
X54457600Y-22345978D01*
X54414518Y-22293482D01*
X54238676Y-22149173D01*
X54038061Y-22041942D01*
X53820380Y-21975910D01*
X53650724Y-21959200D01*
X53537276Y-21959200D01*
X53367620Y-21975910D01*
X53149939Y-22041942D01*
X52949324Y-22149173D01*
X52773482Y-22293482D01*
X52629173Y-22469324D01*
X52521942Y-22669939D01*
X52455910Y-22887620D01*
X52433613Y-23114000D01*
X52455910Y-23340380D01*
X52521942Y-23558061D01*
X52629173Y-23758676D01*
X52773482Y-23934518D01*
X52949324Y-24078827D01*
X53149939Y-24186058D01*
X53367620Y-24252090D01*
X53537276Y-24268800D01*
X53642464Y-24268800D01*
X53574746Y-24336518D01*
X53559242Y-24349242D01*
X53508456Y-24411125D01*
X53474643Y-24474385D01*
X53470719Y-24481726D01*
X53447482Y-24558331D01*
X53447481Y-24558333D01*
X53441600Y-24618041D01*
X53441600Y-24618047D01*
X53439635Y-24638000D01*
X53441600Y-24657953D01*
X53441601Y-38947662D01*
X49069564Y-43319700D01*
X48960709Y-43319700D01*
X48840482Y-43343615D01*
X48727230Y-43390525D01*
X48625307Y-43458628D01*
X48538628Y-43545307D01*
X48470525Y-43647230D01*
X48423615Y-43760482D01*
X48399700Y-43880709D01*
X48399700Y-44003291D01*
X48423615Y-44123518D01*
X48470525Y-44236770D01*
X48538628Y-44338693D01*
X48625307Y-44425372D01*
X48727230Y-44493475D01*
X48840482Y-44540385D01*
X48960709Y-44564300D01*
X49083291Y-44564300D01*
X49203518Y-44540385D01*
X49316770Y-44493475D01*
X49418693Y-44425372D01*
X49505372Y-44338693D01*
X49566229Y-44247614D01*
X50777140Y-44247614D01*
X50777140Y-44652386D01*
X50856107Y-45049381D01*
X51011006Y-45423341D01*
X51235886Y-45759897D01*
X51522103Y-46046114D01*
X51858659Y-46270994D01*
X52232619Y-46425893D01*
X52629614Y-46504860D01*
X53034386Y-46504860D01*
X53431381Y-46425893D01*
X53805341Y-46270994D01*
X54141897Y-46046114D01*
X54428114Y-45759897D01*
X54652994Y-45423341D01*
X54807893Y-45049381D01*
X54886860Y-44652386D01*
X54886860Y-44247614D01*
X54807893Y-43850619D01*
X54652994Y-43476659D01*
X54428114Y-43140103D01*
X54141897Y-42853886D01*
X53805341Y-42629006D01*
X53431381Y-42474107D01*
X53034386Y-42395140D01*
X52629614Y-42395140D01*
X52232619Y-42474107D01*
X51858659Y-42629006D01*
X51522103Y-42853886D01*
X51235886Y-43140103D01*
X51011006Y-43476659D01*
X50856107Y-43850619D01*
X50777140Y-44247614D01*
X49566229Y-44247614D01*
X49573475Y-44236770D01*
X49620385Y-44123518D01*
X49644300Y-44003291D01*
X49644300Y-43894436D01*
X52060480Y-41478256D01*
X53821330Y-41478256D01*
X53821330Y-41833744D01*
X53890682Y-42182403D01*
X54026722Y-42510832D01*
X54224221Y-42806410D01*
X54475590Y-43057779D01*
X54771168Y-43255278D01*
X55099597Y-43391318D01*
X55448256Y-43460670D01*
X55803744Y-43460670D01*
X56152403Y-43391318D01*
X56480832Y-43255278D01*
X56776410Y-43057779D01*
X57027779Y-42806410D01*
X57225278Y-42510832D01*
X57361318Y-42182403D01*
X57430670Y-41833744D01*
X57430670Y-41478256D01*
X57361318Y-41129597D01*
X57225278Y-40801168D01*
X57027779Y-40505590D01*
X56776410Y-40254221D01*
X56480832Y-40056722D01*
X56152403Y-39920682D01*
X55803744Y-39851330D01*
X55448256Y-39851330D01*
X55099597Y-39920682D01*
X54771168Y-40056722D01*
X54475590Y-40254221D01*
X54224221Y-40505590D01*
X54026722Y-40801168D01*
X53890682Y-41129597D01*
X53821330Y-41478256D01*
X52060480Y-41478256D01*
X54121260Y-39417477D01*
X54136758Y-39404758D01*
X54149477Y-39389260D01*
X54149482Y-39389255D01*
X54166717Y-39368254D01*
X54187544Y-39342876D01*
X54225281Y-39272275D01*
X54232712Y-39247779D01*
X54248519Y-39195669D01*
X54252942Y-39150758D01*
X54254400Y-39135960D01*
X54254400Y-39135953D01*
X54256365Y-39116000D01*
X54254400Y-39096047D01*
X54254400Y-39026589D01*
X54475590Y-39247779D01*
X54771168Y-39445278D01*
X55099597Y-39581318D01*
X55448256Y-39650670D01*
X55803744Y-39650670D01*
X56152403Y-39581318D01*
X56480832Y-39445278D01*
X56776410Y-39247779D01*
X57027779Y-38996410D01*
X57225278Y-38700832D01*
X57361318Y-38372403D01*
X57430670Y-38023744D01*
X57430670Y-37668256D01*
X57361318Y-37319597D01*
X57225278Y-36991168D01*
X57027779Y-36695590D01*
X56776410Y-36444221D01*
X56480832Y-36246722D01*
X56152403Y-36110682D01*
X55803744Y-36041330D01*
X55448256Y-36041330D01*
X55099597Y-36110682D01*
X54771168Y-36246722D01*
X54475590Y-36444221D01*
X54254400Y-36665411D01*
X54254400Y-35216589D01*
X54475590Y-35437779D01*
X54771168Y-35635278D01*
X55099597Y-35771318D01*
X55448256Y-35840670D01*
X55803744Y-35840670D01*
X56152403Y-35771318D01*
X56480832Y-35635278D01*
X56776410Y-35437779D01*
X57027779Y-35186410D01*
X57225278Y-34890832D01*
X57361318Y-34562403D01*
X57430670Y-34213744D01*
X57430670Y-33858256D01*
X57361318Y-33509597D01*
X57225278Y-33181168D01*
X57157302Y-33079434D01*
X58439255Y-31797481D01*
X58454758Y-31784758D01*
X58505544Y-31722876D01*
X58543281Y-31652275D01*
X58566519Y-31575668D01*
X58572400Y-31515960D01*
X58572400Y-31515954D01*
X58574365Y-31496001D01*
X58572400Y-31476048D01*
X58572400Y-17545953D01*
X58574365Y-17526000D01*
X58572400Y-17506047D01*
X58572400Y-17506040D01*
X58567235Y-17453604D01*
X58566519Y-17446331D01*
X58543281Y-17369725D01*
X58540198Y-17363957D01*
X58505544Y-17299124D01*
X58484717Y-17273746D01*
X58467482Y-17252745D01*
X58467477Y-17252740D01*
X58454758Y-17237242D01*
X58439260Y-17224523D01*
X56689482Y-15474746D01*
X56676758Y-15459242D01*
X56614876Y-15408456D01*
X56544275Y-15370719D01*
X56467668Y-15347481D01*
X56407960Y-15341600D01*
X56407953Y-15341600D01*
X56388000Y-15339635D01*
X56368047Y-15341600D01*
X47412335Y-15341600D01*
X47291482Y-15220747D01*
X47278758Y-15205242D01*
X47216876Y-15154456D01*
X47146275Y-15116719D01*
X47069668Y-15093481D01*
X47009960Y-15087600D01*
X47009953Y-15087600D01*
X46990000Y-15085635D01*
X46970047Y-15087600D01*
X44313060Y-15087600D01*
X44293107Y-15085635D01*
X44273154Y-15087600D01*
X44273148Y-15087600D01*
X44221443Y-15092693D01*
X44213439Y-15093481D01*
X44195610Y-15098890D01*
X44136833Y-15116719D01*
X44066232Y-15154456D01*
X44004350Y-15205242D01*
X43991622Y-15220750D01*
X43922757Y-15289615D01*
X43907252Y-15302340D01*
X43894529Y-15317843D01*
X43894528Y-15317844D01*
X43887858Y-15325971D01*
X43856466Y-15364223D01*
X43829682Y-15414332D01*
X43818729Y-15434824D01*
X43797653Y-15504305D01*
X43795491Y-15511431D01*
X43790123Y-15565932D01*
X43712638Y-15643417D01*
X43644535Y-15745340D01*
X43597625Y-15858592D01*
X43573710Y-15978819D01*
X43573710Y-16101401D01*
X43597625Y-16221628D01*
X43644535Y-16334880D01*
X43712638Y-16436803D01*
X43799317Y-16523482D01*
X43901240Y-16591585D01*
X44014492Y-16638495D01*
X44134719Y-16662410D01*
X44257301Y-16662410D01*
X44377528Y-16638495D01*
X44490780Y-16591585D01*
X44592703Y-16523482D01*
X44679382Y-16436803D01*
X44747485Y-16334880D01*
X44794395Y-16221628D01*
X44818310Y-16101401D01*
X44818310Y-15978819D01*
X44802711Y-15900400D01*
X45875299Y-15900400D01*
X45859700Y-15978819D01*
X45859700Y-16101401D01*
X45883615Y-16221628D01*
X45930525Y-16334880D01*
X45998628Y-16436803D01*
X46085307Y-16523482D01*
X46187230Y-16591585D01*
X46300482Y-16638495D01*
X46420709Y-16662410D01*
X46530289Y-16662410D01*
X46572623Y-16697153D01*
X46643224Y-16734890D01*
X46688513Y-16748628D01*
X46719830Y-16758128D01*
X46727834Y-16758916D01*
X46779539Y-16764009D01*
X46779545Y-16764009D01*
X46799498Y-16765974D01*
X46819451Y-16764009D01*
X52003254Y-16764009D01*
X47957713Y-20809551D01*
X47942209Y-20822275D01*
X47929486Y-20837778D01*
X47929485Y-20837779D01*
X47922815Y-20845906D01*
X47904400Y-20868345D01*
X47904400Y-19058177D01*
X47981372Y-18981205D01*
X48049475Y-18879282D01*
X48096385Y-18766030D01*
X48120300Y-18645803D01*
X48120300Y-18523221D01*
X48096385Y-18402994D01*
X48049475Y-18289742D01*
X47994389Y-18207300D01*
X49331235Y-18207300D01*
X49387307Y-18263372D01*
X49489230Y-18331475D01*
X49602482Y-18378385D01*
X49722709Y-18402300D01*
X49845291Y-18402300D01*
X49965518Y-18378385D01*
X50078770Y-18331475D01*
X50180693Y-18263372D01*
X50267372Y-18176693D01*
X50335475Y-18074770D01*
X50382385Y-17961518D01*
X50406300Y-17841291D01*
X50406300Y-17718709D01*
X50382385Y-17598482D01*
X50335475Y-17485230D01*
X50267372Y-17383307D01*
X50180693Y-17296628D01*
X50078770Y-17228525D01*
X49965518Y-17181615D01*
X49845291Y-17157700D01*
X49722709Y-17157700D01*
X49602482Y-17181615D01*
X49517778Y-17216700D01*
X45676317Y-17216700D01*
X45652000Y-17214305D01*
X45627683Y-17216700D01*
X41966842Y-17216700D01*
X41882770Y-17160525D01*
X41769518Y-17113615D01*
X41649291Y-17089700D01*
X41526709Y-17089700D01*
X41406482Y-17113615D01*
X41293230Y-17160525D01*
X41209158Y-17216700D01*
X37767975Y-17216700D01*
X37703052Y-17095236D01*
X37564991Y-16927009D01*
X37396764Y-16788948D01*
X37204834Y-16686360D01*
X36996579Y-16623186D01*
X36875300Y-16611241D01*
X36875300Y-16555317D01*
X36877695Y-16531000D01*
X36875300Y-16506683D01*
X36875300Y-16506673D01*
X36868133Y-16433904D01*
X36839811Y-16340540D01*
X36793819Y-16254495D01*
X36766812Y-16221587D01*
X36747431Y-16197971D01*
X36747430Y-16197970D01*
X36731924Y-16179076D01*
X36713030Y-16163570D01*
X36218434Y-15668975D01*
X36202924Y-15650076D01*
X36127505Y-15588181D01*
X36041460Y-15542189D01*
X35948096Y-15513867D01*
X35875327Y-15506700D01*
X35875317Y-15506700D01*
X35851000Y-15504305D01*
X35826683Y-15506700D01*
X23138316Y-15506700D01*
X23113999Y-15504305D01*
X23089682Y-15506700D01*
X23089673Y-15506700D01*
X23016904Y-15513867D01*
X22923540Y-15542189D01*
X22896321Y-15556738D01*
X22837494Y-15588181D01*
X22780971Y-15634569D01*
X22762076Y-15650076D01*
X22746570Y-15668970D01*
X21433815Y-16981726D01*
X19828000Y-16981726D01*
X19768249Y-16987611D01*
X19710794Y-17005040D01*
X19657843Y-17033342D01*
X19611432Y-17071432D01*
X19573342Y-17117843D01*
X19545040Y-17170794D01*
X19527611Y-17228249D01*
X19521726Y-17288000D01*
X19521726Y-19288000D01*
X19527611Y-19347751D01*
X19545040Y-19405206D01*
X19573342Y-19458157D01*
X19611432Y-19504568D01*
X19657843Y-19542658D01*
X19710794Y-19570960D01*
X19768249Y-19588389D01*
X19828000Y-19594274D01*
X20332701Y-19594274D01*
X20332701Y-20803673D01*
X20330305Y-20828000D01*
X20332701Y-20852327D01*
X20337270Y-20898712D01*
X20339868Y-20925095D01*
X20368189Y-21018459D01*
X20414181Y-21104504D01*
X20431392Y-21125475D01*
X20476077Y-21179924D01*
X20494971Y-21195430D01*
X22364700Y-23065160D01*
X22364701Y-37791969D01*
X17954975Y-42201696D01*
X17936076Y-42217206D01*
X17874181Y-42292625D01*
X17828189Y-42378671D01*
X17799867Y-42472035D01*
X17792700Y-42544804D01*
X17792700Y-42544813D01*
X17790305Y-42569130D01*
X17792700Y-42593447D01*
X17792700Y-42643856D01*
X16788130Y-42643856D01*
X16728379Y-42649741D01*
X16670924Y-42667170D01*
X16617973Y-42695472D01*
X16571562Y-42733562D01*
X16533472Y-42779973D01*
X16505170Y-42832924D01*
X16487741Y-42890379D01*
X16481856Y-42950130D01*
X14553800Y-42950130D01*
X14553800Y-24659488D01*
X19523200Y-24659488D01*
X19523200Y-24916512D01*
X19573343Y-25168596D01*
X19671702Y-25406054D01*
X19814496Y-25619761D01*
X19996239Y-25801504D01*
X20209946Y-25944298D01*
X20447404Y-26042657D01*
X20699488Y-26092800D01*
X20956512Y-26092800D01*
X21208596Y-26042657D01*
X21446054Y-25944298D01*
X21659761Y-25801504D01*
X21841504Y-25619761D01*
X21984298Y-25406054D01*
X22082657Y-25168596D01*
X22132800Y-24916512D01*
X22132800Y-24659488D01*
X22082657Y-24407404D01*
X21984298Y-24169946D01*
X21841504Y-23956239D01*
X21659761Y-23774496D01*
X21446054Y-23631702D01*
X21208596Y-23533343D01*
X20956512Y-23483200D01*
X20699488Y-23483200D01*
X20447404Y-23533343D01*
X20209946Y-23631702D01*
X19996239Y-23774496D01*
X19814496Y-23956239D01*
X19671702Y-24169946D01*
X19573343Y-24407404D01*
X19523200Y-24659488D01*
X14553800Y-24659488D01*
X14553800Y-18558130D01*
X14621631Y-17866333D01*
X14817857Y-17216402D01*
X15136583Y-16616964D01*
X15565675Y-16090845D01*
X16088779Y-15658096D01*
X16685980Y-15335190D01*
X17334529Y-15134431D01*
X18025256Y-15061833D01*
X18034581Y-15061800D01*
X55355870Y-15061800D01*
X56047667Y-15129631D01*
G36*
X51663600Y-27263664D02*
G01*
X48345664Y-30581600D01*
X42891136Y-30581600D01*
X45989488Y-27483248D01*
X47000110Y-27483248D01*
X47077082Y-27560220D01*
X47179005Y-27628323D01*
X47292257Y-27675233D01*
X47412484Y-27699148D01*
X47535066Y-27699148D01*
X47655293Y-27675233D01*
X47768545Y-27628323D01*
X47870468Y-27560220D01*
X47885894Y-27544794D01*
X47939560Y-27580653D01*
X48052812Y-27627563D01*
X48173039Y-27651478D01*
X48295621Y-27651478D01*
X48415848Y-27627563D01*
X48529100Y-27580653D01*
X48599953Y-27533310D01*
X47367774Y-28765490D01*
X47209665Y-28765490D01*
X47132693Y-28688518D01*
X47030770Y-28620415D01*
X46917518Y-28573505D01*
X46797291Y-28549590D01*
X46674709Y-28549590D01*
X46554482Y-28573505D01*
X46441230Y-28620415D01*
X46339307Y-28688518D01*
X46252628Y-28775197D01*
X46184525Y-28877120D01*
X46137615Y-28990372D01*
X46113700Y-29110599D01*
X46113700Y-29233181D01*
X46137615Y-29353408D01*
X46184525Y-29466660D01*
X46252628Y-29568583D01*
X46339307Y-29655262D01*
X46441230Y-29723365D01*
X46554482Y-29770275D01*
X46674709Y-29794190D01*
X46797291Y-29794190D01*
X46917518Y-29770275D01*
X47030770Y-29723365D01*
X47132693Y-29655262D01*
X47209665Y-29578290D01*
X47516157Y-29578290D01*
X47536110Y-29580255D01*
X47556063Y-29578290D01*
X47556070Y-29578290D01*
X47615778Y-29572409D01*
X47692385Y-29549171D01*
X47762986Y-29511434D01*
X47824868Y-29460648D01*
X47837592Y-29445144D01*
X49515581Y-27767156D01*
X49555526Y-27793846D01*
X49838482Y-27911050D01*
X50138866Y-27970800D01*
X50445134Y-27970800D01*
X50745518Y-27911050D01*
X51028474Y-27793846D01*
X51283127Y-27623692D01*
X51499692Y-27407127D01*
X51663600Y-27161822D01*
X51663600Y-27263664D01*
X51663600Y-27263664D01*
G37*
X51663600Y-27263664D02*
X48345664Y-30581600D01*
X42891136Y-30581600D01*
X45989488Y-27483248D01*
X47000110Y-27483248D01*
X47077082Y-27560220D01*
X47179005Y-27628323D01*
X47292257Y-27675233D01*
X47412484Y-27699148D01*
X47535066Y-27699148D01*
X47655293Y-27675233D01*
X47768545Y-27628323D01*
X47870468Y-27560220D01*
X47885894Y-27544794D01*
X47939560Y-27580653D01*
X48052812Y-27627563D01*
X48173039Y-27651478D01*
X48295621Y-27651478D01*
X48415848Y-27627563D01*
X48529100Y-27580653D01*
X48599953Y-27533310D01*
X47367774Y-28765490D01*
X47209665Y-28765490D01*
X47132693Y-28688518D01*
X47030770Y-28620415D01*
X46917518Y-28573505D01*
X46797291Y-28549590D01*
X46674709Y-28549590D01*
X46554482Y-28573505D01*
X46441230Y-28620415D01*
X46339307Y-28688518D01*
X46252628Y-28775197D01*
X46184525Y-28877120D01*
X46137615Y-28990372D01*
X46113700Y-29110599D01*
X46113700Y-29233181D01*
X46137615Y-29353408D01*
X46184525Y-29466660D01*
X46252628Y-29568583D01*
X46339307Y-29655262D01*
X46441230Y-29723365D01*
X46554482Y-29770275D01*
X46674709Y-29794190D01*
X46797291Y-29794190D01*
X46917518Y-29770275D01*
X47030770Y-29723365D01*
X47132693Y-29655262D01*
X47209665Y-29578290D01*
X47516157Y-29578290D01*
X47536110Y-29580255D01*
X47556063Y-29578290D01*
X47556070Y-29578290D01*
X47615778Y-29572409D01*
X47692385Y-29549171D01*
X47762986Y-29511434D01*
X47824868Y-29460648D01*
X47837592Y-29445144D01*
X49515581Y-27767156D01*
X49555526Y-27793846D01*
X49838482Y-27911050D01*
X50138866Y-27970800D01*
X50445134Y-27970800D01*
X50745518Y-27911050D01*
X51028474Y-27793846D01*
X51283127Y-27623692D01*
X51499692Y-27407127D01*
X51663600Y-27161822D01*
X51663600Y-27263664D01*
G36*
X57251601Y-22827319D02*
G01*
X57216834Y-22712700D01*
X57117738Y-22509160D01*
X56980837Y-22328864D01*
X56811393Y-22178740D01*
X56615917Y-22064558D01*
X56401921Y-21990705D01*
X56222900Y-22038823D01*
X56222900Y-23025100D01*
X56242900Y-23025100D01*
X56242900Y-23202900D01*
X56222900Y-23202900D01*
X56222900Y-24189177D01*
X56401921Y-24237295D01*
X56615917Y-24163442D01*
X56811393Y-24049260D01*
X56980837Y-23899136D01*
X57117738Y-23718840D01*
X57216834Y-23515300D01*
X57251600Y-23400681D01*
X57251600Y-24637725D01*
X57243076Y-24633169D01*
X57185621Y-24615740D01*
X57125870Y-24609855D01*
X55791100Y-24611330D01*
X55714900Y-24687530D01*
X55714900Y-26327100D01*
X55734900Y-26327100D01*
X55734900Y-26504900D01*
X55714900Y-26504900D01*
X55714900Y-28144470D01*
X55791100Y-28220670D01*
X57055196Y-28222067D01*
X56582565Y-28694698D01*
X56480832Y-28626722D01*
X56152403Y-28490682D01*
X55803744Y-28421330D01*
X55448256Y-28421330D01*
X55099597Y-28490682D01*
X54771168Y-28626722D01*
X54475590Y-28824221D01*
X54254400Y-29045411D01*
X54254400Y-28222003D01*
X55460900Y-28220670D01*
X55537100Y-28144470D01*
X55537100Y-26504900D01*
X55517100Y-26504900D01*
X55517100Y-26327100D01*
X55537100Y-26327100D01*
X55537100Y-24687530D01*
X55460900Y-24611330D01*
X54450523Y-24610213D01*
X55137259Y-23923478D01*
X55152758Y-23910758D01*
X55165477Y-23895260D01*
X55165482Y-23895255D01*
X55182717Y-23874254D01*
X55203544Y-23848876D01*
X55222323Y-23813743D01*
X55287163Y-23899136D01*
X55456607Y-24049260D01*
X55652083Y-24163442D01*
X55866079Y-24237295D01*
X56045100Y-24189177D01*
X56045100Y-23202900D01*
X56025100Y-23202900D01*
X56025100Y-23025100D01*
X56045100Y-23025100D01*
X56045100Y-22038823D01*
X55866079Y-21990705D01*
X55652083Y-22064558D01*
X55456607Y-22178740D01*
X55287163Y-22328864D01*
X55270400Y-22350941D01*
X55270400Y-22012336D01*
X55655230Y-21627506D01*
X55689939Y-21646058D01*
X55907620Y-21712090D01*
X56077276Y-21728800D01*
X56190724Y-21728800D01*
X56360380Y-21712090D01*
X56578061Y-21646058D01*
X56778676Y-21538827D01*
X56954518Y-21394518D01*
X57098827Y-21218676D01*
X57206058Y-21018061D01*
X57251601Y-20867925D01*
X57251601Y-22827319D01*
X57251601Y-22827319D01*
G37*
X57251601Y-22827319D02*
X57216834Y-22712700D01*
X57117738Y-22509160D01*
X56980837Y-22328864D01*
X56811393Y-22178740D01*
X56615917Y-22064558D01*
X56401921Y-21990705D01*
X56222900Y-22038823D01*
X56222900Y-23025100D01*
X56242900Y-23025100D01*
X56242900Y-23202900D01*
X56222900Y-23202900D01*
X56222900Y-24189177D01*
X56401921Y-24237295D01*
X56615917Y-24163442D01*
X56811393Y-24049260D01*
X56980837Y-23899136D01*
X57117738Y-23718840D01*
X57216834Y-23515300D01*
X57251600Y-23400681D01*
X57251600Y-24637725D01*
X57243076Y-24633169D01*
X57185621Y-24615740D01*
X57125870Y-24609855D01*
X55791100Y-24611330D01*
X55714900Y-24687530D01*
X55714900Y-26327100D01*
X55734900Y-26327100D01*
X55734900Y-26504900D01*
X55714900Y-26504900D01*
X55714900Y-28144470D01*
X55791100Y-28220670D01*
X57055196Y-28222067D01*
X56582565Y-28694698D01*
X56480832Y-28626722D01*
X56152403Y-28490682D01*
X55803744Y-28421330D01*
X55448256Y-28421330D01*
X55099597Y-28490682D01*
X54771168Y-28626722D01*
X54475590Y-28824221D01*
X54254400Y-29045411D01*
X54254400Y-28222003D01*
X55460900Y-28220670D01*
X55537100Y-28144470D01*
X55537100Y-26504900D01*
X55517100Y-26504900D01*
X55517100Y-26327100D01*
X55537100Y-26327100D01*
X55537100Y-24687530D01*
X55460900Y-24611330D01*
X54450523Y-24610213D01*
X55137259Y-23923478D01*
X55152758Y-23910758D01*
X55165477Y-23895260D01*
X55165482Y-23895255D01*
X55182717Y-23874254D01*
X55203544Y-23848876D01*
X55222323Y-23813743D01*
X55287163Y-23899136D01*
X55456607Y-24049260D01*
X55652083Y-24163442D01*
X55866079Y-24237295D01*
X56045100Y-24189177D01*
X56045100Y-23202900D01*
X56025100Y-23202900D01*
X56025100Y-23025100D01*
X56045100Y-23025100D01*
X56045100Y-22038823D01*
X55866079Y-21990705D01*
X55652083Y-22064558D01*
X55456607Y-22178740D01*
X55287163Y-22328864D01*
X55270400Y-22350941D01*
X55270400Y-22012336D01*
X55655230Y-21627506D01*
X55689939Y-21646058D01*
X55907620Y-21712090D01*
X56077276Y-21728800D01*
X56190724Y-21728800D01*
X56360380Y-21712090D01*
X56578061Y-21646058D01*
X56778676Y-21538827D01*
X56954518Y-21394518D01*
X57098827Y-21218676D01*
X57206058Y-21018061D01*
X57251601Y-20867925D01*
X57251601Y-22827319D01*
G36*
X44307307Y-20041372D02*
G01*
X44409230Y-20109475D01*
X44522482Y-20156385D01*
X44642709Y-20180300D01*
X44765291Y-20180300D01*
X44885518Y-20156385D01*
X44970701Y-20121102D01*
X44970701Y-20552434D01*
X44935262Y-20528755D01*
X44822010Y-20481845D01*
X44701783Y-20457930D01*
X44579201Y-20457930D01*
X44458974Y-20481845D01*
X44345722Y-20528755D01*
X44243799Y-20596858D01*
X44157120Y-20683537D01*
X44089017Y-20785460D01*
X44042107Y-20898712D01*
X44018192Y-21018939D01*
X44018192Y-21141521D01*
X44042107Y-21261748D01*
X44089017Y-21375000D01*
X44141481Y-21453517D01*
X38569398Y-27025600D01*
X37534837Y-27025600D01*
X37564876Y-27009544D01*
X37626758Y-26958758D01*
X37639482Y-26943254D01*
X39830436Y-24752300D01*
X39939291Y-24752300D01*
X40059518Y-24728385D01*
X40172770Y-24681475D01*
X40274693Y-24613372D01*
X40361372Y-24526693D01*
X40429475Y-24424770D01*
X40476385Y-24311518D01*
X40500300Y-24191291D01*
X40500300Y-24068709D01*
X40476385Y-23948482D01*
X40429475Y-23835230D01*
X40361372Y-23733307D01*
X40274693Y-23646628D01*
X40172770Y-23578525D01*
X40129382Y-23560554D01*
X43725536Y-19964400D01*
X44230335Y-19964400D01*
X44307307Y-20041372D01*
X44307307Y-20041372D01*
G37*
X44307307Y-20041372D02*
X44409230Y-20109475D01*
X44522482Y-20156385D01*
X44642709Y-20180300D01*
X44765291Y-20180300D01*
X44885518Y-20156385D01*
X44970701Y-20121102D01*
X44970701Y-20552434D01*
X44935262Y-20528755D01*
X44822010Y-20481845D01*
X44701783Y-20457930D01*
X44579201Y-20457930D01*
X44458974Y-20481845D01*
X44345722Y-20528755D01*
X44243799Y-20596858D01*
X44157120Y-20683537D01*
X44089017Y-20785460D01*
X44042107Y-20898712D01*
X44018192Y-21018939D01*
X44018192Y-21141521D01*
X44042107Y-21261748D01*
X44089017Y-21375000D01*
X44141481Y-21453517D01*
X38569398Y-27025600D01*
X37534837Y-27025600D01*
X37564876Y-27009544D01*
X37626758Y-26958758D01*
X37639482Y-26943254D01*
X39830436Y-24752300D01*
X39939291Y-24752300D01*
X40059518Y-24728385D01*
X40172770Y-24681475D01*
X40274693Y-24613372D01*
X40361372Y-24526693D01*
X40429475Y-24424770D01*
X40476385Y-24311518D01*
X40500300Y-24191291D01*
X40500300Y-24068709D01*
X40476385Y-23948482D01*
X40429475Y-23835230D01*
X40361372Y-23733307D01*
X40274693Y-23646628D01*
X40172770Y-23578525D01*
X40129382Y-23560554D01*
X43725536Y-19964400D01*
X44230335Y-19964400D01*
X44307307Y-20041372D01*
M02*
