G04 #@! TF.GenerationSoftware,KiCad,Pcbnew,(5.1.0-0)*
G04 #@! TF.CreationDate,2020-09-24T17:30:25-07:00*
G04 #@! TF.ProjectId,858D+ MK1841D3 to ATmega328,38353844-2b20-44d4-9b31-383431443320,rev?*
G04 #@! TF.SameCoordinates,Original*
G04 #@! TF.FileFunction,Soldermask,Bot*
G04 #@! TF.FilePolarity,Negative*
%FSLAX46Y46*%
G04 Gerber Fmt 4.6, Leading zero omitted, Abs format (unit mm)*
G04 Created by KiCad (PCBNEW (5.1.0-0)) date 2020-09-24 17:30:25*
%MOMM*%
%LPD*%
G04 APERTURE LIST*
%ADD10C,0.100000*%
G04 APERTURE END LIST*
D10*
G36*
X53096350Y-42666441D02*
G01*
X53357295Y-42718346D01*
X53685028Y-42854098D01*
X53752722Y-42899330D01*
X53979982Y-43051180D01*
X54230820Y-43302018D01*
X54230823Y-43302023D01*
X54427902Y-43596972D01*
X54563654Y-43924705D01*
X54632860Y-44272632D01*
X54632860Y-44627368D01*
X54563654Y-44975295D01*
X54427902Y-45303028D01*
X54337389Y-45438490D01*
X54230820Y-45597982D01*
X53979982Y-45848820D01*
X53880337Y-45915401D01*
X53685028Y-46045902D01*
X53357295Y-46181654D01*
X53096350Y-46233559D01*
X53009369Y-46250860D01*
X52654631Y-46250860D01*
X52567650Y-46233559D01*
X52306705Y-46181654D01*
X51978972Y-46045902D01*
X51783663Y-45915401D01*
X51684018Y-45848820D01*
X51433180Y-45597982D01*
X51326611Y-45438490D01*
X51236098Y-45303028D01*
X51100346Y-44975295D01*
X51031140Y-44627368D01*
X51031140Y-44272632D01*
X51100346Y-43924705D01*
X51236098Y-43596972D01*
X51433177Y-43302023D01*
X51433180Y-43302018D01*
X51684018Y-43051180D01*
X51911278Y-42899330D01*
X51978972Y-42854098D01*
X52306705Y-42718346D01*
X52567650Y-42666441D01*
X52654631Y-42649140D01*
X53009369Y-42649140D01*
X53096350Y-42666441D01*
X53096350Y-42666441D01*
G37*
G36*
X35062350Y-42666441D02*
G01*
X35323295Y-42718346D01*
X35651028Y-42854098D01*
X35718722Y-42899330D01*
X35945982Y-43051180D01*
X36196820Y-43302018D01*
X36196823Y-43302023D01*
X36393902Y-43596972D01*
X36529654Y-43924705D01*
X36598860Y-44272632D01*
X36598860Y-44627368D01*
X36529654Y-44975295D01*
X36393902Y-45303028D01*
X36303389Y-45438490D01*
X36196820Y-45597982D01*
X35945982Y-45848820D01*
X35846337Y-45915401D01*
X35651028Y-46045902D01*
X35323295Y-46181654D01*
X35062350Y-46233559D01*
X34975369Y-46250860D01*
X34620631Y-46250860D01*
X34533650Y-46233559D01*
X34272705Y-46181654D01*
X33944972Y-46045902D01*
X33749663Y-45915401D01*
X33650018Y-45848820D01*
X33399180Y-45597982D01*
X33292611Y-45438490D01*
X33202098Y-45303028D01*
X33066346Y-44975295D01*
X32997140Y-44627368D01*
X32997140Y-44272632D01*
X33066346Y-43924705D01*
X33202098Y-43596972D01*
X33399177Y-43302023D01*
X33399180Y-43302018D01*
X33650018Y-43051180D01*
X33877278Y-42899330D01*
X33944972Y-42854098D01*
X34272705Y-42718346D01*
X34533650Y-42666441D01*
X34620631Y-42649140D01*
X34975369Y-42649140D01*
X35062350Y-42666441D01*
X35062350Y-42666441D01*
G37*
G36*
X30170314Y-42958921D02*
G01*
X30170316Y-42958922D01*
X30170317Y-42958922D01*
X30452519Y-43075814D01*
X30706490Y-43245512D01*
X30922488Y-43461510D01*
X31092186Y-43715481D01*
X31209078Y-43997683D01*
X31209079Y-43997686D01*
X31268670Y-44297272D01*
X31268670Y-44602728D01*
X31263769Y-44627369D01*
X31209078Y-44902317D01*
X31092186Y-45184519D01*
X30922488Y-45438490D01*
X30706490Y-45654488D01*
X30452519Y-45824186D01*
X30170317Y-45941078D01*
X30170316Y-45941078D01*
X30170314Y-45941079D01*
X29870728Y-46000670D01*
X29565272Y-46000670D01*
X29265686Y-45941079D01*
X29265684Y-45941078D01*
X29265683Y-45941078D01*
X28983481Y-45824186D01*
X28729510Y-45654488D01*
X28513512Y-45438490D01*
X28343814Y-45184519D01*
X28226922Y-44902317D01*
X28172232Y-44627369D01*
X28167330Y-44602728D01*
X28167330Y-44297272D01*
X28226921Y-43997686D01*
X28226922Y-43997683D01*
X28343814Y-43715481D01*
X28513512Y-43461510D01*
X28729510Y-43245512D01*
X28983481Y-43075814D01*
X29265683Y-42958922D01*
X29265684Y-42958922D01*
X29265686Y-42958921D01*
X29565272Y-42899330D01*
X29870728Y-42899330D01*
X30170314Y-42958921D01*
X30170314Y-42958921D01*
G37*
G36*
X26360314Y-42958921D02*
G01*
X26360316Y-42958922D01*
X26360317Y-42958922D01*
X26642519Y-43075814D01*
X26896490Y-43245512D01*
X27112488Y-43461510D01*
X27282186Y-43715481D01*
X27399078Y-43997683D01*
X27399079Y-43997686D01*
X27458670Y-44297272D01*
X27458670Y-44602728D01*
X27453769Y-44627369D01*
X27399078Y-44902317D01*
X27282186Y-45184519D01*
X27112488Y-45438490D01*
X26896490Y-45654488D01*
X26642519Y-45824186D01*
X26360317Y-45941078D01*
X26360316Y-45941078D01*
X26360314Y-45941079D01*
X26060728Y-46000670D01*
X25755272Y-46000670D01*
X25455686Y-45941079D01*
X25455684Y-45941078D01*
X25455683Y-45941078D01*
X25173481Y-45824186D01*
X24919510Y-45654488D01*
X24703512Y-45438490D01*
X24533814Y-45184519D01*
X24416922Y-44902317D01*
X24362232Y-44627369D01*
X24357330Y-44602728D01*
X24357330Y-44297272D01*
X24416921Y-43997686D01*
X24416922Y-43997683D01*
X24533814Y-43715481D01*
X24703512Y-43461510D01*
X24919510Y-43245512D01*
X25173481Y-43075814D01*
X25455683Y-42958922D01*
X25455684Y-42958922D01*
X25455686Y-42958921D01*
X25755272Y-42899330D01*
X26060728Y-42899330D01*
X26360314Y-42958921D01*
X26360314Y-42958921D01*
G37*
G36*
X22550314Y-42958921D02*
G01*
X22550316Y-42958922D01*
X22550317Y-42958922D01*
X22832519Y-43075814D01*
X23086490Y-43245512D01*
X23302488Y-43461510D01*
X23472186Y-43715481D01*
X23589078Y-43997683D01*
X23589079Y-43997686D01*
X23648670Y-44297272D01*
X23648670Y-44602728D01*
X23643769Y-44627369D01*
X23589078Y-44902317D01*
X23472186Y-45184519D01*
X23302488Y-45438490D01*
X23086490Y-45654488D01*
X22832519Y-45824186D01*
X22550317Y-45941078D01*
X22550316Y-45941078D01*
X22550314Y-45941079D01*
X22250728Y-46000670D01*
X21945272Y-46000670D01*
X21645686Y-45941079D01*
X21645684Y-45941078D01*
X21645683Y-45941078D01*
X21363481Y-45824186D01*
X21109510Y-45654488D01*
X20893512Y-45438490D01*
X20723814Y-45184519D01*
X20606922Y-44902317D01*
X20552232Y-44627369D01*
X20547330Y-44602728D01*
X20547330Y-44297272D01*
X20606921Y-43997686D01*
X20606922Y-43997683D01*
X20723814Y-43715481D01*
X20893512Y-43461510D01*
X21109510Y-43245512D01*
X21363481Y-43075814D01*
X21645683Y-42958922D01*
X21645684Y-42958922D01*
X21645686Y-42958921D01*
X21945272Y-42899330D01*
X22250728Y-42899330D01*
X22550314Y-42958921D01*
X22550314Y-42958921D01*
G37*
G36*
X19838670Y-46000670D02*
G01*
X16737330Y-46000670D01*
X16737330Y-42899330D01*
X19838670Y-42899330D01*
X19838670Y-46000670D01*
X19838670Y-46000670D01*
G37*
G36*
X48196946Y-40621697D02*
G01*
X48385432Y-40659189D01*
X48622161Y-40757246D01*
X48835207Y-40899599D01*
X48835209Y-40899601D01*
X48835212Y-40899603D01*
X49016397Y-41080788D01*
X49016399Y-41080791D01*
X49016401Y-41080793D01*
X49158754Y-41293839D01*
X49256811Y-41530568D01*
X49306800Y-41781883D01*
X49306800Y-42038117D01*
X49256811Y-42289432D01*
X49158754Y-42526161D01*
X49016401Y-42739207D01*
X49016399Y-42739209D01*
X49016397Y-42739212D01*
X48835212Y-42920397D01*
X48835209Y-42920399D01*
X48835207Y-42920401D01*
X48622161Y-43062754D01*
X48385432Y-43160811D01*
X48196946Y-43198303D01*
X48134118Y-43210800D01*
X47877882Y-43210800D01*
X47815054Y-43198303D01*
X47626568Y-43160811D01*
X47389839Y-43062754D01*
X47176793Y-42920401D01*
X47176791Y-42920399D01*
X47176788Y-42920397D01*
X46995603Y-42739212D01*
X46995601Y-42739209D01*
X46995599Y-42739207D01*
X46853246Y-42526161D01*
X46755189Y-42289432D01*
X46705200Y-42038117D01*
X46705200Y-41781883D01*
X46755189Y-41530568D01*
X46853246Y-41293839D01*
X46995599Y-41080793D01*
X46995601Y-41080791D01*
X46995603Y-41080788D01*
X47176788Y-40899603D01*
X47176791Y-40899601D01*
X47176793Y-40899599D01*
X47389839Y-40757246D01*
X47626568Y-40659189D01*
X47815054Y-40621697D01*
X47877882Y-40609200D01*
X48134118Y-40609200D01*
X48196946Y-40621697D01*
X48196946Y-40621697D01*
G37*
G36*
X56078314Y-40164921D02*
G01*
X56078316Y-40164922D01*
X56078317Y-40164922D01*
X56360519Y-40281814D01*
X56614490Y-40451512D01*
X56830488Y-40667510D01*
X57000186Y-40921481D01*
X57066173Y-41080788D01*
X57117079Y-41203686D01*
X57176670Y-41503272D01*
X57176670Y-41808728D01*
X57131042Y-42038118D01*
X57117078Y-42108317D01*
X57000186Y-42390519D01*
X56830488Y-42644490D01*
X56614490Y-42860488D01*
X56360519Y-43030186D01*
X56078317Y-43147078D01*
X56078316Y-43147078D01*
X56078314Y-43147079D01*
X55778728Y-43206670D01*
X55473272Y-43206670D01*
X55173686Y-43147079D01*
X55173684Y-43147078D01*
X55173683Y-43147078D01*
X54891481Y-43030186D01*
X54637510Y-42860488D01*
X54421512Y-42644490D01*
X54251814Y-42390519D01*
X54134922Y-42108317D01*
X54120959Y-42038118D01*
X54075330Y-41808728D01*
X54075330Y-41503272D01*
X54134921Y-41203686D01*
X54185827Y-41080788D01*
X54251814Y-40921481D01*
X54421512Y-40667510D01*
X54637510Y-40451512D01*
X54891481Y-40281814D01*
X55173683Y-40164922D01*
X55173684Y-40164922D01*
X55173686Y-40164921D01*
X55473272Y-40105330D01*
X55778728Y-40105330D01*
X56078314Y-40164921D01*
X56078314Y-40164921D01*
G37*
G36*
X39814946Y-39351697D02*
G01*
X40003432Y-39389189D01*
X40240161Y-39487246D01*
X40453207Y-39629599D01*
X40453209Y-39629601D01*
X40453212Y-39629603D01*
X40634397Y-39810788D01*
X40634399Y-39810791D01*
X40634401Y-39810793D01*
X40776754Y-40023839D01*
X40874811Y-40260568D01*
X40924800Y-40511883D01*
X40924800Y-40768117D01*
X40874811Y-41019432D01*
X40776754Y-41256161D01*
X40634401Y-41469207D01*
X40634399Y-41469209D01*
X40634397Y-41469212D01*
X40453212Y-41650397D01*
X40453209Y-41650399D01*
X40453207Y-41650401D01*
X40240161Y-41792754D01*
X40003432Y-41890811D01*
X39814946Y-41928303D01*
X39752118Y-41940800D01*
X39495882Y-41940800D01*
X39433054Y-41928303D01*
X39244568Y-41890811D01*
X39007839Y-41792754D01*
X38794793Y-41650401D01*
X38794791Y-41650399D01*
X38794788Y-41650397D01*
X38613603Y-41469212D01*
X38613601Y-41469209D01*
X38613599Y-41469207D01*
X38471246Y-41256161D01*
X38373189Y-41019432D01*
X38323200Y-40768117D01*
X38323200Y-40511883D01*
X38373189Y-40260568D01*
X38471246Y-40023839D01*
X38613599Y-39810793D01*
X38613601Y-39810791D01*
X38613603Y-39810788D01*
X38794788Y-39629603D01*
X38794791Y-39629601D01*
X38794793Y-39629599D01*
X39007839Y-39487246D01*
X39244568Y-39389189D01*
X39433054Y-39351697D01*
X39495882Y-39339200D01*
X39752118Y-39339200D01*
X39814946Y-39351697D01*
X39814946Y-39351697D01*
G37*
G36*
X36946786Y-39733511D02*
G01*
X37107162Y-39782161D01*
X37107165Y-39782162D01*
X37160497Y-39810669D01*
X37254966Y-39861163D01*
X37384517Y-39967483D01*
X37490837Y-40097034D01*
X37527123Y-40164921D01*
X37569838Y-40244835D01*
X37569839Y-40244838D01*
X37618489Y-40405214D01*
X37634916Y-40572000D01*
X37618489Y-40738786D01*
X37569839Y-40899162D01*
X37569838Y-40899165D01*
X37557909Y-40921482D01*
X37490837Y-41046966D01*
X37384517Y-41176517D01*
X37254966Y-41282837D01*
X37160497Y-41333331D01*
X37107165Y-41361838D01*
X37107162Y-41361839D01*
X36946786Y-41410489D01*
X36821790Y-41422800D01*
X35938210Y-41422800D01*
X35813214Y-41410489D01*
X35652838Y-41361839D01*
X35652835Y-41361838D01*
X35599503Y-41333331D01*
X35505034Y-41282837D01*
X35375483Y-41176517D01*
X35269163Y-41046966D01*
X35202091Y-40921482D01*
X35190162Y-40899165D01*
X35190161Y-40899162D01*
X35141511Y-40738786D01*
X35125084Y-40572000D01*
X35141511Y-40405214D01*
X35190161Y-40244838D01*
X35190162Y-40244835D01*
X35232877Y-40164921D01*
X35269163Y-40097034D01*
X35375483Y-39967483D01*
X35505034Y-39861163D01*
X35599503Y-39810669D01*
X35652835Y-39782162D01*
X35652838Y-39782161D01*
X35813214Y-39733511D01*
X35938210Y-39721200D01*
X36821790Y-39721200D01*
X36946786Y-39733511D01*
X36946786Y-39733511D01*
G37*
G36*
X29326786Y-39733511D02*
G01*
X29487162Y-39782161D01*
X29487165Y-39782162D01*
X29540497Y-39810669D01*
X29634966Y-39861163D01*
X29764517Y-39967483D01*
X29870837Y-40097034D01*
X29907123Y-40164921D01*
X29949838Y-40244835D01*
X29949839Y-40244838D01*
X29998489Y-40405214D01*
X30014916Y-40572000D01*
X29998489Y-40738786D01*
X29949839Y-40899162D01*
X29949838Y-40899165D01*
X29937909Y-40921482D01*
X29870837Y-41046966D01*
X29764517Y-41176517D01*
X29634966Y-41282837D01*
X29540497Y-41333331D01*
X29487165Y-41361838D01*
X29487162Y-41361839D01*
X29326786Y-41410489D01*
X29201790Y-41422800D01*
X28318210Y-41422800D01*
X28193214Y-41410489D01*
X28032838Y-41361839D01*
X28032835Y-41361838D01*
X27979503Y-41333331D01*
X27885034Y-41282837D01*
X27755483Y-41176517D01*
X27649163Y-41046966D01*
X27582091Y-40921482D01*
X27570162Y-40899165D01*
X27570161Y-40899162D01*
X27521511Y-40738786D01*
X27505084Y-40572000D01*
X27521511Y-40405214D01*
X27570161Y-40244838D01*
X27570162Y-40244835D01*
X27612877Y-40164921D01*
X27649163Y-40097034D01*
X27755483Y-39967483D01*
X27885034Y-39861163D01*
X27979503Y-39810669D01*
X28032835Y-39782162D01*
X28032838Y-39782161D01*
X28193214Y-39733511D01*
X28318210Y-39721200D01*
X29201790Y-39721200D01*
X29326786Y-39733511D01*
X29326786Y-39733511D01*
G37*
G36*
X56078314Y-36354921D02*
G01*
X56078316Y-36354922D01*
X56078317Y-36354922D01*
X56360519Y-36471814D01*
X56614490Y-36641512D01*
X56830488Y-36857510D01*
X57000186Y-37111481D01*
X57034164Y-37193511D01*
X57117079Y-37393686D01*
X57176670Y-37693272D01*
X57176670Y-37998728D01*
X57136877Y-38198783D01*
X57117078Y-38298317D01*
X57000186Y-38580519D01*
X56830488Y-38834490D01*
X56614490Y-39050488D01*
X56360519Y-39220186D01*
X56078317Y-39337078D01*
X56078316Y-39337078D01*
X56078314Y-39337079D01*
X55778728Y-39396670D01*
X55473272Y-39396670D01*
X55173686Y-39337079D01*
X55173684Y-39337078D01*
X55173683Y-39337078D01*
X54891481Y-39220186D01*
X54637510Y-39050488D01*
X54421512Y-38834490D01*
X54251814Y-38580519D01*
X54134922Y-38298317D01*
X54115124Y-38198783D01*
X54075330Y-37998728D01*
X54075330Y-37693272D01*
X54134921Y-37393686D01*
X54217836Y-37193511D01*
X54251814Y-37111481D01*
X54421512Y-36857510D01*
X54637510Y-36641512D01*
X54891481Y-36471814D01*
X55173683Y-36354922D01*
X55173684Y-36354922D01*
X55173686Y-36354921D01*
X55473272Y-36295330D01*
X55778728Y-36295330D01*
X56078314Y-36354921D01*
X56078314Y-36354921D01*
G37*
G36*
X36946786Y-37193511D02*
G01*
X37107162Y-37242161D01*
X37107165Y-37242162D01*
X37160497Y-37270669D01*
X37254966Y-37321163D01*
X37384517Y-37427483D01*
X37490837Y-37557034D01*
X37541331Y-37651503D01*
X37569838Y-37704835D01*
X37569839Y-37704838D01*
X37618489Y-37865214D01*
X37634916Y-38032000D01*
X37618489Y-38198786D01*
X37588297Y-38298314D01*
X37569838Y-38359165D01*
X37541331Y-38412497D01*
X37490837Y-38506966D01*
X37384517Y-38636517D01*
X37254966Y-38742837D01*
X37160497Y-38793331D01*
X37107165Y-38821838D01*
X37107162Y-38821839D01*
X36946786Y-38870489D01*
X36821790Y-38882800D01*
X35938210Y-38882800D01*
X35813214Y-38870489D01*
X35652838Y-38821839D01*
X35652835Y-38821838D01*
X35599503Y-38793331D01*
X35505034Y-38742837D01*
X35375483Y-38636517D01*
X35269163Y-38506966D01*
X35218669Y-38412497D01*
X35190162Y-38359165D01*
X35171703Y-38298314D01*
X35141511Y-38198786D01*
X35125084Y-38032000D01*
X35141511Y-37865214D01*
X35190161Y-37704838D01*
X35190162Y-37704835D01*
X35218669Y-37651503D01*
X35269163Y-37557034D01*
X35375483Y-37427483D01*
X35505034Y-37321163D01*
X35599503Y-37270669D01*
X35652835Y-37242162D01*
X35652838Y-37242161D01*
X35813214Y-37193511D01*
X35938210Y-37181200D01*
X36821790Y-37181200D01*
X36946786Y-37193511D01*
X36946786Y-37193511D01*
G37*
G36*
X29326786Y-37193511D02*
G01*
X29487162Y-37242161D01*
X29487165Y-37242162D01*
X29540497Y-37270669D01*
X29634966Y-37321163D01*
X29764517Y-37427483D01*
X29870837Y-37557034D01*
X29921331Y-37651503D01*
X29949838Y-37704835D01*
X29949839Y-37704838D01*
X29998489Y-37865214D01*
X30014916Y-38032000D01*
X29998489Y-38198786D01*
X29968297Y-38298314D01*
X29949838Y-38359165D01*
X29921331Y-38412497D01*
X29870837Y-38506966D01*
X29764517Y-38636517D01*
X29634966Y-38742837D01*
X29540497Y-38793331D01*
X29487165Y-38821838D01*
X29487162Y-38821839D01*
X29326786Y-38870489D01*
X29201790Y-38882800D01*
X28318210Y-38882800D01*
X28193214Y-38870489D01*
X28032838Y-38821839D01*
X28032835Y-38821838D01*
X27979503Y-38793331D01*
X27885034Y-38742837D01*
X27755483Y-38636517D01*
X27649163Y-38506966D01*
X27598669Y-38412497D01*
X27570162Y-38359165D01*
X27551703Y-38298314D01*
X27521511Y-38198786D01*
X27505084Y-38032000D01*
X27521511Y-37865214D01*
X27570161Y-37704838D01*
X27570162Y-37704835D01*
X27598669Y-37651503D01*
X27649163Y-37557034D01*
X27755483Y-37427483D01*
X27885034Y-37321163D01*
X27979503Y-37270669D01*
X28032835Y-37242162D01*
X28032838Y-37242161D01*
X28193214Y-37193511D01*
X28318210Y-37181200D01*
X29201790Y-37181200D01*
X29326786Y-37193511D01*
X29326786Y-37193511D01*
G37*
G36*
X29326786Y-34653511D02*
G01*
X29487162Y-34702161D01*
X29487165Y-34702162D01*
X29540497Y-34730669D01*
X29634966Y-34781163D01*
X29764517Y-34887483D01*
X29870837Y-35017034D01*
X29921331Y-35111503D01*
X29949838Y-35164835D01*
X29949839Y-35164838D01*
X29998489Y-35325214D01*
X30014916Y-35492000D01*
X29998489Y-35658786D01*
X29949839Y-35819162D01*
X29949838Y-35819165D01*
X29921331Y-35872497D01*
X29870837Y-35966966D01*
X29764517Y-36096517D01*
X29634966Y-36202837D01*
X29540497Y-36253331D01*
X29487165Y-36281838D01*
X29487162Y-36281839D01*
X29326786Y-36330489D01*
X29201790Y-36342800D01*
X28318210Y-36342800D01*
X28193214Y-36330489D01*
X28032838Y-36281839D01*
X28032835Y-36281838D01*
X27979503Y-36253331D01*
X27885034Y-36202837D01*
X27755483Y-36096517D01*
X27649163Y-35966966D01*
X27598669Y-35872497D01*
X27570162Y-35819165D01*
X27570161Y-35819162D01*
X27521511Y-35658786D01*
X27505084Y-35492000D01*
X27521511Y-35325214D01*
X27570161Y-35164838D01*
X27570162Y-35164835D01*
X27598669Y-35111503D01*
X27649163Y-35017034D01*
X27755483Y-34887483D01*
X27885034Y-34781163D01*
X27979503Y-34730669D01*
X28032835Y-34702162D01*
X28032838Y-34702161D01*
X28193214Y-34653511D01*
X28318210Y-34641200D01*
X29201790Y-34641200D01*
X29326786Y-34653511D01*
X29326786Y-34653511D01*
G37*
G36*
X36946786Y-34653511D02*
G01*
X37107162Y-34702161D01*
X37107165Y-34702162D01*
X37160497Y-34730669D01*
X37254966Y-34781163D01*
X37384517Y-34887483D01*
X37490837Y-35017034D01*
X37541331Y-35111503D01*
X37569838Y-35164835D01*
X37569839Y-35164838D01*
X37618489Y-35325214D01*
X37634916Y-35492000D01*
X37618489Y-35658786D01*
X37569839Y-35819162D01*
X37569838Y-35819165D01*
X37541331Y-35872497D01*
X37490837Y-35966966D01*
X37384517Y-36096517D01*
X37254966Y-36202837D01*
X37160497Y-36253331D01*
X37107165Y-36281838D01*
X37107162Y-36281839D01*
X36946786Y-36330489D01*
X36821790Y-36342800D01*
X35938210Y-36342800D01*
X35813214Y-36330489D01*
X35652838Y-36281839D01*
X35652835Y-36281838D01*
X35599503Y-36253331D01*
X35505034Y-36202837D01*
X35375483Y-36096517D01*
X35269163Y-35966966D01*
X35218669Y-35872497D01*
X35190162Y-35819165D01*
X35190161Y-35819162D01*
X35141511Y-35658786D01*
X35125084Y-35492000D01*
X35141511Y-35325214D01*
X35190161Y-35164838D01*
X35190162Y-35164835D01*
X35218669Y-35111503D01*
X35269163Y-35017034D01*
X35375483Y-34887483D01*
X35505034Y-34781163D01*
X35599503Y-34730669D01*
X35652835Y-34702162D01*
X35652838Y-34702161D01*
X35813214Y-34653511D01*
X35938210Y-34641200D01*
X36821790Y-34641200D01*
X36946786Y-34653511D01*
X36946786Y-34653511D01*
G37*
G36*
X56078314Y-32544921D02*
G01*
X56078316Y-32544922D01*
X56078317Y-32544922D01*
X56360519Y-32661814D01*
X56614490Y-32831512D01*
X56830488Y-33047510D01*
X57000186Y-33301481D01*
X57117078Y-33583683D01*
X57176670Y-33883273D01*
X57176670Y-34188727D01*
X57117078Y-34488317D01*
X57000186Y-34770519D01*
X56830488Y-35024490D01*
X56614490Y-35240488D01*
X56360519Y-35410186D01*
X56078317Y-35527078D01*
X56078316Y-35527078D01*
X56078314Y-35527079D01*
X55778728Y-35586670D01*
X55473272Y-35586670D01*
X55173686Y-35527079D01*
X55173684Y-35527078D01*
X55173683Y-35527078D01*
X54891481Y-35410186D01*
X54637510Y-35240488D01*
X54421512Y-35024490D01*
X54251814Y-34770519D01*
X54134922Y-34488317D01*
X54075330Y-34188727D01*
X54075330Y-33883273D01*
X54134922Y-33583683D01*
X54251814Y-33301481D01*
X54421512Y-33047510D01*
X54637510Y-32831512D01*
X54891481Y-32661814D01*
X55173683Y-32544922D01*
X55173684Y-32544922D01*
X55173686Y-32544921D01*
X55473272Y-32485330D01*
X55778728Y-32485330D01*
X56078314Y-32544921D01*
X56078314Y-32544921D01*
G37*
G36*
X36946786Y-32113511D02*
G01*
X37107162Y-32162161D01*
X37107165Y-32162162D01*
X37160497Y-32190669D01*
X37254966Y-32241163D01*
X37384517Y-32347483D01*
X37490837Y-32477034D01*
X37527123Y-32544921D01*
X37569838Y-32624835D01*
X37569839Y-32624838D01*
X37618489Y-32785214D01*
X37634916Y-32952000D01*
X37618489Y-33118786D01*
X37569839Y-33279162D01*
X37569838Y-33279165D01*
X37557909Y-33301482D01*
X37490837Y-33426966D01*
X37384517Y-33556517D01*
X37254966Y-33662837D01*
X37160497Y-33713331D01*
X37107165Y-33741838D01*
X37107162Y-33741839D01*
X36946786Y-33790489D01*
X36821790Y-33802800D01*
X35938210Y-33802800D01*
X35813214Y-33790489D01*
X35652838Y-33741839D01*
X35652835Y-33741838D01*
X35599503Y-33713331D01*
X35505034Y-33662837D01*
X35375483Y-33556517D01*
X35269163Y-33426966D01*
X35202091Y-33301482D01*
X35190162Y-33279165D01*
X35190161Y-33279162D01*
X35141511Y-33118786D01*
X35125084Y-32952000D01*
X35141511Y-32785214D01*
X35190161Y-32624838D01*
X35190162Y-32624835D01*
X35232877Y-32544921D01*
X35269163Y-32477034D01*
X35375483Y-32347483D01*
X35505034Y-32241163D01*
X35599503Y-32190669D01*
X35652835Y-32162162D01*
X35652838Y-32162161D01*
X35813214Y-32113511D01*
X35938210Y-32101200D01*
X36821790Y-32101200D01*
X36946786Y-32113511D01*
X36946786Y-32113511D01*
G37*
G36*
X29326786Y-32113511D02*
G01*
X29487162Y-32162161D01*
X29487165Y-32162162D01*
X29540497Y-32190669D01*
X29634966Y-32241163D01*
X29764517Y-32347483D01*
X29870837Y-32477034D01*
X29907123Y-32544921D01*
X29949838Y-32624835D01*
X29949839Y-32624838D01*
X29998489Y-32785214D01*
X30014916Y-32952000D01*
X29998489Y-33118786D01*
X29949839Y-33279162D01*
X29949838Y-33279165D01*
X29937909Y-33301482D01*
X29870837Y-33426966D01*
X29764517Y-33556517D01*
X29634966Y-33662837D01*
X29540497Y-33713331D01*
X29487165Y-33741838D01*
X29487162Y-33741839D01*
X29326786Y-33790489D01*
X29201790Y-33802800D01*
X28318210Y-33802800D01*
X28193214Y-33790489D01*
X28032838Y-33741839D01*
X28032835Y-33741838D01*
X27979503Y-33713331D01*
X27885034Y-33662837D01*
X27755483Y-33556517D01*
X27649163Y-33426966D01*
X27582091Y-33301482D01*
X27570162Y-33279165D01*
X27570161Y-33279162D01*
X27521511Y-33118786D01*
X27505084Y-32952000D01*
X27521511Y-32785214D01*
X27570161Y-32624838D01*
X27570162Y-32624835D01*
X27612877Y-32544921D01*
X27649163Y-32477034D01*
X27755483Y-32347483D01*
X27885034Y-32241163D01*
X27979503Y-32190669D01*
X28032835Y-32162162D01*
X28032838Y-32162161D01*
X28193214Y-32113511D01*
X28318210Y-32101200D01*
X29201790Y-32101200D01*
X29326786Y-32113511D01*
X29326786Y-32113511D01*
G37*
G36*
X56078314Y-28734921D02*
G01*
X56078316Y-28734922D01*
X56078317Y-28734922D01*
X56360519Y-28851814D01*
X56614490Y-29021512D01*
X56830488Y-29237510D01*
X57000186Y-29491481D01*
X57034164Y-29573511D01*
X57117079Y-29773686D01*
X57176670Y-30073272D01*
X57176670Y-30378728D01*
X57136877Y-30578783D01*
X57117078Y-30678317D01*
X57000186Y-30960519D01*
X56830488Y-31214490D01*
X56614490Y-31430488D01*
X56360519Y-31600186D01*
X56078317Y-31717078D01*
X56078316Y-31717078D01*
X56078314Y-31717079D01*
X55778728Y-31776670D01*
X55473272Y-31776670D01*
X55173686Y-31717079D01*
X55173684Y-31717078D01*
X55173683Y-31717078D01*
X54891481Y-31600186D01*
X54637510Y-31430488D01*
X54421512Y-31214490D01*
X54251814Y-30960519D01*
X54134922Y-30678317D01*
X54115124Y-30578783D01*
X54075330Y-30378728D01*
X54075330Y-30073272D01*
X54134921Y-29773686D01*
X54217836Y-29573511D01*
X54251814Y-29491481D01*
X54421512Y-29237510D01*
X54637510Y-29021512D01*
X54891481Y-28851814D01*
X55173683Y-28734922D01*
X55173684Y-28734922D01*
X55173686Y-28734921D01*
X55473272Y-28675330D01*
X55778728Y-28675330D01*
X56078314Y-28734921D01*
X56078314Y-28734921D01*
G37*
G36*
X29326786Y-29573511D02*
G01*
X29487162Y-29622161D01*
X29487165Y-29622162D01*
X29540497Y-29650669D01*
X29634966Y-29701163D01*
X29764517Y-29807483D01*
X29870837Y-29937034D01*
X29921331Y-30031503D01*
X29949838Y-30084835D01*
X29949839Y-30084838D01*
X29998489Y-30245214D01*
X30014916Y-30412000D01*
X29998489Y-30578786D01*
X29968297Y-30678314D01*
X29949838Y-30739165D01*
X29921331Y-30792497D01*
X29870837Y-30886966D01*
X29764517Y-31016517D01*
X29634966Y-31122837D01*
X29540497Y-31173331D01*
X29487165Y-31201838D01*
X29487162Y-31201839D01*
X29326786Y-31250489D01*
X29201790Y-31262800D01*
X28318210Y-31262800D01*
X28193214Y-31250489D01*
X28032838Y-31201839D01*
X28032835Y-31201838D01*
X27979503Y-31173331D01*
X27885034Y-31122837D01*
X27755483Y-31016517D01*
X27649163Y-30886966D01*
X27598669Y-30792497D01*
X27570162Y-30739165D01*
X27551703Y-30678314D01*
X27521511Y-30578786D01*
X27505084Y-30412000D01*
X27521511Y-30245214D01*
X27570161Y-30084838D01*
X27570162Y-30084835D01*
X27598669Y-30031503D01*
X27649163Y-29937034D01*
X27755483Y-29807483D01*
X27885034Y-29701163D01*
X27979503Y-29650669D01*
X28032835Y-29622162D01*
X28032838Y-29622161D01*
X28193214Y-29573511D01*
X28318210Y-29561200D01*
X29201790Y-29561200D01*
X29326786Y-29573511D01*
X29326786Y-29573511D01*
G37*
G36*
X36946786Y-29573511D02*
G01*
X37107162Y-29622161D01*
X37107165Y-29622162D01*
X37160497Y-29650669D01*
X37254966Y-29701163D01*
X37384517Y-29807483D01*
X37490837Y-29937034D01*
X37541331Y-30031503D01*
X37569838Y-30084835D01*
X37569839Y-30084838D01*
X37618489Y-30245214D01*
X37634916Y-30412000D01*
X37618489Y-30578786D01*
X37588297Y-30678314D01*
X37569838Y-30739165D01*
X37541331Y-30792497D01*
X37490837Y-30886966D01*
X37384517Y-31016517D01*
X37254966Y-31122837D01*
X37160497Y-31173331D01*
X37107165Y-31201838D01*
X37107162Y-31201839D01*
X36946786Y-31250489D01*
X36821790Y-31262800D01*
X35938210Y-31262800D01*
X35813214Y-31250489D01*
X35652838Y-31201839D01*
X35652835Y-31201838D01*
X35599503Y-31173331D01*
X35505034Y-31122837D01*
X35375483Y-31016517D01*
X35269163Y-30886966D01*
X35218669Y-30792497D01*
X35190162Y-30739165D01*
X35171703Y-30678314D01*
X35141511Y-30578786D01*
X35125084Y-30412000D01*
X35141511Y-30245214D01*
X35190161Y-30084838D01*
X35190162Y-30084835D01*
X35218669Y-30031503D01*
X35269163Y-29937034D01*
X35375483Y-29807483D01*
X35505034Y-29701163D01*
X35599503Y-29650669D01*
X35652835Y-29622162D01*
X35652838Y-29622161D01*
X35813214Y-29573511D01*
X35938210Y-29561200D01*
X36821790Y-29561200D01*
X36946786Y-29573511D01*
X36946786Y-29573511D01*
G37*
G36*
X29326786Y-27033511D02*
G01*
X29487162Y-27082161D01*
X29487165Y-27082162D01*
X29540497Y-27110669D01*
X29634966Y-27161163D01*
X29764517Y-27267483D01*
X29870837Y-27397034D01*
X29921331Y-27491503D01*
X29949838Y-27544835D01*
X29949839Y-27544838D01*
X29998489Y-27705214D01*
X30014916Y-27872000D01*
X29998489Y-28038786D01*
X29949839Y-28199162D01*
X29949838Y-28199165D01*
X29921331Y-28252497D01*
X29870837Y-28346966D01*
X29764517Y-28476517D01*
X29634966Y-28582837D01*
X29540497Y-28633331D01*
X29487165Y-28661838D01*
X29487162Y-28661839D01*
X29326786Y-28710489D01*
X29201790Y-28722800D01*
X28318210Y-28722800D01*
X28193214Y-28710489D01*
X28032838Y-28661839D01*
X28032835Y-28661838D01*
X27979503Y-28633331D01*
X27885034Y-28582837D01*
X27755483Y-28476517D01*
X27649163Y-28346966D01*
X27598669Y-28252497D01*
X27570162Y-28199165D01*
X27570161Y-28199162D01*
X27521511Y-28038786D01*
X27505084Y-27872000D01*
X27521511Y-27705214D01*
X27570161Y-27544838D01*
X27570162Y-27544835D01*
X27598669Y-27491503D01*
X27649163Y-27397034D01*
X27755483Y-27267483D01*
X27885034Y-27161163D01*
X27979503Y-27110669D01*
X28032835Y-27082162D01*
X28032838Y-27082161D01*
X28193214Y-27033511D01*
X28318210Y-27021200D01*
X29201790Y-27021200D01*
X29326786Y-27033511D01*
X29326786Y-27033511D01*
G37*
G36*
X36946786Y-27033511D02*
G01*
X37107162Y-27082161D01*
X37107165Y-27082162D01*
X37160497Y-27110669D01*
X37254966Y-27161163D01*
X37384517Y-27267483D01*
X37490837Y-27397034D01*
X37541331Y-27491503D01*
X37569838Y-27544835D01*
X37569839Y-27544838D01*
X37618489Y-27705214D01*
X37634916Y-27872000D01*
X37618489Y-28038786D01*
X37569839Y-28199162D01*
X37569838Y-28199165D01*
X37541331Y-28252497D01*
X37490837Y-28346966D01*
X37384517Y-28476517D01*
X37254966Y-28582837D01*
X37160497Y-28633331D01*
X37107165Y-28661838D01*
X37107162Y-28661839D01*
X36946786Y-28710489D01*
X36821790Y-28722800D01*
X35938210Y-28722800D01*
X35813214Y-28710489D01*
X35652838Y-28661839D01*
X35652835Y-28661838D01*
X35599503Y-28633331D01*
X35505034Y-28582837D01*
X35375483Y-28476517D01*
X35269163Y-28346966D01*
X35218669Y-28252497D01*
X35190162Y-28199165D01*
X35190161Y-28199162D01*
X35141511Y-28038786D01*
X35125084Y-27872000D01*
X35141511Y-27705214D01*
X35190161Y-27544838D01*
X35190162Y-27544835D01*
X35218669Y-27491503D01*
X35269163Y-27397034D01*
X35375483Y-27267483D01*
X35505034Y-27161163D01*
X35599503Y-27110669D01*
X35652835Y-27082162D01*
X35652838Y-27082161D01*
X35813214Y-27033511D01*
X35938210Y-27021200D01*
X36821790Y-27021200D01*
X36946786Y-27033511D01*
X36946786Y-27033511D01*
G37*
G36*
X57176670Y-27966670D02*
G01*
X54075330Y-27966670D01*
X54075330Y-24865330D01*
X57176670Y-24865330D01*
X57176670Y-27966670D01*
X57176670Y-27966670D01*
G37*
G36*
X50482946Y-25127697D02*
G01*
X50671432Y-25165189D01*
X50908161Y-25263246D01*
X51121207Y-25405599D01*
X51121209Y-25405601D01*
X51121212Y-25405603D01*
X51302397Y-25586788D01*
X51302399Y-25586791D01*
X51302401Y-25586793D01*
X51444754Y-25799839D01*
X51542811Y-26036568D01*
X51592800Y-26287883D01*
X51592800Y-26544117D01*
X51542811Y-26795432D01*
X51444754Y-27032161D01*
X51302401Y-27245207D01*
X51302399Y-27245209D01*
X51302397Y-27245212D01*
X51121212Y-27426397D01*
X51121209Y-27426399D01*
X51121207Y-27426401D01*
X50908161Y-27568754D01*
X50671432Y-27666811D01*
X50482946Y-27704303D01*
X50420118Y-27716800D01*
X50163882Y-27716800D01*
X50101054Y-27704303D01*
X49912568Y-27666811D01*
X49675839Y-27568754D01*
X49462793Y-27426401D01*
X49462791Y-27426399D01*
X49462788Y-27426397D01*
X49281603Y-27245212D01*
X49281601Y-27245209D01*
X49281599Y-27245207D01*
X49139246Y-27032161D01*
X49041189Y-26795432D01*
X48991200Y-26544117D01*
X48991200Y-26287883D01*
X49041189Y-26036568D01*
X49139246Y-25799839D01*
X49281599Y-25586793D01*
X49281601Y-25586791D01*
X49281603Y-25586788D01*
X49462788Y-25405603D01*
X49462791Y-25405601D01*
X49462793Y-25405599D01*
X49675839Y-25263246D01*
X49912568Y-25165189D01*
X50101054Y-25127697D01*
X50163882Y-25115200D01*
X50420118Y-25115200D01*
X50482946Y-25127697D01*
X50482946Y-25127697D01*
G37*
G36*
X29326786Y-24493511D02*
G01*
X29487162Y-24542161D01*
X29487165Y-24542162D01*
X29540497Y-24570669D01*
X29634966Y-24621163D01*
X29764517Y-24727483D01*
X29870837Y-24857034D01*
X29921331Y-24951503D01*
X29949838Y-25004835D01*
X29949839Y-25004838D01*
X29998489Y-25165214D01*
X30014916Y-25332000D01*
X29998489Y-25498786D01*
X29971792Y-25586793D01*
X29949838Y-25659165D01*
X29921331Y-25712497D01*
X29870837Y-25806966D01*
X29764517Y-25936517D01*
X29634966Y-26042837D01*
X29540497Y-26093331D01*
X29487165Y-26121838D01*
X29487162Y-26121839D01*
X29326786Y-26170489D01*
X29201790Y-26182800D01*
X28318210Y-26182800D01*
X28193214Y-26170489D01*
X28032838Y-26121839D01*
X28032835Y-26121838D01*
X27979503Y-26093331D01*
X27885034Y-26042837D01*
X27755483Y-25936517D01*
X27649163Y-25806966D01*
X27598669Y-25712497D01*
X27570162Y-25659165D01*
X27548208Y-25586793D01*
X27521511Y-25498786D01*
X27505084Y-25332000D01*
X27521511Y-25165214D01*
X27570161Y-25004838D01*
X27570162Y-25004835D01*
X27598669Y-24951503D01*
X27649163Y-24857034D01*
X27755483Y-24727483D01*
X27885034Y-24621163D01*
X27979503Y-24570669D01*
X28032835Y-24542162D01*
X28032838Y-24542161D01*
X28193214Y-24493511D01*
X28318210Y-24481200D01*
X29201790Y-24481200D01*
X29326786Y-24493511D01*
X29326786Y-24493511D01*
G37*
G36*
X36946786Y-24493511D02*
G01*
X37107162Y-24542161D01*
X37107165Y-24542162D01*
X37160497Y-24570669D01*
X37254966Y-24621163D01*
X37384517Y-24727483D01*
X37490837Y-24857034D01*
X37541331Y-24951503D01*
X37569838Y-25004835D01*
X37569839Y-25004838D01*
X37618489Y-25165214D01*
X37634916Y-25332000D01*
X37618489Y-25498786D01*
X37591792Y-25586793D01*
X37569838Y-25659165D01*
X37541331Y-25712497D01*
X37490837Y-25806966D01*
X37384517Y-25936517D01*
X37254966Y-26042837D01*
X37160497Y-26093331D01*
X37107165Y-26121838D01*
X37107162Y-26121839D01*
X36946786Y-26170489D01*
X36821790Y-26182800D01*
X35938210Y-26182800D01*
X35813214Y-26170489D01*
X35652838Y-26121839D01*
X35652835Y-26121838D01*
X35599503Y-26093331D01*
X35505034Y-26042837D01*
X35375483Y-25936517D01*
X35269163Y-25806966D01*
X35218669Y-25712497D01*
X35190162Y-25659165D01*
X35168208Y-25586793D01*
X35141511Y-25498786D01*
X35125084Y-25332000D01*
X35141511Y-25165214D01*
X35190161Y-25004838D01*
X35190162Y-25004835D01*
X35218669Y-24951503D01*
X35269163Y-24857034D01*
X35375483Y-24727483D01*
X35505034Y-24621163D01*
X35599503Y-24570669D01*
X35652835Y-24542162D01*
X35652838Y-24542161D01*
X35813214Y-24493511D01*
X35938210Y-24481200D01*
X36821790Y-24481200D01*
X36946786Y-24493511D01*
X36946786Y-24493511D01*
G37*
G36*
X20982248Y-23747295D02*
G01*
X21134510Y-23777582D01*
X21325742Y-23856793D01*
X21497841Y-23971786D01*
X21644214Y-24118159D01*
X21759207Y-24290258D01*
X21838418Y-24481490D01*
X21878800Y-24684506D01*
X21878800Y-24891494D01*
X21838418Y-25094510D01*
X21759207Y-25285742D01*
X21644214Y-25457841D01*
X21497841Y-25604214D01*
X21325742Y-25719207D01*
X21134510Y-25798418D01*
X20982248Y-25828704D01*
X20931495Y-25838800D01*
X20724505Y-25838800D01*
X20673752Y-25828704D01*
X20521490Y-25798418D01*
X20330258Y-25719207D01*
X20158159Y-25604214D01*
X20011786Y-25457841D01*
X19896793Y-25285742D01*
X19817582Y-25094510D01*
X19777200Y-24891494D01*
X19777200Y-24684506D01*
X19817582Y-24481490D01*
X19896793Y-24290258D01*
X20011786Y-24118159D01*
X20158159Y-23971786D01*
X20330258Y-23856793D01*
X20521490Y-23777582D01*
X20673752Y-23747296D01*
X20724505Y-23737200D01*
X20931495Y-23737200D01*
X20982248Y-23747295D01*
X20982248Y-23747295D01*
G37*
G36*
X56310588Y-22226234D02*
G01*
X56480389Y-22277743D01*
X56480391Y-22277744D01*
X56636881Y-22361390D01*
X56774044Y-22473956D01*
X56886610Y-22611119D01*
X56886611Y-22611121D01*
X56970257Y-22767611D01*
X57021766Y-22937412D01*
X57039158Y-23114000D01*
X57021766Y-23290588D01*
X56970257Y-23460389D01*
X56970256Y-23460391D01*
X56886610Y-23616881D01*
X56774044Y-23754044D01*
X56636881Y-23866610D01*
X56636879Y-23866611D01*
X56480389Y-23950257D01*
X56310588Y-24001766D01*
X56178249Y-24014800D01*
X56089751Y-24014800D01*
X55957412Y-24001766D01*
X55787611Y-23950257D01*
X55631121Y-23866611D01*
X55631119Y-23866610D01*
X55493956Y-23754044D01*
X55381390Y-23616881D01*
X55297744Y-23460391D01*
X55297743Y-23460389D01*
X55246234Y-23290588D01*
X55228842Y-23114000D01*
X55246234Y-22937412D01*
X55297743Y-22767611D01*
X55381389Y-22611121D01*
X55381390Y-22611119D01*
X55493956Y-22473956D01*
X55631119Y-22361390D01*
X55787609Y-22277744D01*
X55787611Y-22277743D01*
X55957412Y-22226234D01*
X56089751Y-22213200D01*
X56178249Y-22213200D01*
X56310588Y-22226234D01*
X56310588Y-22226234D01*
G37*
G36*
X53770588Y-22226234D02*
G01*
X53940389Y-22277743D01*
X53940391Y-22277744D01*
X54096881Y-22361390D01*
X54234044Y-22473956D01*
X54346610Y-22611119D01*
X54346611Y-22611121D01*
X54430257Y-22767611D01*
X54481766Y-22937412D01*
X54499158Y-23114000D01*
X54481766Y-23290588D01*
X54430257Y-23460389D01*
X54430256Y-23460391D01*
X54346610Y-23616881D01*
X54234044Y-23754044D01*
X54096881Y-23866610D01*
X54096879Y-23866611D01*
X53940389Y-23950257D01*
X53770588Y-24001766D01*
X53638249Y-24014800D01*
X53549751Y-24014800D01*
X53417412Y-24001766D01*
X53247611Y-23950257D01*
X53091121Y-23866611D01*
X53091119Y-23866610D01*
X52953956Y-23754044D01*
X52841390Y-23616881D01*
X52757744Y-23460391D01*
X52757743Y-23460389D01*
X52706234Y-23290588D01*
X52688842Y-23114000D01*
X52706234Y-22937412D01*
X52757743Y-22767611D01*
X52841389Y-22611121D01*
X52841390Y-22611119D01*
X52953956Y-22473956D01*
X53091119Y-22361390D01*
X53247609Y-22277744D01*
X53247611Y-22277743D01*
X53417412Y-22226234D01*
X53549751Y-22213200D01*
X53638249Y-22213200D01*
X53770588Y-22226234D01*
X53770588Y-22226234D01*
G37*
G36*
X29326786Y-21953511D02*
G01*
X29487162Y-22002161D01*
X29487165Y-22002162D01*
X29540497Y-22030669D01*
X29634966Y-22081163D01*
X29764517Y-22187483D01*
X29870837Y-22317034D01*
X29921331Y-22411503D01*
X29949838Y-22464835D01*
X29949839Y-22464838D01*
X29998489Y-22625214D01*
X30014916Y-22792000D01*
X29998489Y-22958786D01*
X29951405Y-23114000D01*
X29949838Y-23119165D01*
X29921331Y-23172497D01*
X29870837Y-23266966D01*
X29764517Y-23396517D01*
X29634966Y-23502837D01*
X29540497Y-23553331D01*
X29487165Y-23581838D01*
X29487162Y-23581839D01*
X29326786Y-23630489D01*
X29201790Y-23642800D01*
X28318210Y-23642800D01*
X28193214Y-23630489D01*
X28032838Y-23581839D01*
X28032835Y-23581838D01*
X27979503Y-23553331D01*
X27885034Y-23502837D01*
X27755483Y-23396517D01*
X27649163Y-23266966D01*
X27598669Y-23172497D01*
X27570162Y-23119165D01*
X27568595Y-23114000D01*
X27521511Y-22958786D01*
X27505084Y-22792000D01*
X27521511Y-22625214D01*
X27570161Y-22464838D01*
X27570162Y-22464835D01*
X27598669Y-22411503D01*
X27649163Y-22317034D01*
X27755483Y-22187483D01*
X27885034Y-22081163D01*
X27979503Y-22030669D01*
X28032835Y-22002162D01*
X28032838Y-22002161D01*
X28193214Y-21953511D01*
X28318210Y-21941200D01*
X29201790Y-21941200D01*
X29326786Y-21953511D01*
X29326786Y-21953511D01*
G37*
G36*
X36946786Y-21953511D02*
G01*
X37107162Y-22002161D01*
X37107165Y-22002162D01*
X37160497Y-22030669D01*
X37254966Y-22081163D01*
X37384517Y-22187483D01*
X37490837Y-22317034D01*
X37541331Y-22411503D01*
X37569838Y-22464835D01*
X37569839Y-22464838D01*
X37618489Y-22625214D01*
X37634916Y-22792000D01*
X37618489Y-22958786D01*
X37571405Y-23114000D01*
X37569838Y-23119165D01*
X37541331Y-23172497D01*
X37490837Y-23266966D01*
X37384517Y-23396517D01*
X37254966Y-23502837D01*
X37160497Y-23553331D01*
X37107165Y-23581838D01*
X37107162Y-23581839D01*
X36946786Y-23630489D01*
X36821790Y-23642800D01*
X35938210Y-23642800D01*
X35813214Y-23630489D01*
X35652838Y-23581839D01*
X35652835Y-23581838D01*
X35599503Y-23553331D01*
X35505034Y-23502837D01*
X35375483Y-23396517D01*
X35269163Y-23266966D01*
X35218669Y-23172497D01*
X35190162Y-23119165D01*
X35188595Y-23114000D01*
X35141511Y-22958786D01*
X35125084Y-22792000D01*
X35141511Y-22625214D01*
X35190161Y-22464838D01*
X35190162Y-22464835D01*
X35218669Y-22411503D01*
X35269163Y-22317034D01*
X35375483Y-22187483D01*
X35505034Y-22081163D01*
X35599503Y-22030669D01*
X35652835Y-22002162D01*
X35652838Y-22002161D01*
X35813214Y-21953511D01*
X35938210Y-21941200D01*
X36821790Y-21941200D01*
X36946786Y-21953511D01*
X36946786Y-21953511D01*
G37*
G36*
X53770588Y-19686234D02*
G01*
X53940389Y-19737743D01*
X53940391Y-19737744D01*
X54096881Y-19821390D01*
X54234044Y-19933956D01*
X54346610Y-20071119D01*
X54346611Y-20071121D01*
X54430257Y-20227611D01*
X54481766Y-20397412D01*
X54499158Y-20574000D01*
X54481766Y-20750588D01*
X54430257Y-20920389D01*
X54430256Y-20920391D01*
X54346610Y-21076881D01*
X54234044Y-21214044D01*
X54096881Y-21326610D01*
X54096879Y-21326611D01*
X53940389Y-21410257D01*
X53770588Y-21461766D01*
X53638249Y-21474800D01*
X53549751Y-21474800D01*
X53417412Y-21461766D01*
X53247611Y-21410257D01*
X53091121Y-21326611D01*
X53091119Y-21326610D01*
X52953956Y-21214044D01*
X52841390Y-21076881D01*
X52757744Y-20920391D01*
X52757743Y-20920389D01*
X52706234Y-20750588D01*
X52688842Y-20574000D01*
X52706234Y-20397412D01*
X52757743Y-20227611D01*
X52841389Y-20071121D01*
X52841390Y-20071119D01*
X52953956Y-19933956D01*
X53091119Y-19821390D01*
X53247609Y-19737744D01*
X53247611Y-19737743D01*
X53417412Y-19686234D01*
X53549751Y-19673200D01*
X53638249Y-19673200D01*
X53770588Y-19686234D01*
X53770588Y-19686234D01*
G37*
G36*
X56310588Y-19686234D02*
G01*
X56480389Y-19737743D01*
X56480391Y-19737744D01*
X56636881Y-19821390D01*
X56774044Y-19933956D01*
X56886610Y-20071119D01*
X56886611Y-20071121D01*
X56970257Y-20227611D01*
X57021766Y-20397412D01*
X57039158Y-20574000D01*
X57021766Y-20750588D01*
X56970257Y-20920389D01*
X56970256Y-20920391D01*
X56886610Y-21076881D01*
X56774044Y-21214044D01*
X56636881Y-21326610D01*
X56636879Y-21326611D01*
X56480389Y-21410257D01*
X56310588Y-21461766D01*
X56178249Y-21474800D01*
X56089751Y-21474800D01*
X55957412Y-21461766D01*
X55787611Y-21410257D01*
X55631121Y-21326611D01*
X55631119Y-21326610D01*
X55493956Y-21214044D01*
X55381390Y-21076881D01*
X55297744Y-20920391D01*
X55297743Y-20920389D01*
X55246234Y-20750588D01*
X55228842Y-20574000D01*
X55246234Y-20397412D01*
X55297743Y-20227611D01*
X55381389Y-20071121D01*
X55381390Y-20071119D01*
X55493956Y-19933956D01*
X55631119Y-19821390D01*
X55787609Y-19737744D01*
X55787611Y-19737743D01*
X55957412Y-19686234D01*
X56089751Y-19673200D01*
X56178249Y-19673200D01*
X56310588Y-19686234D01*
X56310588Y-19686234D01*
G37*
G36*
X36946786Y-19413511D02*
G01*
X37107162Y-19462161D01*
X37107165Y-19462162D01*
X37160497Y-19490669D01*
X37254966Y-19541163D01*
X37384517Y-19647483D01*
X37490837Y-19777034D01*
X37541331Y-19871503D01*
X37569838Y-19924835D01*
X37569839Y-19924838D01*
X37618489Y-20085214D01*
X37634916Y-20252000D01*
X37618489Y-20418786D01*
X37571405Y-20574000D01*
X37569838Y-20579165D01*
X37541331Y-20632497D01*
X37490837Y-20726966D01*
X37384517Y-20856517D01*
X37254966Y-20962837D01*
X37160497Y-21013331D01*
X37107165Y-21041838D01*
X37107162Y-21041839D01*
X36946786Y-21090489D01*
X36821790Y-21102800D01*
X35938210Y-21102800D01*
X35813214Y-21090489D01*
X35652838Y-21041839D01*
X35652835Y-21041838D01*
X35599503Y-21013331D01*
X35505034Y-20962837D01*
X35375483Y-20856517D01*
X35269163Y-20726966D01*
X35218669Y-20632497D01*
X35190162Y-20579165D01*
X35188595Y-20574000D01*
X35141511Y-20418786D01*
X35125084Y-20252000D01*
X35141511Y-20085214D01*
X35190161Y-19924838D01*
X35190162Y-19924835D01*
X35218669Y-19871503D01*
X35269163Y-19777034D01*
X35375483Y-19647483D01*
X35505034Y-19541163D01*
X35599503Y-19490669D01*
X35652835Y-19462162D01*
X35652838Y-19462161D01*
X35813214Y-19413511D01*
X35938210Y-19401200D01*
X36821790Y-19401200D01*
X36946786Y-19413511D01*
X36946786Y-19413511D01*
G37*
G36*
X29326786Y-19413511D02*
G01*
X29487162Y-19462161D01*
X29487165Y-19462162D01*
X29540497Y-19490669D01*
X29634966Y-19541163D01*
X29764517Y-19647483D01*
X29870837Y-19777034D01*
X29921331Y-19871503D01*
X29949838Y-19924835D01*
X29949839Y-19924838D01*
X29998489Y-20085214D01*
X30014916Y-20252000D01*
X29998489Y-20418786D01*
X29951405Y-20574000D01*
X29949838Y-20579165D01*
X29921331Y-20632497D01*
X29870837Y-20726966D01*
X29764517Y-20856517D01*
X29634966Y-20962837D01*
X29540497Y-21013331D01*
X29487165Y-21041838D01*
X29487162Y-21041839D01*
X29326786Y-21090489D01*
X29201790Y-21102800D01*
X28318210Y-21102800D01*
X28193214Y-21090489D01*
X28032838Y-21041839D01*
X28032835Y-21041838D01*
X27979503Y-21013331D01*
X27885034Y-20962837D01*
X27755483Y-20856517D01*
X27649163Y-20726966D01*
X27598669Y-20632497D01*
X27570162Y-20579165D01*
X27568595Y-20574000D01*
X27521511Y-20418786D01*
X27505084Y-20252000D01*
X27521511Y-20085214D01*
X27570161Y-19924838D01*
X27570162Y-19924835D01*
X27598669Y-19871503D01*
X27649163Y-19777034D01*
X27755483Y-19647483D01*
X27885034Y-19541163D01*
X27979503Y-19490669D01*
X28032835Y-19462162D01*
X28032838Y-19462161D01*
X28193214Y-19413511D01*
X28318210Y-19401200D01*
X29201790Y-19401200D01*
X29326786Y-19413511D01*
X29326786Y-19413511D01*
G37*
G36*
X21878800Y-19338800D02*
G01*
X19777200Y-19338800D01*
X19777200Y-17237200D01*
X21878800Y-17237200D01*
X21878800Y-19338800D01*
X21878800Y-19338800D01*
G37*
G36*
X54494800Y-18934800D02*
G01*
X52693200Y-18934800D01*
X52693200Y-17133200D01*
X54494800Y-17133200D01*
X54494800Y-18934800D01*
X54494800Y-18934800D01*
G37*
G36*
X56310588Y-17146234D02*
G01*
X56480389Y-17197743D01*
X56480391Y-17197744D01*
X56636881Y-17281390D01*
X56774044Y-17393956D01*
X56886610Y-17531119D01*
X56886611Y-17531121D01*
X56970257Y-17687611D01*
X57021766Y-17857412D01*
X57039158Y-18034000D01*
X57021766Y-18210588D01*
X56970257Y-18380389D01*
X56970256Y-18380391D01*
X56886610Y-18536881D01*
X56774044Y-18674044D01*
X56636881Y-18786610D01*
X56636879Y-18786611D01*
X56480389Y-18870257D01*
X56310588Y-18921766D01*
X56178249Y-18934800D01*
X56089751Y-18934800D01*
X55957412Y-18921766D01*
X55787611Y-18870257D01*
X55631121Y-18786611D01*
X55631119Y-18786610D01*
X55493956Y-18674044D01*
X55381390Y-18536881D01*
X55297744Y-18380391D01*
X55297743Y-18380389D01*
X55246234Y-18210588D01*
X55228842Y-18034000D01*
X55246234Y-17857412D01*
X55297743Y-17687611D01*
X55381389Y-17531121D01*
X55381390Y-17531119D01*
X55493956Y-17393956D01*
X55631119Y-17281390D01*
X55787609Y-17197744D01*
X55787611Y-17197743D01*
X55957412Y-17146234D01*
X56089751Y-17133200D01*
X56178249Y-17133200D01*
X56310588Y-17146234D01*
X56310588Y-17146234D01*
G37*
G36*
X36946786Y-16873511D02*
G01*
X37107162Y-16922161D01*
X37107165Y-16922162D01*
X37160497Y-16950669D01*
X37254966Y-17001163D01*
X37384517Y-17107483D01*
X37490837Y-17237034D01*
X37541331Y-17331503D01*
X37569838Y-17384835D01*
X37569839Y-17384838D01*
X37618489Y-17545214D01*
X37634916Y-17712000D01*
X37618489Y-17878786D01*
X37571405Y-18034000D01*
X37569838Y-18039165D01*
X37541331Y-18092497D01*
X37490837Y-18186966D01*
X37384517Y-18316517D01*
X37254966Y-18422837D01*
X37160497Y-18473331D01*
X37107165Y-18501838D01*
X37107162Y-18501839D01*
X36946786Y-18550489D01*
X36821790Y-18562800D01*
X35938210Y-18562800D01*
X35813214Y-18550489D01*
X35652838Y-18501839D01*
X35652835Y-18501838D01*
X35599503Y-18473331D01*
X35505034Y-18422837D01*
X35375483Y-18316517D01*
X35269163Y-18186966D01*
X35218669Y-18092497D01*
X35190162Y-18039165D01*
X35188595Y-18034000D01*
X35141511Y-17878786D01*
X35125084Y-17712000D01*
X35141511Y-17545214D01*
X35190161Y-17384838D01*
X35190162Y-17384835D01*
X35218669Y-17331503D01*
X35269163Y-17237034D01*
X35375483Y-17107483D01*
X35505034Y-17001163D01*
X35599503Y-16950669D01*
X35652835Y-16922162D01*
X35652838Y-16922161D01*
X35813214Y-16873511D01*
X35938210Y-16861200D01*
X36821790Y-16861200D01*
X36946786Y-16873511D01*
X36946786Y-16873511D01*
G37*
G36*
X30010800Y-18562800D02*
G01*
X27509200Y-18562800D01*
X27509200Y-16861200D01*
X30010800Y-16861200D01*
X30010800Y-18562800D01*
X30010800Y-18562800D01*
G37*
M02*
