M48
; DRILL file {KiCad (5.1.0-0)} date Thursday, September 24, 2020 at 05:30:26 PM
; FORMAT={-:-/ absolute / inch / decimal}
; #@! TF.CreationDate,2020-09-24T17:30:26-07:00
; #@! TF.GenerationSoftware,Kicad,Pcbnew,(5.1.0-0)
; #@! TF.FileFunction,Plated,1,2,PTH
FMAT,2
INCH
T1C0.0120
T2C0.0315
T3C0.0394
T4C0.0472
T5C0.0472
%
G90
G05
T1
X1.28Y-1.68
X1.28Y-1.82
X1.32Y-1.07
X1.33Y-0.9
X1.35Y-1.29
X1.35Y-1.45
X1.36Y-0.92
X1.46Y-1.68
X1.46Y-1.82
X1.5Y-0.7284
X1.51Y-1.23
X1.52Y-1.11
X1.54Y-0.8
X1.55Y-0.88
X1.5598Y-1.0098
X1.56Y-0.6715
X1.57Y-0.95
X1.62Y-1.09
X1.6373Y-0.6973
X1.64Y-1.03
X1.69Y-0.75
X1.7002Y-1.2415
X1.72Y-0.82
X1.73Y-1.25
X1.74Y-1.37
X1.74Y-0.6315
X1.75Y-1.1885
X1.7575Y-0.8299
X1.76Y-0.77
X1.77Y-0.6315
X1.79Y-1.49
X1.8Y-0.97
X1.8057Y-0.7292
X1.8144Y-1.36
X1.815Y-0.8359
X1.83Y-0.6315
X1.83Y-0.96
X1.8385Y-0.81
X1.84Y-1.1485
X1.869Y-1.066
X1.87Y-0.7317
X1.89Y-0.96
X1.8989Y-0.8711
X1.899Y-1.0641
X1.9Y-0.9011
X1.93Y-0.67
X1.93Y-1.37
X1.93Y-1.73
X1.94Y-1.28
X1.95Y-1.25
X1.96Y-0.7
X1.96Y-1.8
X1.99Y-0.67
X2.02Y-0.97
X2.03Y-1.26
X2.04Y-0.94
X2.08Y-1.26
X2.08Y-1.31
X2.09Y-1.64
X2.2Y-1.75
T2
X1.1323Y-0.6973
X1.1323Y-0.7973
X1.1323Y-0.8973
X1.1323Y-0.9973
X1.1323Y-1.0973
X1.1323Y-1.1973
X1.1323Y-1.2973
X1.1323Y-1.3973
X1.1323Y-1.4973
X1.1323Y-1.5973
X1.4323Y-0.6973
X1.4323Y-0.7973
X1.4323Y-0.8973
X1.4323Y-0.9973
X1.4323Y-1.0973
X1.4323Y-1.1973
X1.4323Y-1.2973
X1.4323Y-1.3973
X1.4323Y-1.4973
X1.4323Y-1.5973
T3
X0.82Y-0.72
X0.82Y-0.9759
X2.11Y-0.71
X2.11Y-0.81
X2.11Y-0.91
X2.21Y-0.71
X2.21Y-0.81
X2.21Y-0.91
T4
X1.37Y-1.75
X2.08Y-1.75
X2.19Y-1.04
X2.19Y-1.19
X2.19Y-1.34
X2.19Y-1.49
X2.19Y-1.64
X0.72Y-1.75
X0.87Y-1.75
X1.02Y-1.75
X1.17Y-1.75
T5
X1.98Y-1.04
X1.89Y-1.65
X1.56Y-1.6
T0
M30
